{
.appVersion = "1158";
DisplayStrings = (
"/guilsinglleft.case",
"/guillemetleft.case",
"/guilsinglright.case"
);
classes = (
{
automatic = 1;

glyphs = (
{
color = 10;
glyphname = A;
lastChange = "2018-07-22 17:34:27 +0000";
layers = (
{
anchors = (
{
name = bottom;
position = "{597, 0}";
},
{
name = ogonek;
position = "{1169, 10}";
},
{
name = top;
position = "{795, 1419}";
}
);
guideLines = (
{
angle = 261.4576;
position = "{85, 1083}";
}
);
layerId = "D92FDD0B-F694-41DD-AE46-0E4F694F0F38";
paths = (
{
closed = 1;
nodes = (
"964 128 OFFCURVE",
"965 124 OFFCURVE",
"965 121 CURVE SMOOTH",
"965 86 OFFCURVE",
"901 93 OFFCURVE",
"817 88 CURVE",
"790 85 OFFCURVE",
"782 72 OFFCURVE",
"783 51 CURVE",
"781 36 OFFCURVE",
"791 0 OFFCURVE",
"814 0 CURVE SMOOTH",
"1330 0 LINE SMOOTH",
"1352 0 OFFCURVE",
"1365 36 OFFCURVE",
"1367 51 CURVE",
"1367 81 OFFCURVE",
"1359 85 OFFCURVE",
"1332 88 CURVE SMOOTH",
"1284 93 OFFCURVE",
"1212 77 OFFCURVE",
"1188 165 CURVE",
"823 1472 LINE",
"787 1472 LINE",
"115 165 LINE",
"73 77 OFFCURVE",
"-21 93 OFFCURVE",
"-71 88 CURVE SMOOTH",
"-99 85 OFFCURVE",
"-107 81 OFFCURVE",
"-107 51 CURVE",
"-109 36 OFFCURVE",
"-103 0 OFFCURVE",
"-81 0 CURVE SMOOTH",
"372 0 LINE SMOOTH",
"395 0 OFFCURVE",
"407 36 OFFCURVE",
"409 51 CURVE",
"408 72 OFFCURVE",
"402 85 OFFCURVE",
"377 88 CURVE",
"297 92 OFFCURVE",
"232 87 OFFCURVE",
"232 118 CURVE SMOOTH",
"232 122 OFFCURVE",
"233 127 OFFCURVE",
"235 132 CURVE SMOOTH",
"735 1126 LINE",
"963 132 LINE {name = hr00;}"
);
},
{
closed = 1;
nodes = (
"923 447 LINE",
"919 535 LINE",
"373 535 LINE",
"347 447 LINE"
);
}
);
width = 1374;
},
{
anchors = (
{
name = bottom;
position = "{625, 0}";
},
{
name = ogonek;
position = "{1330, 10}";
},
{
name = top;
position = "{873, 1419}";
}
);
layerId = "BDB4B313-38B1-4B24-B843-560B185382BD";
paths = (
{
closed = 1;
nodes = (
"995 132 OFFCURVE",
"995 125 OFFCURVE",
"995 122 CURVE SMOOTH",
"995 87 OFFCURVE",
"931 95 OFFCURVE",
"846 88 CURVE SMOOTH",
"819 86 OFFCURVE",
"810 71 OFFCURVE",
"810 48 CURVE SMOOTH",
"810 32 OFFCURVE",
"817 0 OFFCURVE",
"839 0 CURVE SMOOTH",
"1485 0 LINE SMOOTH",
"1507 0 OFFCURVE",
"1524 28 OFFCURVE",
"1524 53 CURVE SMOOTH",
"1524 79 OFFCURVE",
"1512 88 OFFCURVE",
"1480 88 CURVE SMOOTH",
"1410 88 OFFCURVE",
"1368 130 OFFCURVE",
"1353 184 CURVE",
"965 1451 LINE",
"789 1451 LINE",
"94 186 LINE SMOOTH",
"62 128 OFFCURVE",
"5 104 OFFCURVE",
"-82 88 CURVE SMOOTH",
"-97 85 OFFCURVE",
"-120 79 OFFCURVE",
"-120 44 CURVE SMOOTH",
"-120 27 OFFCURVE",
"-112 0 OFFCURVE",
"-92 0 CURVE SMOOTH",
"377 0 LINE SMOOTH",
"404 0 OFFCURVE",
"412 29 OFFCURVE",
"412 52 CURVE SMOOTH",
"412 72 OFFCURVE",
"408 83 OFFCURVE",
"373 87 CURVE SMOOTH",
"291 96 OFFCURVE",
"225 113 OFFCURVE",
"225 146 CURVE SMOOTH",
"225 160 OFFCURVE",
"236 188 OFFCURVE",
"243 201 CURVE SMOOTH",
"736 1126 LINE",
"992 142 LINE SMOOTH"
);
},
{
closed = 1;
nodes = (
"983 408 LINE",
"983 494 LINE",
"336 494 LINE",
"336 408 LINE"
);
}
);
width = 1553;
}
);
unicode = 0041;
userData = {
com.typemytype.robofont.mark = (
0.6,
0.609,
1,
1
);
};
},
{
color = 10;
glyphname = AE;
lastChange = "2018-07-18 16:43:50 +0000";
layers = (
{
anchors = (
{
name = bottom;
position = "{884, 0}";
},
{
name = top;
position = "{1087, 1419}";
}
);
layerId = "D92FDD0B-F694-41DD-AE46-0E4F694F0F38";
paths = (
{
closed = 1;
nodes = (
"386 0 LINE SMOOTH",
"409 0 OFFCURVE",
"423 36 OFFCURVE",
"424 51 CURVE SMOOTH",
"425 72 OFFCURVE",
"421 85 OFFCURVE",
"395 88 CURVE",
"282 92 OFFCURVE",
"216 96 OFFCURVE",
"216 123 CURVE SMOOTH",
"216 128 OFFCURVE",
"219 135 OFFCURVE",
"224 142 CURVE",
"430 495 LINE",
"888 495 LINE",
"842 152 LINE SMOOTH",
"836 108 OFFCURVE",
"768 93 OFFCURVE",
"719 88 CURVE SMOOTH",
"691 85 OFFCURVE",
"682 70 OFFCURVE",
"682 46 CURVE SMOOTH",
"682 30 OFFCURVE",
"691 0 OFFCURVE",
"712 0 CURVE SMOOTH",
"1779 1 LINE",
"1837 372 LINE",
"1837 395 OFFCURVE",
"1823 406 OFFCURVE",
"1798 406 CURVE SMOOTH",
"1777 406 OFFCURVE",
"1747 398 OFFCURVE",
"1740 373 CURVE",
"1726 332 OFFCURVE",
"1670 101 OFFCURVE",
"1496 101 CURVE SMOOTH",
"1147 101 LINE SMOOTH",
"1098 101 OFFCURVE",
"1059 114 OFFCURVE",
"1059 175 CURVE",
"1122 657 LINE",
"1386 657 LINE SMOOTH",
"1442 657 OFFCURVE",
"1455 516 OFFCURVE",
"1453 473 CURVE SMOOTH",
"1452 447 OFFCURVE",
"1486 440 OFFCURVE",
"1507 440 CURVE SMOOTH",
"1522 440 OFFCURVE",
"1549 451 OFFCURVE",
"1551 474 CURVE SMOOTH",
"1599 917 LINE",
"1603 940 OFFCURVE",
"1577 951 OFFCURVE",
"1562 951 CURVE SMOOTH",
"1541 951 OFFCURVE",
"1508 944 OFFCURVE",
"1502 918 CURVE SMOOTH",
"1493 878 OFFCURVE",
"1453 743 OFFCURVE",
"1401 743 CURVE SMOOTH",
"1133 743 LINE",
"1212 1331 LINE",
"1601 1331 LINE SMOOTH",
"1747 1331 OFFCURVE",
"1779 1109 OFFCURVE",
"1779 1055 CURVE SMOOTH",
"1779 1027 OFFCURVE",
"1800 1020 OFFCURVE",
"1822 1020 CURVE SMOOTH",
"1837 1020 OFFCURVE",
"1865 1031 OFFCURVE",
"1868 1054 CURVE",
"1879 1418 LINE",
"499 1419 LINE SMOOTH",
"476 1419 OFFCURVE",
"463 1393 OFFCURVE",
"463 1378 CURVE SMOOTH",
"463 1348 OFFCURVE",
"476 1331 OFFCURVE",
"504 1331 CURVE SMOOTH",
"712 1331 LINE",
"95 165 LINE SMOOTH",
"51 82 OFFCURVE",
"-32 93 OFFCURVE",
"-74 88 CURVE SMOOTH",
"-101 85 OFFCURVE",
"-107 81 OFFCURVE",
"-111 51 CURVE SMOOTH",
"-113 36 OFFCURVE",
"-109 0 OFFCURVE",
"-87 0 CURVE SMOOTH"
);
},
{
closed = 1;
nodes = (
"838 1331 LINE",
"999 1331 LINE",
"899 581 LINE",
"480 581 LINE"
);
}
);
width = 1988;
},
{
anchors = (
{
name = bottom;
position = "{1031, 0}";
},
{
name = top;
position = "{1258, 1419}";
}
);
layerId = "BDB4B313-38B1-4B24-B843-560B185382BD";
paths = (
{
closed = 1;
nodes = (
"329 0 LINE SMOOTH",
"352 0 OFFCURVE",
"372 29 OFFCURVE",
"372 51 CURVE SMOOTH",
"372 73 OFFCURVE",
"369 85 OFFCURVE",
"344 88 CURVE",
"239 88 OFFCURVE",
"203 127 OFFCURVE",
"203 167 CURVE SMOOTH",
"203 180 OFFCURVE",
"206 192 OFFCURVE",
"213 204 CURVE SMOOTH",
"341 429 LINE",
"898 429 LINE",
"860 152 LINE",
"850 108 OFFCURVE",
"802 93 OFFCURVE",
"737 88 CURVE SMOOTH",
"709 86 OFFCURVE",
"700 71 OFFCURVE",
"700 48 CURVE SMOOTH",
"700 32 OFFCURVE",
"708 0 OFFCURVE",
"730 0 CURVE SMOOTH",
"1982 1 LINE",
"2045 372 LINE SMOOTH",
"2049 395 OFFCURVE",
"2023 406 OFFCURVE",
"1998 406 CURVE SMOOTH",
"1977 406 OFFCURVE",
"1937 398 OFFCURVE",
"1928 373 CURVE SMOOTH",
"1883 249 OFFCURVE",
"1790 101 OFFCURVE",
"1656 101 CURVE SMOOTH",
"1305 101 LINE SMOOTH",
"1263 101 OFFCURVE",
"1210 114 OFFCURVE",
"1210 174 CURVE",
"1289 682 LINE",
"1552 682 LINE SMOOTH",
"1609 682 OFFCURVE",
"1624 546 OFFCURVE",
"1623 503 CURVE",
"1621 477 OFFCURVE",
"1658 470 OFFCURVE",
"1689 470 CURVE SMOOTH",
"1704 470 OFFCURVE",
"1732 481 OFFCURVE",
"1736 504 CURVE SMOOTH",
"1806 947 LINE SMOOTH",
"1810 970 OFFCURVE",
"1784 981 OFFCURVE",
"1769 981 CURVE SMOOTH",
"1740 981 OFFCURVE",
"1701 974 OFFCURVE",
"1693 948 CURVE SMOOTH",
"1681 908 OFFCURVE",
"1623 785 OFFCURVE",
"1570 778 CURVE",
"1304 778 LINE",
"1392 1331 LINE",
"1794 1332 LINE SMOOTH",
"1926 1332 OFFCURVE",
"1954 1181 OFFCURVE",
"1954 1118 CURVE SMOOTH",
"1954 1083 OFFCURVE",
"1956 1070 OFFCURVE",
"2000 1070 CURVE SMOOTH",
"2015 1070 OFFCURVE",
"2055 1081 OFFCURVE",
"2058 1104 CURVE",
"2083 1418 LINE",
"595 1419 LINE SMOOTH",
"572 1419 OFFCURVE",
"555 1389 OFFCURVE",
"555 1363 CURVE SMOOTH",
"555 1342 OFFCURVE",
"569 1331 OFFCURVE",
"592 1331 CURVE",
"805 1321 LINE",
"58 199 LINE SMOOTH",
"7 123 OFFCURVE",
"-74 92 OFFCURVE",
"-126 88 CURVE SMOOTH",
"-147 86 OFFCURVE",
"-163 77 OFFCURVE",
"-163 51 CURVE SMOOTH",
"-163 36 OFFCURVE",
"-161 0 OFFCURVE",
"-139 0 CURVE SMOOTH"
);
},
{
closed = 1;
nodes = (
"929 1320 LINE",
"1040 1320 LINE",
"910 515 LINE",
"390 515 LINE"
);
}
);
width = 2201;
}
);
unicode = 00C6;
},
{
color = 10;
glyphname = B;
lastChange = "2018-07-18 16:46:48 +0000";
layers = (
{
anchors = (
{
name = bottom;
position = "{600, 0}";
},
{
name = btm;
position = "{665, -170}";
},
{
name = top;
position = "{753, 1419}";
}
);
layerId = "D92FDD0B-F694-41DD-AE46-0E4F694F0F38";
paths = (
{
closed = 1;
nodes = (
"18 35 OFFCURVE",
"24 0 OFFCURVE",
"48 0 CURVE SMOOTH",
"654 0 LINE SMOOTH",
"1008 0 OFFCURVE",
"1230 174 OFFCURVE",
"1230 451 CURVE SMOOTH",
"1230 676 OFFCURVE",
"1042 745 OFFCURVE",
"889 765 CURVE",
"1077 791 OFFCURVE",
"1248 963 OFFCURVE",
"1244 1134 CURVE SMOOTH",
"1239 1355 OFFCURVE",
"1041 1419 OFFCURVE",
"751 1419 CURVE SMOOTH",
"237 1419 LINE SMOOTH",
"214 1419 OFFCURVE",
"197 1383 OFFCURVE",
"197 1368 CURVE",
"196 1362 OFFCURVE",
"196 1357 OFFCURVE",
"196 1352 CURVE SMOOTH",
"196 1337 OFFCURVE",
"205 1333 OFFCURVE",
"227 1331 CURVE SMOOTH",
"291 1325 OFFCURVE",
"379 1321 OFFCURVE",
"379 1248 CURVE SMOOTH",
"379 1243 OFFCURVE",
"379 1239 OFFCURVE",
"378 1234 CURVE SMOOTH",
"212 152 LINE SMOOTH",
"205 107 OFFCURVE",
"130 94 OFFCURVE",
"55 88 CURVE SMOOTH",
"28 86 OFFCURVE",
"19 71 OFFCURVE",
"19 51 CURVE {name = hr00;}"
);
},
{
closed = 1;
nodes = (
"668 715 LINE SMOOTH",
"772 715 OFFCURVE",
"1006 696 OFFCURVE",
"1011 458 CURVE SMOOTH",
"1018 131 OFFCURVE",
"802 96 OFFCURVE",
"614 96 CURVE SMOOTH",
"565 96 OFFCURVE",
"408 100 OFFCURVE",
"406 133 CURVE",
"586 1331 LINE",
"688 1331 LINE SMOOTH",
"901 1331 OFFCURVE",
"1028 1285 OFFCURVE",
"1028 1117 CURVE SMOOTH",
"1028 853 OFFCURVE",
"805 801 OFFCURVE",
"677 801 CURVE SMOOTH",
"452 801 LINE",
"446 715 LINE"
);
}
);
width = 1339;
},
{
anchors = (
{
name = bottom;
position = "{708, 0}";
},
{
name = btm;
position = "{625, -170}";
},
{
name = top;
position = "{884, 1419}";
}
);
layerId = "BDB4B313-38B1-4B24-B843-560B185382BD";
paths = (
{
closed = 1;
nodes = (
"30 29 OFFCURVE",
"35 0 OFFCURVE",
"57 0 CURVE SMOOTH",
"701 0 LINE SMOOTH",
"1232 0 OFFCURVE",
"1444 165 OFFCURVE",
"1449 437 CURVE SMOOTH",
"1453 635 OFFCURVE",
"1260 737 OFFCURVE",
"1057 747 CURVE",
"1292 765 OFFCURVE",
"1423 939 OFFCURVE",
"1423 1112 CURVE SMOOTH",
"1423 1308 OFFCURVE",
"1279 1419 OFFCURVE",
"825 1419 CURVE SMOOTH",
"254 1419 LINE SMOOTH",
"231 1419 OFFCURVE",
"214 1383 OFFCURVE",
"212 1368 CURVE SMOOTH",
"211 1362 OFFCURVE",
"211 1357 OFFCURVE",
"211 1352 CURVE SMOOTH",
"211 1337 OFFCURVE",
"220 1333 OFFCURVE",
"242 1331 CURVE SMOOTH",
"306 1325 OFFCURVE",
"390 1321 OFFCURVE",
"390 1249 CURVE SMOOTH",
"390 1244 OFFCURVE",
"390 1239 OFFCURVE",
"389 1234 CURVE SMOOTH",
"227 152 LINE",
"220 107 OFFCURVE",
"143 93 OFFCURVE",
"68 88 CURVE SMOOTH",
"39 86 OFFCURVE",
"30 69 OFFCURVE",
"30 46 CURVE SMOOTH"
);
},
{
closed = 1;
nodes = (
"723 704 LINE SMOOTH",
"898 704 OFFCURVE",
"1082 696 OFFCURVE",
"1080 458 CURVE",
"1074 131 OFFCURVE",
"855 100 OFFCURVE",
"695 100 CURVE SMOOTH",
"662 100 OFFCURVE",
"571 104 OFFCURVE",
"571 137 CURVE",
"739 1331 LINE",
"774 1331 LINE SMOOTH",
"975 1331 OFFCURVE",
"1082 1278 OFFCURVE",
"1082 1132 CURVE SMOOTH",
"1082 896 OFFCURVE",
"1004 790 OFFCURVE",
"794 790 CURVE SMOOTH",
"578 790 LINE",
"597 704 LINE"
);
}
);
width = 1555;
}
);
unicode = 0042;
},
{
color = 10;
glyphname = C;
lastChange = "2018-07-18 18:01:38 +0000";
layers = (
{
anchors = (
{
name = bottom;
position = "{735, 0}";
},
{
name = top;
position = "{916, 1419}";
}
);
background = {
paths = (
{
closed = 1;
nodes = (
"1039 -30 OFFCURVE",
"1237 79 OFFCURVE",
"1266 123 CURVE",
"1311 489 LINE",
"1315 533 OFFCURVE",
"1376 547 OFFCURVE",
"1435 553 CURVE SMOOTH",
"1466 556 OFFCURVE",
"1475 576 OFFCURVE",
"1473 603 CURVE SMOOTH",
"1472 620 OFFCURVE",
"1463 641 OFFCURVE",
"1446 641 CURVE SMOOTH",
"934 641 LINE SMOOTH",
"892 641 OFFCURVE",
"891 594 OFFCURVE",
"891 574 CURVE SMOOTH",
"891 559 OFFCURVE",
"903 554 OFFCURVE",
"924 553 CURVE",
"995 548 OFFCURVE",
"1097 544 OFFCURVE",
"1102 475 CURVE",
"1058 170 LINE",
"1038 129 OFFCURVE",
"950 65 OFFCURVE",
"742 65 CURVE SMOOTH",
"548 65 OFFCURVE",
"367 260 OFFCURVE",
"367 648 CURVE SMOOTH",
"367 973 OFFCURVE",
"546 1353 OFFCURVE",
"942 1353 CURVE SMOOTH",
"1143 1353 OFFCURVE",
"1264 1245 OFFCURVE",
"1279 1035 CURVE",
"1283 1016 OFFCURVE",
"1296 1010 OFFCURVE",
"1313 1010 CURVE SMOOTH",
"1329 1010 OFFCURVE",
"1370 1020 OFFCURVE",
"1369 1051 CURVE",
"1408 1361 LINE",
"1340 1392 OFFCURVE",
"1197 1449 OFFCURVE",
"944 1449 CURVE SMOOTH",
"580 1449 OFFCURVE",
"128 1178 OFFCURVE",
"127 651 CURVE SMOOTH",
"126 177 OFFCURVE",
"431 -30 OFFCURVE",
"763 -30 CURVE SMOOTH {name = hr00;}"
);
}
);
};
layerId = "D92FDD0B-F694-41DD-AE46-0E4F694F0F38";
paths = (
{
closed = 1;
nodes = (
"982 -30 OFFCURVE",
"1166 80 OFFCURVE",
"1175 108 CURVE",
"1202 375 LINE SMOOTH",
"1204 396 OFFCURVE",
"1149 406 OFFCURVE",
"1134 406 CURVE SMOOTH",
"1112 406 OFFCURVE",
"1104 399 OFFCURVE",
"1094 373 CURVE",
"1045 200 OFFCURVE",
"1007 65 OFFCURVE",
"742 65 CURVE SMOOTH",
"508 65 OFFCURVE",
"378 311 OFFCURVE",
"378 646 CURVE SMOOTH",
"378 1185 OFFCURVE",
"703 1353 OFFCURVE",
"919 1353 CURVE SMOOTH",
"1119 1353 OFFCURVE",
"1177 1256 OFFCURVE",
"1174 1039 CURVE",
"1178 1017 OFFCURVE",
"1199 1010 OFFCURVE",
"1217 1010 CURVE SMOOTH",
"1232 1010 OFFCURVE",
"1279 1020 OFFCURVE",
"1278 1051 CURVE",
"1306 1361 LINE",
"1244 1392 OFFCURVE",
"1164 1449 OFFCURVE",
"929 1449 CURVE SMOOTH",
"585 1449 OFFCURVE",
"131 1184 OFFCURVE",
"131 641 CURVE SMOOTH",
"131 205 OFFCURVE",
"417 -30 OFFCURVE",
"753 -30 CURVE SMOOTH {name = hr00;}"
);
}
);
width = 1315;
},
{
anchors = (
{
name = bottom;
position = "{816, 0}";
},
{
name = top;
position = "{989, 1419}";
}
);
layerId = "BDB4B313-38B1-4B24-B843-560B185382BD";
paths = (
{
closed = 1;
nodes = (
"1064 -30 OFFCURVE",
"1297 70 OFFCURVE",
"1306 98 CURVE",
"1347 375 LINE",
"1347 396 OFFCURVE",
"1282 406 OFFCURVE",
"1265 406 CURVE SMOOTH",
"1238 406 OFFCURVE",
"1222 398 OFFCURVE",
"1210 372 CURVE SMOOTH",
"1110 155 OFFCURVE",
"1034 65 OFFCURVE",
"808 65 CURVE SMOOTH",
"633 65 OFFCURVE",
"489 200 OFFCURVE",
"489 621 CURVE SMOOTH",
"489 1115 OFFCURVE",
"738 1353 OFFCURVE",
"979 1353 CURVE SMOOTH",
"1184 1353 OFFCURVE",
"1292 1263 OFFCURVE",
"1292 1080 CURVE SMOOTH",
"1292 1042 OFFCURVE",
"1306 1020 OFFCURVE",
"1353 1020 CURVE SMOOTH",
"1370 1020 OFFCURVE",
"1435 1030 OFFCURVE",
"1436 1061 CURVE",
"1474 1361 LINE",
"1409 1392 OFFCURVE",
"1261 1449 OFFCURVE",
"996 1449 CURVE SMOOTH",
"499 1449 OFFCURVE",
"116 1119 OFFCURVE",
"116 629 CURVE SMOOTH",
"116 214 OFFCURVE",
"319 -30 OFFCURVE",
"804 -30 CURVE SMOOTH"
);
}
);
width = 1465;
}
);
unicode = 0043;
},
{
color = 10;
glyphname = D;
lastChange = "2018-07-18 17:16:54 +0000";
layers = (
{
anchors = (
{
name = bottom;
position = "{697, 0}";
},
{
name = center;
position = "{797, 710}";
},
{
name = top;
position = "{811, 1419}";
}
);
layerId = "D92FDD0B-F694-41DD-AE46-0E4F694F0F38";
paths = (
{
closed = 1;
nodes = (
"5 36 OFFCURVE",
"14 0 OFFCURVE",
"37 0 CURVE SMOOTH",
"553 0 LINE SMOOTH",
"1113 0 OFFCURVE",
"1435 322 OFFCURVE",
"1435 824 CURVE SMOOTH",
"1435 1095 OFFCURVE",
"1313 1419 OFFCURVE",
"702 1419 CURVE SMOOTH",
"229 1419 LINE SMOOTH",
"206 1419 OFFCURVE",
"188 1383 OFFCURVE",
"189 1368 CURVE",
"188 1362 OFFCURVE",
"187 1357 OFFCURVE",
"187 1353 CURVE SMOOTH",
"187 1336 OFFCURVE",
"196 1333 OFFCURVE",
"218 1331 CURVE SMOOTH",
"278 1326 OFFCURVE",
"388 1320 OFFCURVE",
"379 1234 CURVE",
"215 152 LINE",
"211 108 OFFCURVE",
"109 93 OFFCURVE",
"44 88 CURVE",
"17 85 OFFCURVE",
"8 72 OFFCURVE",
"8 51 CURVE {name = hr00;}"
);
},
{
closed = 1;
nodes = (
"597 1331 LINE",
"667 1331 LINE SMOOTH",
"1022 1331 OFFCURVE",
"1205 1182 OFFCURVE",
"1205 827 CURVE SMOOTH",
"1205 318 OFFCURVE",
"965 101 OFFCURVE",
"595 101 CURVE SMOOTH",
"426 101 OFFCURVE",
"436 115 OFFCURVE",
"424 153 CURVE"
);
}
);
width = 1534;
},
{
anchors = (
{
name = bottom;
position = "{784, 0}";
},
{
name = center;
position = "{884, 710}";
},
{
name = top;
position = "{985, 1419}";
}
);
layerId = "BDB4B313-38B1-4B24-B843-560B185382BD";
paths = (
{
closed = 1;
nodes = (
"30 36 OFFCURVE",
"38 0 OFFCURVE",
"60 0 CURVE SMOOTH",
"792 0 LINE SMOOTH",
"1251 0 OFFCURVE",
"1646 329 OFFCURVE",
"1646 877 CURVE SMOOTH",
"1646 1158 OFFCURVE",
"1447 1417 OFFCURVE",
"953 1419 CURVE",
"267 1419 LINE SMOOTH",
"244 1419 OFFCURVE",
"226 1383 OFFCURVE",
"225 1368 CURVE",
"224 1362 OFFCURVE",
"224 1357 OFFCURVE",
"224 1353 CURVE SMOOTH",
"224 1336 OFFCURVE",
"232 1333 OFFCURVE",
"254 1331 CURVE SMOOTH",
"310 1326 OFFCURVE",
"392 1321 OFFCURVE",
"392 1250 CURVE",
"226 152 LINE",
"220 108 OFFCURVE",
"136 93 OFFCURVE",
"71 88 CURVE",
"44 85 OFFCURVE",
"35 72 OFFCURVE",
"33 51 CURVE"
);
},
{
closed = 1;
nodes = (
"753 1331 LINE",
"856 1331 LINE SMOOTH",
"1105 1331 OFFCURVE",
"1281 1251 OFFCURVE",
"1281 904 CURVE SMOOTH",
"1281 338 OFFCURVE",
"1042 91 OFFCURVE",
"738 91 CURVE SMOOTH",
"578 91 OFFCURVE",
"572 113 OFFCURVE",
"572 135 CURVE"
);
}
);
width = 1708;
}
);
unicode = 0044;
},
{
color = 10;
glyphname = Eth;
lastChange = "2018-07-22 15:01:11 +0000";
layers = (
{
components = (
{
alignment = -1;
name = D;
}
);
layerId = "D92FDD0B-F694-41DD-AE46-0E4F694F0F38";
paths = (
{
closed = 1;
nodes = (
"941 700 OFFCURVE",
"951 732 OFFCURVE",
"951 757 CURVE SMOOTH",
"951 773 OFFCURVE",
"943 790 OFFCURVE",
"927 791 CURVE",
"148 791 LINE",
"134 785 OFFCURVE",
"124 753 OFFCURVE",
"124 728 CURVE SMOOTH",
"124 712 OFFCURVE",
"132 695 OFFCURVE",
"148 694 CURVE",
"927 694 LINE"
);
}
);
width = 1534;
},
{
components = (
{
alignment = -1;
name = D;
}
);
layerId = "BDB4B313-38B1-4B24-B843-560B185382BD";
paths = (
{
closed = 1;
nodes = (
"1011 700 OFFCURVE",
"1021 732 OFFCURVE",
"1021 757 CURVE SMOOTH",
"1021 773 OFFCURVE",
"1013 790 OFFCURVE",
"997 791 CURVE",
"148 791 LINE",
"134 785 OFFCURVE",
"124 753 OFFCURVE",
"124 728 CURVE SMOOTH",
"124 712 OFFCURVE",
"132 695 OFFCURVE",
"148 694 CURVE",
"997 694 LINE"
);
}
);
width = 1708;
}
);
widthMetricsKey = D;
unicode = 00D0;
},
{
color = 10;
glyphname = E;
lastChange = "2018-07-18 17:22:31 +0000";
layers = (
{
anchors = (
{
name = bottom;
position = "{599, 0}";
},
{
name = btm;
position = "{673, -170}";
},
{
name = ogonek;
position = "{1136, 10}";
},
{
name = top;
position = "{802, 1419}";
},
{
name = topleft;
position = "{150, 1419}";
}
);
layerId = "D92FDD0B-F694-41DD-AE46-0E4F694F0F38";
paths = (
{
closed = 1;
nodes = (
"777 687 LINE SMOOTH",
"833 687 OFFCURVE",
"848 546 OFFCURVE",
"849 503 CURVE",
"847 477 OFFCURVE",
"878 470 OFFCURVE",
"899 470 CURVE SMOOTH",
"914 470 OFFCURVE",
"942 481 OFFCURVE",
"946 504 CURVE",
"996 947 LINE",
"1000 970 OFFCURVE",
"972 981 OFFCURVE",
"957 981 CURVE SMOOTH",
"936 981 OFFCURVE",
"907 974 OFFCURVE",
"903 948 CURVE",
"894 908 OFFCURVE",
"844 780 OFFCURVE",
"791 773 CURVE",
"412 773 LINE",
"412 687 LINE {name = hr00;}"
);
},
{
closed = 1;
nodes = (
"995 1331 LINE SMOOTH",
"1133 1331 OFFCURVE",
"1165 1136 OFFCURVE",
"1163 1095 CURVE",
"1165 1069 OFFCURVE",
"1185 1062 OFFCURVE",
"1206 1062 CURVE SMOOTH",
"1221 1062 OFFCURVE",
"1248 1073 OFFCURVE",
"1249 1096 CURVE SMOOTH",
"1263 1419 LINE",
"224 1419 LINE SMOOTH",
"199 1419 OFFCURVE",
"182 1382 OFFCURVE",
"182 1353 CURVE SMOOTH",
"182 1336 OFFCURVE",
"191 1333 OFFCURVE",
"213 1331 CURVE SMOOTH",
"273 1326 OFFCURVE",
"383 1320 OFFCURVE",
"374 1234 CURVE",
"214 152 LINE",
"210 108 OFFCURVE",
"116 93 OFFCURVE",
"51 88 CURVE",
"26 85 OFFCURVE",
"17 72 OFFCURVE",
"17 51 CURVE",
"14 36 OFFCURVE",
"21 0 OFFCURVE",
"44 0 CURVE SMOOTH",
"1173 0 LINE",
"1268 372 LINE",
"1269 395 OFFCURVE",
"1252 406 OFFCURVE",
"1227 406 CURVE SMOOTH",
"1206 406 OFFCURVE",
"1187 398 OFFCURVE",
"1178 373 CURVE",
"1165 332 OFFCURVE",
"1060 97 OFFCURVE",
"896 97 CURVE SMOOTH",
"505 97 LINE",
"465 101 OFFCURVE",
"425 117 OFFCURVE",
"425 174 CURVE",
"592 1331 LINE"
);
}
);
width = 1338;
},
{
anchors = (
{
name = bottom;
position = "{669, 0}";
},
{
name = btm;
position = "{621, -170}";
},
{
name = ogonek;
position = "{1261, 10}";
},
{
name = top;
position = "{885, 1419}";
},
{
name = topleft;
position = "{150, 1419}";
}
);
layerId = "BDB4B313-38B1-4B24-B843-560B185382BD";
paths = (
{
closed = 1;
nodes = (
"929 682 LINE SMOOTH",
"986 682 OFFCURVE",
"1001 546 OFFCURVE",
"1000 503 CURVE",
"998 477 OFFCURVE",
"1035 470 OFFCURVE",
"1066 470 CURVE SMOOTH",
"1081 470 OFFCURVE",
"1109 481 OFFCURVE",
"1113 504 CURVE SMOOTH",
"1183 947 LINE SMOOTH",
"1187 970 OFFCURVE",
"1161 981 OFFCURVE",
"1146 981 CURVE SMOOTH",
"1117 981 OFFCURVE",
"1078 974 OFFCURVE",
"1070 948 CURVE SMOOTH",
"1058 908 OFFCURVE",
"1000 785 OFFCURVE",
"947 778 CURVE",
"503 778 LINE",
"505 682 LINE"
);
},
{
closed = 1;
nodes = (
"1150 1331 LINE SMOOTH",
"1297 1331 OFFCURVE",
"1310 1144 OFFCURVE",
"1310 1103 CURVE SMOOTH",
"1310 1077 OFFCURVE",
"1338 1070 OFFCURVE",
"1359 1070 CURVE SMOOTH",
"1377 1070 OFFCURVE",
"1410 1081 OFFCURVE",
"1414 1104 CURVE",
"1439 1419 LINE",
"241 1419 LINE SMOOTH",
"217 1419 OFFCURVE",
"197 1381 OFFCURVE",
"197 1353 CURVE SMOOTH",
"197 1336 OFFCURVE",
"206 1333 OFFCURVE",
"228 1331 CURVE SMOOTH",
"285 1326 OFFCURVE",
"390 1321 OFFCURVE",
"390 1247 CURVE",
"229 152 LINE",
"223 108 OFFCURVE",
"119 93 OFFCURVE",
"54 88 CURVE",
"27 85 OFFCURVE",
"18 72 OFFCURVE",
"16 51 CURVE",
"13 36 OFFCURVE",
"20 0 OFFCURVE",
"43 0 CURVE SMOOTH",
"1355 0 LINE",
"1424 372 LINE",
"1425 395 OFFCURVE",
"1402 406 OFFCURVE",
"1365 406 CURVE SMOOTH",
"1344 406 OFFCURVE",
"1315 398 OFFCURVE",
"1307 373 CURVE",
"1292 332 OFFCURVE",
"1199 101 OFFCURVE",
"1035 101 CURVE SMOOTH",
"662 101 LINE",
"623 105 OFFCURVE",
"585 120 OFFCURVE",
"585 176 CURVE",
"747 1331 LINE"
);
}
);
width = 1477;
}
);
unicode = 0045;
},
{
color = 10;
glyphname = F;
lastChange = "2018-07-18 17:58:26 +0000";
layers = (
{
anchors = (
{
name = bottom;
position = "{332, 0}";
},
{
name = top;
position = "{777, 1419}";
}
);
layerId = "D92FDD0B-F694-41DD-AE46-0E4F694F0F38";
paths = (
{
closed = 1;
nodes = (
"668 0 LINE SMOOTH",
"691 0 OFFCURVE",
"697 36 OFFCURVE",
"700 51 CURVE",
"702 81 OFFCURVE",
"689 88 OFFCURVE",
"667 88 CURVE SMOOTH",
"582 88 OFFCURVE",
"419 111 OFFCURVE",
"428 197 CURVE",
"591 1332 LINE",
"970 1332 LINE SMOOTH",
"1108 1332 OFFCURVE",
"1146 1108 OFFCURVE",
"1148 1069 CURVE",
"1145 1043 OFFCURVE",
"1163 1036 OFFCURVE",
"1184 1036 CURVE SMOOTH",
"1199 1036 OFFCURVE",
"1227 1047 OFFCURVE",
"1232 1070 CURVE",
"1238 1419 LINE",
"224 1419 LINE SMOOTH",
"199 1419 OFFCURVE",
"182 1382 OFFCURVE",
"182 1353 CURVE SMOOTH",
"182 1336 OFFCURVE",
"191 1333 OFFCURVE",
"213 1331 CURVE",
"285 1326 OFFCURVE",
"383 1320 OFFCURVE",
"374 1234 CURVE",
"216 152 LINE",
"212 108 OFFCURVE",
"123 93 OFFCURVE",
"43 88 CURVE",
"18 85 OFFCURVE",
"9 72 OFFCURVE",
"9 51 CURVE",
"6 36 OFFCURVE",
"13 0 OFFCURVE",
"36 0 CURVE SMOOTH"
);
},
{
closed = 1;
nodes = (
"746 655 LINE SMOOTH",
"802 655 OFFCURVE",
"819 514 OFFCURVE",
"816 471 CURVE",
"818 445 OFFCURVE",
"844 438 OFFCURVE",
"865 438 CURVE SMOOTH",
"880 438 OFFCURVE",
"915 449 OFFCURVE",
"915 472 CURVE",
"965 915 LINE",
"966 938 OFFCURVE",
"942 949 OFFCURVE",
"927 949 CURVE SMOOTH",
"906 949 OFFCURVE",
"877 942 OFFCURVE",
"873 916 CURVE",
"860 876 OFFCURVE",
"814 748 OFFCURVE",
"764 741 CURVE",
"382 741 LINE",
"380 655 LINE {name = hr00;}"
);
}
);
width = 1227;
},
{
anchors = (
{
name = bottom;
position = "{381, 0}";
},
{
name = top;
position = "{842, 1419}";
}
);
layerId = "BDB4B313-38B1-4B24-B843-560B185382BD";
paths = (
{
closed = 1;
nodes = (
"825 0 LINE SMOOTH",
"845 0 OFFCURVE",
"860 36 OFFCURVE",
"860 61 CURVE SMOOTH",
"860 82 OFFCURVE",
"847 87 OFFCURVE",
"828 88 CURVE SMOOTH",
"648 97 OFFCURVE",
"572 108 OFFCURVE",
"572 179 CURVE",
"742 1331 LINE",
"1121 1331 LINE SMOOTH",
"1227 1331 OFFCURVE",
"1289 1108 OFFCURVE",
"1289 1069 CURVE SMOOTH",
"1289 1043 OFFCURVE",
"1304 1036 OFFCURVE",
"1325 1036 CURVE SMOOTH",
"1346 1036 OFFCURVE",
"1386 1047 OFFCURVE",
"1393 1070 CURVE",
"1411 1419 LINE",
"247 1419 LINE SMOOTH",
"223 1419 OFFCURVE",
"203 1381 OFFCURVE",
"203 1353 CURVE SMOOTH",
"203 1336 OFFCURVE",
"212 1333 OFFCURVE",
"234 1331 CURVE",
"302 1326 OFFCURVE",
"392 1321 OFFCURVE",
"392 1249 CURVE",
"229 152 LINE",
"223 108 OFFCURVE",
"134 93 OFFCURVE",
"54 88 CURVE",
"24 85 OFFCURVE",
"15 69 OFFCURVE",
"15 43 CURVE SMOOTH",
"15 26 OFFCURVE",
"23 0 OFFCURVE",
"43 0 CURVE SMOOTH"
);
},
{
closed = 1;
nodes = (
"905 643 LINE SMOOTH",
"962 643 OFFCURVE",
"977 507 OFFCURVE",
"976 464 CURVE",
"974 438 OFFCURVE",
"1011 431 OFFCURVE",
"1042 431 CURVE SMOOTH",
"1057 431 OFFCURVE",
"1085 442 OFFCURVE",
"1089 465 CURVE SMOOTH",
"1159 908 LINE SMOOTH",
"1163 931 OFFCURVE",
"1134 942 OFFCURVE",
"1119 942 CURVE SMOOTH",
"1090 942 OFFCURVE",
"1054 935 OFFCURVE",
"1046 909 CURVE SMOOTH",
"1034 869 OFFCURVE",
"976 746 OFFCURVE",
"923 739 CURVE",
"479 739 LINE",
"481 643 LINE"
);
}
);
width = 1375;
}
);
unicode = 0046;
},
{
color = 10;
glyphname = G;
lastChange = "2018-07-18 18:01:50 +0000";
layers = (
{
anchors = (
{
name = bottom;
position = "{673, 0}";
},
{
name = btm;
position = "{812, -170}";
},
{
name = top;
position = "{933, 1419}";
}
);
layerId = "D92FDD0B-F694-41DD-AE46-0E4F694F0F38";
paths = (
{
closed = 1;
nodes = (
"1039 -30 OFFCURVE",
"1237 79 OFFCURVE",
"1266 123 CURVE",
"1311 489 LINE",
"1315 533 OFFCURVE",
"1376 547 OFFCURVE",
"1435 553 CURVE SMOOTH",
"1466 556 OFFCURVE",
"1475 576 OFFCURVE",
"1473 603 CURVE SMOOTH",
"1472 620 OFFCURVE",
"1463 641 OFFCURVE",
"1446 641 CURVE SMOOTH",
"934 641 LINE SMOOTH",
"892 641 OFFCURVE",
"891 594 OFFCURVE",
"891 574 CURVE SMOOTH",
"891 559 OFFCURVE",
"903 554 OFFCURVE",
"924 553 CURVE",
"995 547 OFFCURVE",
"1097 543 OFFCURVE",
"1102 475 CURVE",
"1058 170 LINE",
"1038 129 OFFCURVE",
"950 65 OFFCURVE",
"742 65 CURVE SMOOTH",
"548 65 OFFCURVE",
"367 260 OFFCURVE",
"367 648 CURVE SMOOTH",
"367 973 OFFCURVE",
"546 1353 OFFCURVE",
"942 1353 CURVE SMOOTH",
"1143 1353 OFFCURVE",
"1264 1245 OFFCURVE",
"1279 1035 CURVE",
"1283 1016 OFFCURVE",
"1296 1010 OFFCURVE",
"1313 1010 CURVE SMOOTH",
"1329 1010 OFFCURVE",
"1370 1020 OFFCURVE",
"1369 1051 CURVE",
"1408 1361 LINE",
"1340 1392 OFFCURVE",
"1197 1449 OFFCURVE",
"944 1449 CURVE SMOOTH",
"580 1449 OFFCURVE",
"128 1178 OFFCURVE",
"127 651 CURVE SMOOTH",
"126 177 OFFCURVE",
"431 -30 OFFCURVE",
"763 -30 CURVE SMOOTH {name = hr00;}"
);
}
);
width = 1485;
},
{
anchors = (
{
name = bottom;
position = "{757, 0}";
},
{
name = btm;
position = "{737, -170}";
},
{
name = top;
position = "{990, 1419}";
}
);
layerId = "BDB4B313-38B1-4B24-B843-560B185382BD";
paths = (
{
closed = 1;
nodes = (
"1138 -30 OFFCURVE",
"1368 79 OFFCURVE",
"1402 123 CURVE",
"1465 489 LINE",
"1465 533 OFFCURVE",
"1538 549 OFFCURVE",
"1601 553 CURVE SMOOTH",
"1631 555 OFFCURVE",
"1641 574 OFFCURVE",
"1641 599 CURVE SMOOTH",
"1641 617 OFFCURVE",
"1634 641 OFFCURVE",
"1616 641 CURVE SMOOTH",
"964 641 LINE SMOOTH",
"922 641 OFFCURVE",
"919 591 OFFCURVE",
"919 577 CURVE SMOOTH",
"919 562 OFFCURVE",
"929 554 OFFCURVE",
"950 553 CURVE",
"1021 547 OFFCURVE",
"1128 543 OFFCURVE",
"1131 475 CURVE",
"1075 170 LINE",
"1059 129 OFFCURVE",
"968 65 OFFCURVE",
"796 65 CURVE SMOOTH",
"610 65 OFFCURVE",
"487 270 OFFCURVE",
"481 598 CURVE SMOOTH",
"475 932 OFFCURVE",
"625 1353 OFFCURVE",
"964 1353 CURVE SMOOTH",
"1144 1353 OFFCURVE",
"1331 1327 OFFCURVE",
"1361 1039 CURVE SMOOTH",
"1364 1010 OFFCURVE",
"1396 1010 OFFCURVE",
"1433 1010 CURVE SMOOTH",
"1449 1010 OFFCURVE",
"1490 1020 OFFCURVE",
"1491 1051 CURVE",
"1540 1361 LINE",
"1465 1392 OFFCURVE",
"1350 1449 OFFCURVE",
"990 1449 CURVE SMOOTH",
"540 1449 OFFCURVE",
"110 1157 OFFCURVE",
"110 609 CURVE SMOOTH",
"110 190 OFFCURVE",
"405 -30 OFFCURVE",
"823 -30 CURVE SMOOTH"
);
}
);
width = 1653;
}
);
unicode = 0047;
},
{
color = 10;
glyphname = H;
lastChange = "2018-07-18 16:44:55 +0000";
layers = (
{
anchors = (
{
name = bottom;
position = "{765, 0}";
},
{
name = center;
position = "{865, 710}";
},
{
name = top;
position = "{972, 1419}";
},
{
name = topleft;
position = "{150, 1419}";
}
);
guideLines = (
{
angle = 261.4576;
position = "{1416, 955}";
}
);
layerId = "D92FDD0B-F694-41DD-AE46-0E4F694F0F38";
paths = (
{
closed = 1;
nodes = (
"566 0 LINE SMOOTH",
"589 0 OFFCURVE",
"600 36 OFFCURVE",
"602 51 CURVE SMOOTH",
"606 81 OFFCURVE",
"597 85 OFFCURVE",
"570 88 CURVE SMOOTH",
"513 94 OFFCURVE",
"429 98 OFFCURVE",
"429 171 CURVE",
"503 687 LINE",
"1222 687 LINE",
"1144 152 LINE SMOOTH {name = hr00;}",
"1138 108 OFFCURVE",
"1056 92 OFFCURVE",
"991 88 CURVE SMOOTH",
"962 86 OFFCURVE",
"954 70 OFFCURVE",
"954 47 CURVE SMOOTH",
"954 31 OFFCURVE",
"965 0 OFFCURVE",
"986 0 CURVE SMOOTH",
"1491 0 LINE SMOOTH",
"1514 0 OFFCURVE",
"1525 36 OFFCURVE",
"1527 51 CURVE SMOOTH",
"1531 81 OFFCURVE",
"1522 85 OFFCURVE",
"1495 88 CURVE SMOOTH",
"1438 94 OFFCURVE",
"1354 98 OFFCURVE",
"1354 171 CURVE",
"1517 1267 LINE",
"1522 1311 OFFCURVE",
"1605 1326 OFFCURVE",
"1669 1331 CURVE",
"1695 1334 OFFCURVE",
"1704 1347 OFFCURVE",
"1707 1368 CURVE",
"1708 1383 OFFCURVE",
"1702 1419 OFFCURVE",
"1679 1419 CURVE SMOOTH",
"1174 1419 LINE SMOOTH",
"1154 1419 OFFCURVE",
"1133 1388 OFFCURVE",
"1133 1355 CURVE SMOOTH",
"1133 1337 OFFCURVE",
"1142 1333 OFFCURVE",
"1165 1331 CURVE SMOOTH",
"1223 1326 OFFCURVE",
"1306 1321 OFFCURVE",
"1306 1248 CURVE",
"1234 773 LINE",
"516 773 LINE",
"592 1267 LINE SMOOTH",
"599 1311 OFFCURVE",
"680 1326 OFFCURVE",
"744 1331 CURVE",
"770 1334 OFFCURVE",
"779 1347 OFFCURVE",
"782 1368 CURVE",
"783 1383 OFFCURVE",
"777 1419 OFFCURVE",
"754 1419 CURVE SMOOTH",
"259 1419 LINE SMOOTH",
"239 1419 OFFCURVE",
"218 1388 OFFCURVE",
"218 1355 CURVE SMOOTH",
"218 1337 OFFCURVE",
"227 1333 OFFCURVE",
"250 1331 CURVE SMOOTH",
"307 1326 OFFCURVE",
"381 1321 OFFCURVE",
"381 1249 CURVE",
"219 152 LINE",
"214 108 OFFCURVE",
"141 92 OFFCURVE",
"76 88 CURVE SMOOTH",
"47 86 OFFCURVE",
"39 70 OFFCURVE",
"39 47 CURVE SMOOTH",
"39 31 OFFCURVE",
"50 0 OFFCURVE",
"71 0 CURVE SMOOTH"
);
}
);
width = 1669;
},
{
anchors = (
{
name = bottom;
position = "{865, 0}";
},
{
name = center;
position = "{965, 710}";
},
{
name = top;
position = "{1078, 1419}";
},
{
name = topleft;
position = "{150, 1419}";
}
);
guideLines = (
{
angle = 261.4576;
position = "{17, 1083}";
},
{
angle = 261.4576;
position = "{2076, 935}";
}
);
layerId = "BDB4B313-38B1-4B24-B843-560B185382BD";
paths = (
{
closed = 1;
nodes = (
"687 0 LINE SMOOTH",
"710 0 OFFCURVE",
"726 24 OFFCURVE",
"726 51 CURVE SMOOTH",
"726 71 OFFCURVE",
"724 85 OFFCURVE",
"697 88 CURVE SMOOTH",
"642 94 OFFCURVE",
"561 98 OFFCURVE",
"561 165 CURVE",
"637 682 LINE",
"1293 682 LINE",
"1214 152 LINE SMOOTH",
"1207 108 OFFCURVE",
"1123 93 OFFCURVE",
"1058 88 CURVE SMOOTH",
"1031 86 OFFCURVE",
"1023 72 OFFCURVE",
"1018 51 CURVE",
"1016 36 OFFCURVE",
"1024 0 OFFCURVE",
"1047 0 CURVE SMOOTH",
"1692 0 LINE SMOOTH",
"1715 0 OFFCURVE",
"1731 23 OFFCURVE",
"1731 51 CURVE SMOOTH",
"1731 71 OFFCURVE",
"1729 85 OFFCURVE",
"1702 88 CURVE SMOOTH",
"1639 95 OFFCURVE",
"1546 98 OFFCURVE",
"1546 166 CURVE",
"1709 1267 LINE",
"1715 1311 OFFCURVE",
"1787 1325 OFFCURVE",
"1845 1331 CURVE SMOOTH",
"1875 1334 OFFCURVE",
"1884 1351 OFFCURVE",
"1884 1377 CURVE SMOOTH",
"1884 1394 OFFCURVE",
"1877 1419 OFFCURVE",
"1858 1419 CURVE SMOOTH",
"1253 1419 LINE SMOOTH",
"1230 1419 OFFCURVE",
"1210 1392 OFFCURVE",
"1210 1374 CURVE SMOOTH",
"1210 1344 OFFCURVE",
"1213 1334 OFFCURVE",
"1241 1331 CURVE SMOOTH",
"1303 1324 OFFCURVE",
"1377 1320 OFFCURVE",
"1377 1253 CURVE",
"1307 778 LINE",
"651 778 LINE",
"724 1267 LINE SMOOTH",
"731 1311 OFFCURVE",
"814 1326 OFFCURVE",
"880 1331 CURVE",
"904 1334 OFFCURVE",
"919 1347 OFFCURVE",
"919 1378 CURVE SMOOTH",
"919 1395 OFFCURVE",
"912 1419 OFFCURVE",
"893 1419 CURVE SMOOTH",
"268 1419 LINE SMOOTH",
"245 1419 OFFCURVE",
"225 1394 OFFCURVE",
"225 1377 CURVE SMOOTH",
"225 1347 OFFCURVE",
"228 1334 OFFCURVE",
"256 1331 CURVE SMOOTH",
"315 1325 OFFCURVE",
"392 1321 OFFCURVE",
"392 1255 CURVE",
"229 152 LINE",
"220 108 OFFCURVE",
"142 93 OFFCURVE",
"73 88 CURVE",
"46 85 OFFCURVE",
"33 72 OFFCURVE",
"33 51 CURVE SMOOTH",
"33 36 OFFCURVE",
"39 0 OFFCURVE",
"62 0 CURVE SMOOTH"
);
}
);
width = 1870;
}
);
unicode = 0048;
},
{
color = 10;
glyphname = Hbar;
lastChange = "2018-07-18 18:03:09 +0000";
layers = (
{
anchors = (
{
name = bottom;
position = "{775, 0}";
},
{
name = center;
position = "{875, 710}";
},
{
name = top;
position = "{982, 1419}";
},
{
name = topleft;
position = "{160, 1419}";
}
);
layerId = "D92FDD0B-F694-41DD-AE46-0E4F694F0F38";
paths = (
{
closed = 1;
nodes = (
"133 989 OFFCURVE",
"117 941 OFFCURVE",
"117 919 CURVE SMOOTH",
"117 906 OFFCURVE",
"124 895 OFFCURVE",
"137 894 CURVE",
"1666 894 LINE",
"1682 901 OFFCURVE",
"1699 949 OFFCURVE",
"1699 971 CURVE SMOOTH",
"1699 984 OFFCURVE",
"1692 995 OFFCURVE",
"1679 996 CURVE",
"149 996 LINE",
"150 996 LINE {name = hr00;}"
);
},
{
closed = 1;
nodes = (
"576 0 LINE SMOOTH",
"599 0 OFFCURVE",
"610 36 OFFCURVE",
"612 51 CURVE SMOOTH",
"616 81 OFFCURVE",
"607 85 OFFCURVE",
"580 88 CURVE SMOOTH",
"523 94 OFFCURVE",
"439 98 OFFCURVE",
"439 171 CURVE",
"503 619 LINE",
"1222 619 LINE",
"1154 152 LINE SMOOTH {name = hr00;}",
"1148 108 OFFCURVE",
"1066 92 OFFCURVE",
"1001 88 CURVE SMOOTH",
"972 86 OFFCURVE",
"964 70 OFFCURVE",
"964 47 CURVE SMOOTH",
"964 31 OFFCURVE",
"975 0 OFFCURVE",
"996 0 CURVE SMOOTH",
"1501 0 LINE SMOOTH",
"1524 0 OFFCURVE",
"1535 36 OFFCURVE",
"1537 51 CURVE SMOOTH",
"1541 81 OFFCURVE",
"1532 85 OFFCURVE",
"1505 88 CURVE SMOOTH",
"1448 94 OFFCURVE",
"1364 98 OFFCURVE",
"1364 171 CURVE",
"1527 1267 LINE",
"1532 1311 OFFCURVE",
"1615 1326 OFFCURVE",
"1679 1331 CURVE",
"1705 1334 OFFCURVE",
"1714 1347 OFFCURVE",
"1717 1368 CURVE",
"1718 1383 OFFCURVE",
"1712 1419 OFFCURVE",
"1689 1419 CURVE SMOOTH",
"1184 1419 LINE SMOOTH",
"1164 1419 OFFCURVE",
"1143 1388 OFFCURVE",
"1143 1355 CURVE SMOOTH",
"1143 1337 OFFCURVE",
"1152 1333 OFFCURVE",
"1175 1331 CURVE SMOOTH",
"1233 1326 OFFCURVE",
"1316 1321 OFFCURVE",
"1316 1248 CURVE",
"1234 705 LINE",
"516 705 LINE",
"602 1267 LINE SMOOTH",
"609 1311 OFFCURVE",
"690 1326 OFFCURVE",
"754 1331 CURVE",
"780 1334 OFFCURVE",
"789 1347 OFFCURVE",
"792 1368 CURVE",
"793 1383 OFFCURVE",
"787 1419 OFFCURVE",
"764 1419 CURVE SMOOTH",
"269 1419 LINE SMOOTH",
"249 1419 OFFCURVE",
"228 1388 OFFCURVE",
"228 1355 CURVE SMOOTH",
"228 1337 OFFCURVE",
"237 1333 OFFCURVE",
"260 1331 CURVE SMOOTH",
"317 1326 OFFCURVE",
"391 1321 OFFCURVE",
"391 1249 CURVE",
"229 152 LINE",
"224 108 OFFCURVE",
"151 92 OFFCURVE",
"86 88 CURVE SMOOTH",
"57 86 OFFCURVE",
"49 70 OFFCURVE",
"49 47 CURVE SMOOTH",
"49 31 OFFCURVE",
"60 0 OFFCURVE",
"81 0 CURVE SMOOTH"
);
}
);
width = 1669;
},
{
anchors = (
{
name = bottom;
position = "{865, 0}";
},
{
name = center;
position = "{965, 710}";
},
{
name = top;
position = "{1078, 1419}";
},
{
name = topleft;
position = "{150, 1419}";
}
);
layerId = "BDB4B313-38B1-4B24-B843-560B185382BD";
paths = (
{
closed = 1;
nodes = (
"223 989 OFFCURVE",
"207 941 OFFCURVE",
"207 919 CURVE SMOOTH",
"207 906 OFFCURVE",
"214 895 OFFCURVE",
"227 894 CURVE",
"1756 894 LINE",
"1772 901 OFFCURVE",
"1789 949 OFFCURVE",
"1789 971 CURVE SMOOTH",
"1789 984 OFFCURVE",
"1782 995 OFFCURVE",
"1769 996 CURVE",
"239 996 LINE",
"240 996 LINE {name = hr00;}"
);
},
{
closed = 1;
nodes = (
"687 0 LINE SMOOTH",
"710 0 OFFCURVE",
"726 24 OFFCURVE",
"726 51 CURVE SMOOTH",
"726 71 OFFCURVE",
"724 85 OFFCURVE",
"697 88 CURVE SMOOTH",
"642 94 OFFCURVE",
"561 98 OFFCURVE",
"561 165 CURVE",
"629 611 LINE",
"1285 611 LINE",
"1214 152 LINE SMOOTH",
"1207 108 OFFCURVE",
"1123 93 OFFCURVE",
"1058 88 CURVE SMOOTH",
"1031 86 OFFCURVE",
"1023 72 OFFCURVE",
"1018 51 CURVE",
"1016 36 OFFCURVE",
"1024 0 OFFCURVE",
"1047 0 CURVE SMOOTH",
"1692 0 LINE SMOOTH",
"1715 0 OFFCURVE",
"1731 23 OFFCURVE",
"1731 51 CURVE SMOOTH",
"1731 71 OFFCURVE",
"1729 85 OFFCURVE",
"1702 88 CURVE SMOOTH",
"1639 95 OFFCURVE",
"1546 98 OFFCURVE",
"1546 166 CURVE",
"1709 1267 LINE",
"1715 1311 OFFCURVE",
"1787 1325 OFFCURVE",
"1845 1331 CURVE SMOOTH",
"1875 1334 OFFCURVE",
"1884 1351 OFFCURVE",
"1884 1377 CURVE SMOOTH",
"1884 1394 OFFCURVE",
"1877 1419 OFFCURVE",
"1858 1419 CURVE SMOOTH",
"1253 1419 LINE SMOOTH",
"1230 1419 OFFCURVE",
"1210 1392 OFFCURVE",
"1210 1374 CURVE SMOOTH",
"1210 1344 OFFCURVE",
"1213 1334 OFFCURVE",
"1241 1331 CURVE SMOOTH",
"1303 1324 OFFCURVE",
"1377 1320 OFFCURVE",
"1377 1253 CURVE",
"1299 707 LINE",
"643 707 LINE",
"724 1267 LINE SMOOTH",
"730 1311 OFFCURVE",
"814 1326 OFFCURVE",
"880 1331 CURVE",
"904 1334 OFFCURVE",
"919 1347 OFFCURVE",
"919 1378 CURVE SMOOTH",
"919 1395 OFFCURVE",
"912 1419 OFFCURVE",
"893 1419 CURVE SMOOTH",
"268 1419 LINE SMOOTH",
"245 1419 OFFCURVE",
"225 1394 OFFCURVE",
"225 1377 CURVE SMOOTH",
"225 1347 OFFCURVE",
"228 1334 OFFCURVE",
"256 1331 CURVE SMOOTH",
"315 1325 OFFCURVE",
"392 1321 OFFCURVE",
"392 1255 CURVE",
"229 152 LINE",
"220 108 OFFCURVE",
"142 93 OFFCURVE",
"73 88 CURVE",
"46 85 OFFCURVE",
"33 72 OFFCURVE",
"33 51 CURVE SMOOTH",
"33 36 OFFCURVE",
"39 0 OFFCURVE",
"62 0 CURVE SMOOTH"
);
}
);
width = 1870;
}
);
unicode = 0126;
},
{
color = 10;
glyphname = I;
lastChange = "2018-07-18 18:05:16 +0000";
layers = (
{
anchors = (
{
name = bottom;
position = "{329, 0}";
},
{
name = btm;
position = "{423, -170}";
},
{
name = ogonek;
position = "{650, 10}";
},
{
name = top;
position = "{534, 1419}";
},
{
name = topleft;
position = "{150, 1419}";
}
);
layerId = "D92FDD0B-F694-41DD-AE46-0E4F694F0F38";
paths = (
{
closed = 1;
nodes = (
"52 26 OFFCURVE",
"57 0 OFFCURVE",
"77 0 CURVE SMOOTH",
"582 0 LINE SMOOTH",
"605 0 OFFCURVE",
"620 36 OFFCURVE",
"623 51 CURVE SMOOTH",
"624 56 OFFCURVE",
"624 60 OFFCURVE",
"624 63 CURVE SMOOTH",
"624 82 OFFCURVE",
"615 85 OFFCURVE",
"592 88 CURVE SMOOTH",
"536 95 OFFCURVE",
"453 98 OFFCURVE",
"453 169 CURVE SMOOTH",
"453 174 OFFCURVE",
"453 179 OFFCURVE",
"454 185 CURVE SMOOTH",
"612 1267 LINE SMOOTH",
"619 1312 OFFCURVE",
"703 1326 OFFCURVE",
"768 1331 CURVE SMOOTH",
"794 1333 OFFCURVE",
"805 1347 OFFCURVE",
"808 1368 CURVE SMOOTH",
"810 1383 OFFCURVE",
"806 1419 OFFCURVE",
"783 1419 CURVE SMOOTH",
"278 1419 LINE SMOOTH",
"255 1419 OFFCURVE",
"235 1383 OFFCURVE",
"235 1368 CURVE SMOOTH",
"235 1362 OFFCURVE",
"233 1356 OFFCURVE",
"233 1352 CURVE SMOOTH",
"233 1336 OFFCURVE",
"242 1333 OFFCURVE",
"264 1331 CURVE SMOOTH",
"320 1326 OFFCURVE",
"403 1321 OFFCURVE",
"403 1249 CURVE SMOOTH",
"403 1244 OFFCURVE",
"403 1239 OFFCURVE",
"402 1234 CURVE SMOOTH",
"242 152 LINE SMOOTH",
"236 108 OFFCURVE",
"153 92 OFFCURVE",
"88 88 CURVE SMOOTH",
"59 86 OFFCURVE",
"52 69 OFFCURVE",
"52 43 CURVE SMOOTH {name = hr00;}"
);
}
);
width = 798;
},
{
anchors = (
{
name = bottom;
position = "{392, 0}";
},
{
name = btm;
position = "{257, -170}";
},
{
name = ogonek;
position = "{763, 10}";
},
{
name = top;
position = "{581, 1419}";
},
{
name = topleft;
position = "{150, 1419}";
}
);
layerId = "BDB4B313-38B1-4B24-B843-560B185382BD";
paths = (
{
closed = 1;
nodes = (
"35 24 OFFCURVE",
"40 0 OFFCURVE",
"59 0 CURVE SMOOTH",
"714 0 LINE SMOOTH",
"737 0 OFFCURVE",
"755 36 OFFCURVE",
"757 51 CURVE SMOOTH",
"758 57 OFFCURVE",
"759 62 OFFCURVE",
"759 66 CURVE SMOOTH",
"759 83 OFFCURVE",
"749 86 OFFCURVE",
"728 88 CURVE SMOOTH",
"673 93 OFFCURVE",
"582 98 OFFCURVE",
"582 167 CURVE SMOOTH",
"582 172 OFFCURVE",
"583 178 OFFCURVE",
"584 185 CURVE SMOOTH",
"745 1267 LINE SMOOTH",
"752 1312 OFFCURVE",
"826 1326 OFFCURVE",
"894 1331 CURVE SMOOTH",
"924 1333 OFFCURVE",
"935 1351 OFFCURVE",
"935 1378 CURVE SMOOTH",
"935 1395 OFFCURVE",
"930 1419 OFFCURVE",
"911 1419 CURVE SMOOTH",
"266 1419 LINE SMOOTH",
"243 1419 OFFCURVE",
"223 1383 OFFCURVE",
"221 1368 CURVE SMOOTH",
"220 1362 OFFCURVE",
"219 1356 OFFCURVE",
"219 1352 CURVE SMOOTH",
"219 1336 OFFCURVE",
"228 1333 OFFCURVE",
"250 1331 CURVE SMOOTH",
"306 1326 OFFCURVE",
"395 1321 OFFCURVE",
"395 1252 CURVE SMOOTH",
"395 1246 OFFCURVE",
"394 1240 OFFCURVE",
"393 1234 CURVE SMOOTH",
"230 152 LINE SMOOTH",
"223 108 OFFCURVE",
"139 92 OFFCURVE",
"74 88 CURVE SMOOTH",
"44 86 OFFCURVE",
"35 68 OFFCURVE",
"35 41 CURVE SMOOTH"
);
}
);
width = 923;
}
);
unicode = 0049;
},
{
color = 10;
glyphname = J;
lastChange = "2018-07-18 20:12:32 +0000";
layers = (
{
anchors = (
{
name = bottom;
position = "{460, 0}";
},
{
name = top;
position = "{842, 1419}";
}
);
layerId = "D92FDD0B-F694-41DD-AE46-0E4F694F0F38";
paths = (
{
closed = 1;
nodes = (
"536 -30 OFFCURVE",
"761 49 OFFCURVE",
"817 439 CURVE SMOOTH",
"936 1267 LINE SMOOTH",
"942 1311 OFFCURVE",
"1040 1324 OFFCURVE",
"1100 1331 CURVE SMOOTH",
"1126 1334 OFFCURVE",
"1140 1350 OFFCURVE",
"1140 1372 CURVE SMOOTH",
"1140 1389 OFFCURVE",
"1133 1419 OFFCURVE",
"1112 1419 CURVE SMOOTH",
"567 1419 LINE SMOOTH",
"542 1419 OFFCURVE",
"525 1381 OFFCURVE",
"525 1352 CURVE SMOOTH",
"525 1337 OFFCURVE",
"534 1333 OFFCURVE",
"556 1331 CURVE SMOOTH",
"624 1325 OFFCURVE",
"739 1320 OFFCURVE",
"728 1248 CURVE SMOOTH",
"604 406 LINE SMOOTH",
"568 161 OFFCURVE",
"478 59 OFFCURVE",
"337 59 CURVE SMOOTH",
"268 59 OFFCURVE",
"216 82 OFFCURVE",
"182 113 CURVE",
"219 378 LINE",
"219 418 OFFCURVE",
"174 433 OFFCURVE",
"150 433 CURVE SMOOTH",
"89 433 OFFCURVE",
"-18 397 OFFCURVE",
"-18 260 CURVE SMOOTH",
"-18 69 OFFCURVE",
"154 -30 OFFCURVE",
"336 -30 CURVE SMOOTH {name = hr01;}"
);
}
);
width = 1060;
},
{
anchors = (
{
name = bottom;
position = "{427, 0}";
},
{
name = top;
position = "{969, 1419}";
}
);
layerId = "BDB4B313-38B1-4B24-B843-560B185382BD";
paths = (
{
closed = 1;
nodes = (
"663 -30 OFFCURVE",
"948 45 OFFCURVE",
"1007 439 CURVE SMOOTH",
"1130 1267 LINE SMOOTH",
"1137 1311 OFFCURVE",
"1233 1326 OFFCURVE",
"1293 1331 CURVE SMOOTH",
"1318 1333 OFFCURVE",
"1333 1350 OFFCURVE",
"1333 1372 CURVE SMOOTH",
"1333 1389 OFFCURVE",
"1328 1419 OFFCURVE",
"1307 1419 CURVE SMOOTH",
"584 1419 LINE SMOOTH",
"554 1419 OFFCURVE",
"550 1375 OFFCURVE",
"550 1352 CURVE SMOOTH",
"550 1337 OFFCURVE",
"559 1332 OFFCURVE",
"581 1331 CURVE SMOOTH",
"739 1324 OFFCURVE",
"789 1323 OFFCURVE",
"789 1259 CURVE",
"661 406 LINE",
"624 134 OFFCURVE",
"556 59 OFFCURVE",
"420 59 CURVE SMOOTH",
"341 59 OFFCURVE",
"264 104 OFFCURVE",
"264 177 CURVE",
"306 447 LINE",
"306 487 OFFCURVE",
"251 532 OFFCURVE",
"181 532 CURVE SMOOTH",
"26 532 OFFCURVE",
"-34 425 OFFCURVE",
"-34 318 CURVE SMOOTH",
"-34 53 OFFCURVE",
"235 -30 OFFCURVE",
"415 -30 CURVE SMOOTH"
);
}
);
width = 1219;
}
);
unicode = 004A;
},
{
color = 10;
glyphname = K;
lastChange = "2018-07-18 20:08:30 +0000";
layers = (
{
anchors = (
{
name = bottom;
position = "{641, 0}";
},
{
name = btm;
position = "{722, -170}";
},
{
name = top;
position = "{989, 1700}";
}
);
layerId = "D92FDD0B-F694-41DD-AE46-0E4F694F0F38";
paths = (
{
closed = 1;
nodes = (
"562 0 LINE SMOOTH",
"585 0 OFFCURVE",
"598 36 OFFCURVE",
"601 51 CURVE SMOOTH",
"607 80 OFFCURVE",
"595 85 OFFCURVE",
"568 88 CURVE SMOOTH",
"508 95 OFFCURVE",
"410 99 OFFCURVE",
"423 185 CURVE SMOOTH",
"587 1267 LINE SMOOTH",
"594 1311 OFFCURVE",
"665 1326 OFFCURVE",
"730 1331 CURVE SMOOTH",
"756 1334 OFFCURVE",
"766 1347 OFFCURVE",
"770 1368 CURVE SMOOTH",
"773 1383 OFFCURVE",
"765 1419 OFFCURVE",
"742 1419 CURVE SMOOTH",
"247 1419 LINE SMOOTH",
"222 1419 OFFCURVE",
"205 1381 OFFCURVE",
"205 1353 CURVE SMOOTH",
"205 1336 OFFCURVE",
"214 1333 OFFCURVE",
"236 1331 CURVE SMOOTH",
"288 1327 OFFCURVE",
"365 1322 OFFCURVE",
"377 1265 CURVE SMOOTH",
"379 1256 OFFCURVE",
"379 1246 OFFCURVE",
"377 1234 CURVE SMOOTH",
"213 152 LINE SMOOTH",
"206 108 OFFCURVE",
"139 94 OFFCURVE",
"74 88 CURVE SMOOTH",
"44 85 OFFCURVE",
"37 69 OFFCURVE",
"37 45 CURVE SMOOTH {name = hr00;}",
"37 28 OFFCURVE",
"47 0 OFFCURVE",
"67 0 CURVE SMOOTH"
);
},
{
closed = 1;
nodes = (
"1394 0 LINE SMOOTH",
"1416 0 OFFCURVE",
"1426 17 OFFCURVE",
"1429 32 CURVE SMOOTH",
"1435 61 OFFCURVE",
"1428 86 OFFCURVE",
"1400 89 CURVE SMOOTH",
"1309 99 OFFCURVE",
"1186 245 OFFCURVE",
"1131 317 CURVE SMOOTH",
"1020 462 OFFCURVE",
"877 684 OFFCURVE",
"762 767 CURVE",
"1269 1263 LINE SMOOTH",
"1321 1313 OFFCURVE",
"1396 1330 OFFCURVE",
"1464 1330 CURVE SMOOTH",
"1486 1330 OFFCURVE",
"1500 1343 OFFCURVE",
"1505 1367 CURVE SMOOTH",
"1508 1382 OFFCURVE",
"1500 1418 OFFCURVE",
"1477 1418 CURVE SMOOTH",
"1045 1418 LINE SMOOTH",
"1020 1418 OFFCURVE",
"1003 1379 OFFCURVE",
"1003 1353 CURVE SMOOTH",
"1003 1340 OFFCURVE",
"1009 1332 OFFCURVE",
"1028 1330 CURVE SMOOTH",
"1063 1326 OFFCURVE",
"1138 1322 OFFCURVE",
"1138 1295 CURVE SMOOTH",
"1138 1290 OFFCURVE",
"1135 1283 OFFCURVE",
"1128 1276 CURVE SMOOTH",
"547 692 LINE",
"690 674 OFFCURVE",
"880 239 OFFCURVE",
"1028 70 CURVE SMOOTH",
"1057 37 OFFCURVE",
"1091 0 OFFCURVE",
"1162 0 CURVE SMOOTH"
);
}
);
width = 1422;
},
{
anchors = (
{
name = bottom;
position = "{767, 0}";
},
{
name = btm;
position = "{758, -170}";
},
{
name = top;
position = "{1022, 1700}";
}
);
layerId = "BDB4B313-38B1-4B24-B843-560B185382BD";
paths = (
{
closed = 1;
nodes = (
"717 0 LINE SMOOTH",
"738 0 OFFCURVE",
"759 37 OFFCURVE",
"759 63 CURVE SMOOTH",
"759 82 OFFCURVE",
"750 85 OFFCURVE",
"727 88 CURVE",
"657 93 OFFCURVE",
"551 97 OFFCURVE",
"562 169 CURVE SMOOTH",
"728 1267 LINE",
"734 1312 OFFCURVE",
"799 1326 OFFCURVE",
"867 1331 CURVE SMOOTH",
"893 1333 OFFCURVE",
"903 1347 OFFCURVE",
"907 1368 CURVE SMOOTH",
"908 1383 OFFCURVE",
"904 1419 OFFCURVE",
"881 1419 CURVE SMOOTH",
"267 1419 LINE SMOOTH",
"243 1419 OFFCURVE",
"223 1381 OFFCURVE",
"223 1353 CURVE SMOOTH",
"223 1336 OFFCURVE",
"232 1333 OFFCURVE",
"254 1331 CURVE SMOOTH",
"310 1326 OFFCURVE",
"392 1321 OFFCURVE",
"392 1251 CURVE SMOOTH",
"392 1246 OFFCURVE",
"392 1240 OFFCURVE",
"391 1234 CURVE SMOOTH",
"228 152 LINE SMOOTH",
"221 108 OFFCURVE",
"138 93 OFFCURVE",
"73 88 CURVE SMOOTH",
"46 86 OFFCURVE",
"37 72 OFFCURVE",
"35 51 CURVE",
"32 36 OFFCURVE",
"39 0 OFFCURVE",
"62 0 CURVE SMOOTH"
);
},
{
closed = 1;
nodes = (
"1617 0 LINE SMOOTH",
"1642 0 OFFCURVE",
"1656 19 OFFCURVE",
"1656 53 CURVE SMOOTH",
"1656 72 OFFCURVE",
"1649 87 OFFCURVE",
"1627 89 CURVE SMOOTH",
"1532 98 OFFCURVE",
"1428 244 OFFCURVE",
"1376 317 CURVE SMOOTH",
"1306 415 OFFCURVE",
"1157 658 OFFCURVE",
"996 846 CURVE",
"1370 1211 LINE SMOOTH",
"1404 1245 OFFCURVE",
"1500 1330 OFFCURVE",
"1661 1330 CURVE SMOOTH",
"1683 1330 OFFCURVE",
"1697 1343 OFFCURVE",
"1702 1367 CURVE",
"1703 1382 OFFCURVE",
"1699 1418 OFFCURVE",
"1676 1418 CURVE SMOOTH",
"1154 1418 LINE SMOOTH",
"1130 1418 OFFCURVE",
"1110 1379 OFFCURVE",
"1110 1353 CURVE SMOOTH",
"1110 1340 OFFCURVE",
"1116 1332 OFFCURVE",
"1135 1330 CURVE SMOOTH",
"1205 1323 OFFCURVE",
"1264 1303 OFFCURVE",
"1264 1275 CURVE SMOOTH",
"1264 1266 OFFCURVE",
"1259 1257 OFFCURVE",
"1249 1246 CURVE SMOOTH",
"698 692 LINE",
"781 625 OFFCURVE",
"960 339 OFFCURVE",
"1099 70 CURVE SMOOTH",
"1114 41 OFFCURVE",
"1132 0 OFFCURVE",
"1199 0 CURVE SMOOTH"
);
}
);
width = 1673;
}
);
unicode = 004B;
},
{
color = 10;
glyphname = L;
lastChange = "2018-07-22 15:36:36 +0000";
layers = (
{
anchors = (
{
name = bottom;
position = "{548, 0}";
},
{
name = btm;
position = "{591, -170}";
},
{
name = center;
position = "{648, 710}";
},
{
name = top;
position = "{524, 1419}";
},
{
name = topright;
position = "{1090, 1419}";
}
);
layerId = "D92FDD0B-F694-41DD-AE46-0E4F694F0F38";
paths = (
{
closed = 1;
nodes = (
"21 28 OFFCURVE",
"31 0 OFFCURVE",
"51 0 CURVE SMOOTH",
"1092 0 LINE",
"1193 439 LINE SMOOTH",
"1196 462 OFFCURVE",
"1170 473 OFFCURVE",
"1145 473 CURVE SMOOTH",
"1124 473 OFFCURVE",
"1104 464 OFFCURVE",
"1095 440 CURVE SMOOTH",
"1025 296 OFFCURVE",
"977 101 OFFCURVE",
"794 101 CURVE SMOOTH",
"494 101 LINE SMOOTH",
"453 101 OFFCURVE",
"418 114 OFFCURVE",
"418 163 CURVE",
"586 1237 LINE",
"599 1311 OFFCURVE",
"698 1331 OFFCURVE",
"772 1331 CURVE SMOOTH",
"797 1331 OFFCURVE",
"808 1347 OFFCURVE",
"812 1368 CURVE SMOOTH",
"815 1383 OFFCURVE",
"807 1419 OFFCURVE",
"784 1419 CURVE SMOOTH",
"249 1419 LINE SMOOTH",
"224 1419 OFFCURVE",
"207 1381 OFFCURVE",
"207 1353 CURVE SMOOTH",
"207 1336 OFFCURVE",
"216 1333 OFFCURVE",
"238 1331 CURVE SMOOTH",
"298 1326 OFFCURVE",
"392 1320 OFFCURVE",
"379 1234 CURVE SMOOTH",
"211 152 LINE SMOOTH",
"204 108 OFFCURVE",
"123 94 OFFCURVE",
"58 88 CURVE SMOOTH",
"28 85 OFFCURVE",
"21 69 OFFCURVE",
"21 45 CURVE SMOOTH {name = hr00;}"
);
}
);
width = 1236;
},
{
anchors = (
{
name = bottom;
position = "{632, 0}";
},
{
name = btm;
position = "{639, -170}";
},
{
name = center;
position = "{732, 710}";
},
{
name = top;
position = "{567, 1419}";
},
{
name = topright;
position = "{1219, 1419}";
}
);
layerId = "BDB4B313-38B1-4B24-B843-560B185382BD";
paths = (
{
closed = 1;
nodes = (
"30 26 OFFCURVE",
"38 0 OFFCURVE",
"58 0 CURVE SMOOTH",
"1233 0 LINE",
"1348 497 LINE SMOOTH",
"1354 520 OFFCURVE",
"1311 531 OFFCURVE",
"1282 531 CURVE SMOOTH",
"1261 531 OFFCURVE",
"1231 522 OFFCURVE",
"1220 498 CURVE SMOOTH",
"1146 354 OFFCURVE",
"1029 101 OFFCURVE",
"909 101 CURVE SMOOTH",
"655 101 LINE SMOOTH",
"615 101 OFFCURVE",
"583 113 OFFCURVE",
"583 159 CURVE",
"747 1237 LINE",
"760 1311 OFFCURVE",
"849 1331 OFFCURVE",
"917 1331 CURVE SMOOTH",
"943 1331 OFFCURVE",
"953 1347 OFFCURVE",
"957 1368 CURVE SMOOTH",
"960 1383 OFFCURVE",
"954 1419 OFFCURVE",
"931 1419 CURVE SMOOTH",
"266 1419 LINE SMOOTH",
"242 1419 OFFCURVE",
"222 1381 OFFCURVE",
"222 1353 CURVE SMOOTH",
"222 1336 OFFCURVE",
"231 1333 OFFCURVE",
"253 1331 CURVE SMOOTH",
"309 1326 OFFCURVE",
"391 1321 OFFCURVE",
"391 1250 CURVE",
"224 152 LINE",
"218 108 OFFCURVE",
"134 94 OFFCURVE",
"69 88 CURVE SMOOTH",
"39 85 OFFCURVE",
"30 69 OFFCURVE",
"30 43 CURVE SMOOTH"
);
}
);
width = 1404;
}
);
unicode = 004C;
},
{
color = 10;
glyphname = Lslash;
lastChange = "2018-07-22 15:24:41 +0000";
layers = (
{
components = (
{
name = L;
}
);
layerId = "D92FDD0B-F694-41DD-AE46-0E4F694F0F38";
paths = (
{
closed = 1;
nodes = (
"894 894 LINE",
"898 898 OFFCURVE",
"900 907 OFFCURVE",
"900 918 CURVE SMOOTH",
"900 957 OFFCURVE",
"884 1004 OFFCURVE",
"855 994 CURVE",
"73 674 LINE",
"67 668 OFFCURVE",
"64 657 OFFCURVE",
"64 645 CURVE SMOOTH",
"64 616 OFFCURVE",
"93 568 OFFCURVE",
"112 574 CURVE"
);
}
);
width = 1236;
},
{
components = (
{
name = L;
transform = "{1, 0, 0, 1, 5, 0}";
}
);
layerId = "BDB4B313-38B1-4B24-B843-560B185382BD";
paths = (
{
closed = 1;
nodes = (
"1036 894 LINE",
"1040 898 OFFCURVE",
"1042 907 OFFCURVE",
"1042 918 CURVE SMOOTH",
"1042 957 OFFCURVE",
"1026 1004 OFFCURVE",
"997 994 CURVE",
"103 674 LINE",
"97 668 OFFCURVE",
"94 657 OFFCURVE",
"94 645 CURVE SMOOTH",
"94 616 OFFCURVE",
"123 568 OFFCURVE",
"142 574 CURVE"
);
}
);
width = 1404;
}
);
unicode = 0141;
},
{
color = 10;
glyphname = M;
lastChange = "2018-07-22 15:52:13 +0000";
layers = (
{
anchors = (
{
name = bottom;
position = "{867, 0}";
},
{
name = top;
position = "{1078, 1419}";
}
);
layerId = "D92FDD0B-F694-41DD-AE46-0E4F694F0F38";
paths = (
{
closed = 1;
nodes = (
"496 0 LINE SMOOTH",
"519 0 OFFCURVE",
"533 36 OFFCURVE",
"535 51 CURVE SMOOTH",
"537 81 OFFCURVE",
"529 85 OFFCURVE",
"502 88 CURVE",
"434 93 OFFCURVE",
"319 99 OFFCURVE",
"319 173 CURVE SMOOTH",
"319 177 OFFCURVE",
"319 181 OFFCURVE",
"320 185 CURVE SMOOTH",
"520 1281 LINE",
"551 1281 LINE",
"850 0 LINE",
"900 0 LINE",
"1501 1281 LINE",
"1530 1281 LINE",
"1453 152 LINE SMOOTH",
"1450 108 OFFCURVE",
"1326 93 OFFCURVE",
"1261 88 CURVE",
"1232 85 OFFCURVE",
"1225 70 OFFCURVE",
"1225 46 CURVE SMOOTH",
"1225 29 OFFCURVE",
"1233 0 OFFCURVE",
"1254 0 CURVE SMOOTH",
"1829 0 LINE SMOOTH",
"1852 0 OFFCURVE",
"1866 36 OFFCURVE",
"1868 51 CURVE SMOOTH",
"1870 81 OFFCURVE",
"1862 85 OFFCURVE",
"1835 88 CURVE SMOOTH",
"1775 93 OFFCURVE",
"1658 99 OFFCURVE",
"1663 175 CURVE SMOOTH",
"1733 1267 LINE SMOOTH",
"1738 1311 OFFCURVE",
"1842 1326 OFFCURVE",
"1907 1331 CURVE",
"1933 1334 OFFCURVE",
"1942 1347 OFFCURVE",
"1945 1368 CURVE SMOOTH",
"1945 1383 OFFCURVE",
"1941 1419 OFFCURVE",
"1918 1419 CURVE SMOOTH",
"1458 1419 LINE",
"1443 1373 OFFCURVE",
"1418 1326 OFFCURVE",
"1385 1246 CURVE",
"976 376 LINE",
"964 376 LINE",
"751 1419 LINE",
"237 1419 LINE",
"215 1418 OFFCURVE",
"195 1390 OFFCURVE",
"195 1355 CURVE SMOOTH",
"195 1337 OFFCURVE",
"204 1333 OFFCURVE",
"227 1331 CURVE",
"296 1326 OFFCURVE",
"419 1320 OFFCURVE",
"419 1245 CURVE SMOOTH",
"419 1242 OFFCURVE",
"419 1238 OFFCURVE",
"418 1234 CURVE SMOOTH",
"214 184 LINE SMOOTH",
"201 101 OFFCURVE",
"88 93 OFFCURVE",
"12 88 CURVE",
"-18 85 OFFCURVE",
"-23 69 OFFCURVE",
"-23 43 CURVE SMOOTH",
"-23 26 OFFCURVE",
"-18 0 OFFCURVE",
"1 0 CURVE SMOOTH"
);
}
);
width = 1899;
},
{
anchors = (
{
name = bottom;
position = "{912, 0}";
},
{
name = top;
position = "{1195, 1419}";
}
);
layerId = "BDB4B313-38B1-4B24-B843-560B185382BD";
paths = (
{
closed = 1;
nodes = (
"484 0 LINE SMOOTH",
"506 0 OFFCURVE",
"526 36 OFFCURVE",
"526 63 CURVE SMOOTH",
"526 82 OFFCURVE",
"517 85 OFFCURVE",
"494 88 CURVE",
"427 93 OFFCURVE",
"314 99 OFFCURVE",
"314 170 CURVE SMOOTH",
"314 175 OFFCURVE",
"315 180 OFFCURVE",
"316 185 CURVE SMOOTH",
"518 1281 LINE",
"554 1281 LINE",
"848 0 LINE",
"953 0 LINE",
"1549 1281 LINE",
"1578 1281 LINE",
"1490 152 LINE SMOOTH",
"1485 108 OFFCURVE",
"1361 93 OFFCURVE",
"1296 88 CURVE",
"1269 85 OFFCURVE",
"1261 72 OFFCURVE",
"1258 51 CURVE SMOOTH",
"1256 36 OFFCURVE",
"1263 0 OFFCURVE",
"1285 0 CURVE SMOOTH",
"1987 0 LINE SMOOTH",
"2008 0 OFFCURVE",
"2029 37 OFFCURVE",
"2029 63 CURVE SMOOTH",
"2029 82 OFFCURVE",
"2020 85 OFFCURVE",
"1997 88 CURVE SMOOTH",
"1937 93 OFFCURVE",
"1819 99 OFFCURVE",
"1829 185 CURVE SMOOTH",
"1908 1267 LINE SMOOTH",
"1913 1311 OFFCURVE",
"2019 1326 OFFCURVE",
"2084 1331 CURVE",
"2113 1334 OFFCURVE",
"2122 1350 OFFCURVE",
"2122 1376 CURVE SMOOTH",
"2122 1393 OFFCURVE",
"2117 1419 OFFCURVE",
"2097 1419 CURVE SMOOTH",
"1499 1419 LINE",
"1482 1373 OFFCURVE",
"1467 1326 OFFCURVE",
"1430 1246 CURVE",
"1063 484 LINE",
"1051 484 LINE",
"885 1419 LINE",
"239 1419 LINE",
"218 1418 OFFCURVE",
"195 1387 OFFCURVE",
"195 1355 CURVE SMOOTH",
"195 1337 OFFCURVE",
"204 1333 OFFCURVE",
"227 1331 CURVE",
"295 1326 OFFCURVE",
"415 1320 OFFCURVE",
"415 1248 CURVE SMOOTH",
"415 1244 OFFCURVE",
"415 1239 OFFCURVE",
"414 1234 CURVE SMOOTH",
"218 184 LINE SMOOTH",
"201 101 OFFCURVE",
"80 93 OFFCURVE",
"2 88 CURVE",
"-25 85 OFFCURVE",
"-32 72 OFFCURVE",
"-35 51 CURVE SMOOTH",
"-37 36 OFFCURVE",
"-33 0 OFFCURVE",
"-11 0 CURVE SMOOTH"
);
}
);
width = 2116;
}
);
unicode = 004D;
},
{
color = 10;
glyphname = N;
lastChange = "2018-07-22 15:22:07 +0000";
layers = (
{
anchors = (
{
name = bottom;
position = "{716, 0}";
},
{
name = top;
position = "{903, 1419}";
}
);
layerId = "D92FDD0B-F694-41DD-AE46-0E4F694F0F38";
paths = (
{
closed = 1;
nodes = (
"482 0 LINE SMOOTH",
"500 0 OFFCURVE",
"522 19 OFFCURVE",
"522 63 CURVE",
"522 82 OFFCURVE",
"513 85 OFFCURVE",
"490 88 CURVE SMOOTH",
"430 96 OFFCURVE",
"292 99 OFFCURVE",
"303 165 CURVE SMOOTH",
"468 1178 LINE {name = hr02;}",
"485 1178 LINE",
"1110 -8 LINE",
"1118 -20 OFFCURVE",
"1149 -30 OFFCURVE",
"1170 -30 CURVE SMOOTH",
"1198 -30 OFFCURVE",
"1238 -16 OFFCURVE",
"1242 40 CURVE SMOOTH",
"1245 78 OFFCURVE",
"1243 88 OFFCURVE",
"1247 113 CURVE SMOOTH",
"1421 1234 LINE SMOOTH",
"1434 1320 OFFCURVE",
"1549 1324 OFFCURVE",
"1611 1331 CURVE SMOOTH",
"1637 1334 OFFCURVE",
"1647 1347 OFFCURVE",
"1651 1368 CURVE SMOOTH",
"1654 1383 OFFCURVE",
"1648 1419 OFFCURVE",
"1625 1419 CURVE SMOOTH",
"1150 1419 LINE SMOOTH",
"1126 1419 OFFCURVE",
"1106 1381 OFFCURVE",
"1106 1353 CURVE SMOOTH",
"1106 1336 OFFCURVE",
"1115 1333 OFFCURVE",
"1137 1331 CURVE SMOOTH",
"1194 1326 OFFCURVE",
"1318 1321 OFFCURVE",
"1318 1245 CURVE SMOOTH",
"1318 1242 OFFCURVE",
"1318 1238 OFFCURVE",
"1317 1234 CURVE SMOOTH",
"1181 314 LINE",
"1169 314 LINE",
"576 1419 LINE",
"224 1419 LINE SMOOTH",
"201 1419 OFFCURVE",
"183 1383 OFFCURVE",
"182 1368 CURVE SMOOTH",
"180 1342 OFFCURVE",
"192 1334 OFFCURVE",
"224 1331 CURVE SMOOTH",
"280 1326 OFFCURVE",
"373 1294 OFFCURVE",
"373 1219 CURVE SMOOTH",
"373 1214 OFFCURVE",
"373 1209 OFFCURVE",
"372 1204 CURVE SMOOTH",
"194 172 LINE SMOOTH",
"183 108 OFFCURVE",
"81 93 OFFCURVE",
"18 88 CURVE {name = hr03;}",
"-10 85 OFFCURVE",
"-19 68 OFFCURVE",
"-19 42 CURVE SMOOTH {name = hr01;}",
"-19 25 OFFCURVE",
"-12 0 OFFCURVE",
"7 0 CURVE SMOOTH"
);
}
);
width = 1571;
},
{
anchors = (
{
name = bottom;
position = "{780, 0}";
},
{
name = top;
position = "{1027, 1419}";
}
);
layerId = "BDB4B313-38B1-4B24-B843-560B185382BD";
paths = (
{
closed = 1;
nodes = (
"512 0 LINE SMOOTH",
"535 0 OFFCURVE",
"555 33 OFFCURVE",
"555 58 CURVE SMOOTH",
"555 75 OFFCURVE",
"545 86 OFFCURVE",
"524 88 CURVE SMOOTH",
"467 93 OFFCURVE",
"320 98 OFFCURVE",
"320 173 CURVE",
"470 1180 LINE",
"487 1180 LINE",
"1113 -8 LINE",
"1121 -20 OFFCURVE",
"1213 -30 OFFCURVE",
"1234 -30 CURVE SMOOTH",
"1311 -30 OFFCURVE",
"1375 -16 OFFCURVE",
"1392 40 CURVE SMOOTH",
"1403 77 OFFCURVE",
"1395 88 OFFCURVE",
"1399 113 CURVE SMOOTH",
"1564 1234 LINE SMOOTH",
"1577 1321 OFFCURVE",
"1714 1324 OFFCURVE",
"1775 1331 CURVE SMOOTH",
"1802 1334 OFFCURVE",
"1816 1351 OFFCURVE",
"1816 1378 CURVE SMOOTH",
"1816 1395 OFFCURVE",
"1810 1419 OFFCURVE",
"1791 1419 CURVE SMOOTH",
"1266 1419 LINE SMOOTH",
"1243 1419 OFFCURVE",
"1225 1383 OFFCURVE",
"1222 1368 CURVE SMOOTH",
"1217 1342 OFFCURVE",
"1232 1334 OFFCURVE",
"1264 1331 CURVE SMOOTH",
"1320 1326 OFFCURVE",
"1465 1321 OFFCURVE",
"1465 1246 CURVE SMOOTH",
"1465 1242 OFFCURVE",
"1465 1238 OFFCURVE",
"1464 1234 CURVE SMOOTH",
"1330 282 LINE",
"1318 282 LINE",
"715 1419 LINE",
"238 1419 LINE SMOOTH",
"215 1419 OFFCURVE",
"192 1380 OFFCURVE",
"192 1353 CURVE SMOOTH",
"192 1336 OFFCURVE",
"201 1333 OFFCURVE",
"223 1331 CURVE SMOOTH",
"279 1326 OFFCURVE",
"379 1295 OFFCURVE",
"379 1221 CURVE SMOOTH",
"379 1216 OFFCURVE",
"378 1210 OFFCURVE",
"377 1204 CURVE SMOOTH",
"219 172 LINE SMOOTH",
"209 108 OFFCURVE",
"72 93 OFFCURVE",
"9 88 CURVE",
"-28 84 OFFCURVE",
"-32 64 OFFCURVE",
"-32 33 CURVE SMOOTH",
"-32 23 OFFCURVE",
"-25 0 OFFCURVE",
"-6 0 CURVE SMOOTH"
);
}
);
width = 1699;
}
);
unicode = 004E;
},
{
color = 10;
glyphname = Eng;
lastChange = "2018-07-22 15:21:55 +0000";
layers = (
{
anchors = (
{
name = bottom;
position = "{716, 0}";
}
);
layerId = "D92FDD0B-F694-41DD-AE46-0E4F694F0F38";
paths = (
{
closed = 1;
nodes = (
"1150 1419 LINE SMOOTH",
"1126 1419 OFFCURVE",
"1106 1381 OFFCURVE",
"1106 1353 CURVE SMOOTH",
"1106 1336 OFFCURVE",
"1115 1333 OFFCURVE",
"1137 1331 CURVE SMOOTH",
"1194 1326 OFFCURVE",
"1318 1321 OFFCURVE",
"1318 1245 CURVE SMOOTH",
"1318 1242 OFFCURVE",
"1318 1238 OFFCURVE",
"1317 1234 CURVE",
"1181 314 LINE",
"1169 314 LINE",
"576 1419 LINE",
"224 1419 LINE SMOOTH",
"201 1419 OFFCURVE",
"183 1383 OFFCURVE",
"182 1368 CURVE SMOOTH",
"180 1342 OFFCURVE",
"192 1334 OFFCURVE",
"224 1331 CURVE SMOOTH",
"280 1326 OFFCURVE",
"373 1294 OFFCURVE",
"373 1219 CURVE SMOOTH",
"373 1214 OFFCURVE",
"373 1209 OFFCURVE",
"372 1204 CURVE SMOOTH",
"194 172 LINE SMOOTH",
"183 108 OFFCURVE",
"81 93 OFFCURVE",
"18 88 CURVE SMOOTH {name = hr03;}",
"-10 85 OFFCURVE",
"-19 68 OFFCURVE",
"-19 42 CURVE SMOOTH {name = hr01;}",
"-19 25 OFFCURVE",
"-12 0 OFFCURVE",
"7 0 CURVE SMOOTH",
"482 0 LINE SMOOTH",
"500 0 OFFCURVE",
"522 19 OFFCURVE",
"522 63 CURVE SMOOTH",
"522 82 OFFCURVE",
"513 85 OFFCURVE",
"490 88 CURVE SMOOTH",
"430 96 OFFCURVE",
"292 99 OFFCURVE",
"303 165 CURVE SMOOTH",
"468 1178 LINE {name = hr02;}",
"485 1178 LINE",
"1075 58 LINE",
"1078 47 OFFCURVE",
"1084 16 OFFCURVE",
"1084 -52 CURVE SMOOTH",
"1084 -188 OFFCURVE",
"971 -333 OFFCURVE",
"819 -333 CURVE",
"747 -178 LINE",
"704 -178 OFFCURVE",
"612 -212 OFFCURVE",
"612 -305 CURVE SMOOTH",
"612 -371 OFFCURVE",
"672 -450 OFFCURVE",
"771 -450 CURVE SMOOTH",
"1068 -450 OFFCURVE",
"1194 -226 OFFCURVE",
"1247 113 CURVE SMOOTH",
"1421 1234 LINE SMOOTH",
"1434 1320 OFFCURVE",
"1549 1324 OFFCURVE",
"1611 1331 CURVE SMOOTH",
"1637 1334 OFFCURVE",
"1647 1347 OFFCURVE",
"1651 1368 CURVE SMOOTH",
"1654 1383 OFFCURVE",
"1648 1419 OFFCURVE",
"1625 1419 CURVE SMOOTH"
);
}
);
width = 1571;
},
{
anchors = (
{
name = bottom;
position = "{780, 0}";
}
);
layerId = "BDB4B313-38B1-4B24-B843-560B185382BD";
paths = (
{
closed = 1;
nodes = (
"1266 1419 LINE SMOOTH",
"1243 1419 OFFCURVE",
"1225 1383 OFFCURVE",
"1222 1368 CURVE SMOOTH",
"1217 1342 OFFCURVE",
"1232 1334 OFFCURVE",
"1264 1331 CURVE SMOOTH",
"1320 1326 OFFCURVE",
"1465 1321 OFFCURVE",
"1465 1246 CURVE SMOOTH",
"1465 1242 OFFCURVE",
"1465 1238 OFFCURVE",
"1464 1234 CURVE",
"1330 282 LINE",
"1318 282 LINE",
"715 1419 LINE",
"238 1419 LINE SMOOTH",
"215 1419 OFFCURVE",
"192 1380 OFFCURVE",
"192 1353 CURVE SMOOTH",
"192 1336 OFFCURVE",
"201 1333 OFFCURVE",
"223 1331 CURVE SMOOTH",
"279 1326 OFFCURVE",
"379 1295 OFFCURVE",
"379 1221 CURVE SMOOTH",
"379 1216 OFFCURVE",
"378 1210 OFFCURVE",
"377 1204 CURVE SMOOTH",
"219 172 LINE SMOOTH",
"209 108 OFFCURVE",
"72 93 OFFCURVE",
"9 88 CURVE SMOOTH",
"-28 84 OFFCURVE",
"-32 64 OFFCURVE",
"-32 33 CURVE SMOOTH",
"-32 23 OFFCURVE",
"-25 0 OFFCURVE",
"-6 0 CURVE SMOOTH",
"512 0 LINE SMOOTH",
"535 0 OFFCURVE",
"555 33 OFFCURVE",
"555 58 CURVE SMOOTH",
"555 75 OFFCURVE",
"545 86 OFFCURVE",
"524 88 CURVE SMOOTH",
"467 93 OFFCURVE",
"320 98 OFFCURVE",
"320 173 CURVE",
"470 1180 LINE",
"487 1180 LINE",
"1113 -8 LINE",
"1122 -29 OFFCURVE",
"1130 -47 OFFCURVE",
"1130 -87 CURVE SMOOTH",
"1130 -247 OFFCURVE",
"1042 -347 OFFCURVE",
"891 -347 CURVE",
"787 -138 LINE",
"707 -138 OFFCURVE",
"636 -202 OFFCURVE",
"636 -285 CURVE SMOOTH",
"636 -355 OFFCURVE",
"693 -449 OFFCURVE",
"848 -449 CURVE SMOOTH",
"1215 -449 OFFCURVE",
"1338 -270 OFFCURVE",
"1399 113 CURVE SMOOTH",
"1564 1234 LINE SMOOTH",
"1577 1321 OFFCURVE",
"1714 1324 OFFCURVE",
"1775 1331 CURVE SMOOTH",
"1802 1334 OFFCURVE",
"1816 1351 OFFCURVE",
"1816 1378 CURVE SMOOTH",
"1816 1395 OFFCURVE",
"1810 1419 OFFCURVE",
"1791 1419 CURVE SMOOTH"
);
}
);
width = 1699;
}
);
unicode = 014A;
},
{
color = 10;
glyphname = O;
lastChange = "2018-07-22 14:27:13 +0000";
layers = (
{
anchors = (
{
name = bottom;
position = "{719, 0}";
},
{
name = center;
position = "{813, 710}";
},
{
name = ogonek;
position = "{1313, 10}";
},
{
name = top;
position = "{849, 1419}";
},
{
name = topleft;
position = "{185, 1419}";
},
{
name = topright;
position = "{1641, 1419}";
}
);
layerId = "D92FDD0B-F694-41DD-AE46-0E4F694F0F38";
paths = (
{
closed = 1;
nodes = (
"1147 -29 OFFCURVE",
"1434 373 OFFCURVE",
"1434 812 CURVE SMOOTH",
"1434 1189 OFFCURVE",
"1222 1449 OFFCURVE",
"849 1449 CURVE SMOOTH",
"422 1449 OFFCURVE",
"127 1061 OFFCURVE",
"127 621 CURVE SMOOTH",
"127 243 OFFCURVE",
"347 -29 OFFCURVE",
"721 -29 CURVE SMOOTH"
);
},
{
closed = 1;
nodes = (
"448 65 OFFCURVE",
"369 257 OFFCURVE",
"369 570 CURVE SMOOTH",
"369 956 OFFCURVE",
"480 1356 OFFCURVE",
"841 1356 CURVE SMOOTH",
"1116 1356 OFFCURVE",
"1188 1167 OFFCURVE",
"1188 851 CURVE SMOOTH",
"1188 467 OFFCURVE",
"1081 65 OFFCURVE",
"723 65 CURVE SMOOTH"
);
}
);
width = 1496;
},
{
anchors = (
{
name = bottom;
position = "{780, 0}";
},
{
name = center;
position = "{900, 710}";
},
{
name = ogonek;
position = "{1473, 10}";
},
{
name = top;
position = "{971, 1419}";
},
{
name = topleft;
position = "{180, 1419}";
},
{
name = topright;
position = "{1819, 1419}";
}
);
layerId = "BDB4B313-38B1-4B24-B843-560B185382BD";
paths = (
{
closed = 1;
nodes = (
"1314 -29 OFFCURVE",
"1634 390 OFFCURVE",
"1634 838 CURVE SMOOTH",
"1634 1182 OFFCURVE",
"1426 1449 OFFCURVE",
"960 1449 CURVE SMOOTH",
"426 1449 OFFCURVE",
"112 1045 OFFCURVE",
"112 596 CURVE SMOOTH",
"112 249 OFFCURVE",
"316 -29 OFFCURVE",
"768 -29 CURVE SMOOTH"
);
},
{
closed = 1;
nodes = (
"558 65 OFFCURVE",
"480 231 OFFCURVE",
"480 499 CURVE SMOOTH",
"480 905 OFFCURVE",
"579 1356 OFFCURVE",
"962 1356 CURVE SMOOTH",
"1191 1356 OFFCURVE",
"1266 1194 OFFCURVE",
"1266 925 CURVE SMOOTH",
"1266 520 OFFCURVE",
"1167 65 OFFCURVE",
"794 65 CURVE SMOOTH"
);
}
);
width = 1679;
}
);
unicode = 004F;
},
{
color = 10;
glyphname = Ohorn;
lastChange = "2018-07-22 14:55:49 +0000";
layers = (
{
components = (
{
name = O;
}
);
layerId = "D92FDD0B-F694-41DD-AE46-0E4F694F0F38";
paths = (
{
closed = 1;
nodes = (
"1302 1322 OFFCURVE",
"1534 1398 OFFCURVE",
"1534 1633 CURVE SMOOTH",
"1534 1648 OFFCURVE",
"1532 1663 OFFCURVE",
"1529 1680 CURVE",
"1356 1680 LINE",
"1357 1671 OFFCURVE",
"1357 1659 OFFCURVE",
"1357 1644 CURVE SMOOTH",
"1357 1499 OFFCURVE",
"1243 1401 OFFCURVE",
"1082 1398 CURVE",
"1193 1322 LINE"
);
}
);
width = 1496;
},
{
components = (
{
name = O;
}
);
layerId = "BDB4B313-38B1-4B24-B843-560B185382BD";
paths = (
{
closed = 1;
nodes = (
"1527 1312 OFFCURVE",
"1730 1421 OFFCURVE",
"1730 1627 CURVE SMOOTH",
"1730 1645 OFFCURVE",
"1727 1717 OFFCURVE",
"1724 1738 CURVE",
"1508 1738 LINE",
"1510 1727 OFFCURVE",
"1510 1712 OFFCURVE",
"1510 1694 CURVE SMOOTH",
"1510 1596 OFFCURVE",
"1456 1403 OFFCURVE",
"1203 1403 CURVE",
"1413 1312 LINE"
);
}
);
width = 1679;
}
);
unicode = 01A0;
},
{
color = 10;
glyphname = Oslash;
lastChange = "2018-07-22 15:35:51 +0000";
layers = (
{
components = (
{
name = O;
}
);
layerId = "D92FDD0B-F694-41DD-AE46-0E4F694F0F38";
paths = (
{
closed = 1;
nodes = (
"1215 1536 OFFCURVE",
"1178 1577 OFFCURVE",
"1150 1577 CURVE SMOOTH",
"1142 1577 OFFCURVE",
"1135 1575 OFFCURVE",
"1130 1568 CURVE",
"1049 1385 LINE",
"1021 1340 LINE",
"497 103 LINE",
"458 54 LINE",
"383 -107 LINE",
"380 -131 OFFCURVE",
"414 -164 OFFCURVE",
"448 -164 CURVE SMOOTH",
"455 -164 OFFCURVE",
"461 -162 OFFCURVE",
"465 -157 CURVE",
"546 14 LINE",
"580 56 LINE",
"1104 1291 LINE",
"1131 1334 LINE",
"1213 1518 LINE"
);
}
);
width = 1496;
},
{
components = (
{
name = O;
}
);
layerId = "BDB4B313-38B1-4B24-B843-560B185382BD";
paths = (
{
closed = 1;
nodes = (
"1407 1536 OFFCURVE",
"1370 1577 OFFCURVE",
"1342 1577 CURVE SMOOTH",
"1334 1577 OFFCURVE",
"1327 1575 OFFCURVE",
"1322 1568 CURVE",
"1210 1385 LINE",
"1167 1340 LINE",
"514 123 LINE",
"475 74 LINE",
"358 -107 LINE",
"355 -131 OFFCURVE",
"389 -164 OFFCURVE",
"423 -164 CURVE SMOOTH",
"430 -164 OFFCURVE",
"436 -162 OFFCURVE",
"440 -157 CURVE",
"563 34 LINE",
"597 76 LINE",
"1250 1291 LINE",
"1292 1334 LINE",
"1405 1518 LINE"
);
}
);
width = 1679;
}
);
unicode = 00D8;
},
{
color = 10;
glyphname = OE;
lastChange = "2018-07-18 20:25:31 +0000";
layers = (
{
layerId = "D92FDD0B-F694-41DD-AE46-0E4F694F0F38";
paths = (
{
closed = 1;
nodes = (
"853 -29 OFFCURVE",
"900 0 OFFCURVE",
"1061 0 CURVE SMOOTH",
"1900 0 LINE",
"1995 372 LINE",
"1995 395 OFFCURVE",
"1980 406 OFFCURVE",
"1955 406 CURVE SMOOTH",
"1934 406 OFFCURVE",
"1913 398 OFFCURVE",
"1905 373 CURVE",
"1865 263 OFFCURVE",
"1757 97 OFFCURVE",
"1623 97 CURVE SMOOTH",
"1262 97 LINE SMOOTH",
"1223 97 OFFCURVE",
"1182 120 OFFCURVE",
"1182 177 CURVE",
"1252 687 LINE",
"1524 687 LINE SMOOTH",
"1580 687 OFFCURVE",
"1596 543 OFFCURVE",
"1596 501 CURVE SMOOTH",
"1596 476 OFFCURVE",
"1625 470 OFFCURVE",
"1646 470 CURVE SMOOTH",
"1661 470 OFFCURVE",
"1690 481 OFFCURVE",
"1693 504 CURVE SMOOTH",
"1743 948 LINE SMOOTH",
"1746 971 OFFCURVE",
"1720 981 OFFCURVE",
"1704 981 CURVE SMOOTH",
"1682 981 OFFCURVE",
"1655 974 OFFCURVE",
"1650 948 CURVE SMOOTH",
"1642 908 OFFCURVE",
"1584 773 OFFCURVE",
"1539 773 CURVE SMOOTH",
"1264 773 LINE",
"1342 1331 LINE",
"1731 1332 LINE SMOOTH",
"1869 1332 OFFCURVE",
"1900 1143 OFFCURVE",
"1900 1094 CURVE",
"1901 1068 OFFCURVE",
"1923 1062 OFFCURVE",
"1944 1062 CURVE SMOOTH",
"1959 1062 OFFCURVE",
"1983 1072 OFFCURVE",
"1986 1095 CURVE",
"2000 1418 LINE",
"1153 1419 LINE SMOOTH",
"1089 1419 OFFCURVE",
"1051 1449 OFFCURVE",
"894 1449 CURVE SMOOTH",
"445 1449 OFFCURVE",
"124 1056 OFFCURVE",
"124 591 CURVE SMOOTH",
"124 240 OFFCURVE",
"320 -29 OFFCURVE",
"683 -29 CURVE SMOOTH"
);
},
{
closed = 1;
nodes = (
"447 65 OFFCURVE",
"358 222 OFFCURVE",
"358 488 CURVE SMOOTH",
"358 956 OFFCURVE",
"490 1360 OFFCURVE",
"874 1360 CURVE SMOOTH",
"1039 1360 OFFCURVE",
"1103 1313 OFFCURVE",
"1127 1275 CURVE",
"967 141 LINE",
"919 78 OFFCURVE",
"835 65 OFFCURVE",
"699 65 CURVE SMOOTH"
);
}
);
width = 2044;
},
{
layerId = "BDB4B313-38B1-4B24-B843-560B185382BD";
paths = (
{
closed = 1;
nodes = (
"874 -29 OFFCURVE",
"962 0 OFFCURVE",
"1043 0 CURVE SMOOTH",
"2158 1 LINE",
"2231 372 LINE SMOOTH",
"2236 395 OFFCURVE",
"2209 406 OFFCURVE",
"2184 406 CURVE SMOOTH",
"2163 406 OFFCURVE",
"2134 398 OFFCURVE",
"2124 373 CURVE SMOOTH",
"2108 332 OFFCURVE",
"1996 101 OFFCURVE",
"1862 101 CURVE SMOOTH",
"1487 101 LINE SMOOTH",
"1446 101 OFFCURVE",
"1393 114 OFFCURVE",
"1401 171 CURVE",
"1481 682 LINE",
"1746 682 LINE SMOOTH",
"1803 682 OFFCURVE",
"1819 546 OFFCURVE",
"1817 503 CURVE SMOOTH",
"1816 477 OFFCURVE",
"1852 470 OFFCURVE",
"1883 470 CURVE SMOOTH",
"1898 470 OFFCURVE",
"1926 481 OFFCURVE",
"1930 504 CURVE SMOOTH",
"2000 947 LINE SMOOTH",
"2004 970 OFFCURVE",
"1978 981 OFFCURVE",
"1963 981 CURVE SMOOTH",
"1934 981 OFFCURVE",
"1895 974 OFFCURVE",
"1887 948 CURVE SMOOTH",
"1875 908 OFFCURVE",
"1817 785 OFFCURVE",
"1764 778 CURVE",
"1496 778 LINE",
"1584 1332 LINE",
"1993 1332 LINE SMOOTH",
"2117 1332 OFFCURVE",
"2156 1152 OFFCURVE",
"2150 1103 CURVE SMOOTH",
"2147 1077 OFFCURVE",
"2183 1070 OFFCURVE",
"2204 1070 CURVE SMOOTH",
"2219 1070 OFFCURVE",
"2249 1081 OFFCURVE",
"2252 1104 CURVE",
"2277 1419 LINE",
"1255 1419 LINE SMOOTH",
"1185 1419 OFFCURVE",
"1148 1449 OFFCURVE",
"979 1449 CURVE SMOOTH",
"440 1449 OFFCURVE",
"108 1045 OFFCURVE",
"108 571 CURVE SMOOTH",
"108 220 OFFCURVE",
"327 -29 OFFCURVE",
"704 -29 CURVE SMOOTH"
);
},
{
closed = 1;
nodes = (
"575 65 OFFCURVE",
"470 255 OFFCURVE",
"470 530 CURVE SMOOTH",
"470 916 OFFCURVE",
"598 1360 OFFCURVE",
"952 1360 CURVE SMOOTH",
"1131 1360 OFFCURVE",
"1194 1313 OFFCURVE",
"1221 1234 CURVE",
"1049 152 LINE SMOOTH",
"1043 116 OFFCURVE",
"971 65 OFFCURVE",
"727 65 CURVE SMOOTH"
);
}
);
width = 2264;
}
);
unicode = 0152;
},
{
color = 10;
glyphname = P;
lastChange = "2018-07-18 15:49:19 +0000";
layers = (
{
anchors = (
{
name = bottom;
position = "{523, 0}";
},
{
name = btm;
position = "{658, -170}";
},
{
name = top;
position = "{701, 1419}";
}
);
layerId = "D92FDD0B-F694-41DD-AE46-0E4F694F0F38";
paths = (
{
closed = 1;
nodes = (
"589 0 LINE SMOOTH",
"612 0 OFFCURVE",
"625 36 OFFCURVE",
"628 51 CURVE",
"630 81 OFFCURVE",
"622 85 OFFCURVE",
"595 88 CURVE",
"519 93 OFFCURVE",
"382 99 OFFCURVE",
"394 185 CURVE SMOOTH",
"445 555 LINE",
"601 555 LINE SMOOTH",
"928 555 OFFCURVE",
"1240 715 OFFCURVE",
"1240 1044 CURVE SMOOTH",
"1240 1278 OFFCURVE",
"1089 1419 OFFCURVE",
"715 1419 CURVE SMOOTH",
"204 1419 LINE SMOOTH",
"179 1419 OFFCURVE",
"162 1382 OFFCURVE",
"162 1353 CURVE SMOOTH",
"162 1336 OFFCURVE",
"171 1333 OFFCURVE",
"193 1331 CURVE SMOOTH",
"250 1326 OFFCURVE",
"335 1321 OFFCURVE",
"335 1247 CURVE",
"184 152 LINE SMOOTH",
"178 108 OFFCURVE",
"96 93 OFFCURVE",
"31 88 CURVE SMOOTH",
"4 86 OFFCURVE",
"-5 72 OFFCURVE",
"-5 51 CURVE",
"-8 36 OFFCURVE",
"1 0 OFFCURVE",
"24 0 CURVE SMOOTH"
);
},
{
closed = 1;
nodes = (
"551 1331 LINE {name = hr00;}",
"674 1331 LINE SMOOTH",
"941 1331 OFFCURVE",
"1013 1218 OFFCURVE",
"1013 1046 CURVE SMOOTH",
"1013 760 OFFCURVE",
"845 635 OFFCURVE",
"606 635 CURVE SMOOTH",
"456 635 LINE"
);
}
);
width = 1249;
},
{
anchors = (
{
name = bottom;
position = "{653, 0}";
},
{
name = btm;
position = "{380, -170}";
},
{
name = top;
position = "{837, 1419}";
}
);
layerId = "BDB4B313-38B1-4B24-B843-560B185382BD";
paths = (
{
closed = 1;
nodes = (
"747 0 LINE SMOOTH",
"770 0 OFFCURVE",
"788 24 OFFCURVE",
"788 46 CURVE SMOOTH",
"788 76 OFFCURVE",
"781 86 OFFCURVE",
"754 88 CURVE SMOOTH",
"628 97 OFFCURVE",
"539 110 OFFCURVE",
"539 173 CURVE",
"600 555 LINE",
"759 555 LINE SMOOTH",
"1189 555 OFFCURVE",
"1442 737 OFFCURVE",
"1442 1069 CURVE SMOOTH",
"1442 1241 OFFCURVE",
"1338 1419 OFFCURVE",
"873 1419 CURVE",
"226 1419 LINE SMOOTH",
"202 1419 OFFCURVE",
"182 1381 OFFCURVE",
"182 1353 CURVE SMOOTH",
"182 1336 OFFCURVE",
"191 1333 OFFCURVE",
"213 1331 CURVE SMOOTH",
"269 1326 OFFCURVE",
"351 1321 OFFCURVE",
"351 1251 CURVE",
"199 152 LINE",
"192 108 OFFCURVE",
"108 93 OFFCURVE",
"43 88 CURVE SMOOTH",
"16 86 OFFCURVE",
"5 72 OFFCURVE",
"5 51 CURVE SMOOTH",
"5 32 OFFCURVE",
"12 0 OFFCURVE",
"35 0 CURVE SMOOTH"
);
},
{
closed = 1;
nodes = (
"702 1331 LINE",
"764 1331 LINE SMOOTH",
"1011 1331 OFFCURVE",
"1081 1229 OFFCURVE",
"1081 1071 CURVE SMOOTH",
"1081 777 OFFCURVE",
"949 641 OFFCURVE",
"708 641 CURVE SMOOTH",
"612 641 LINE"
);
}
);
width = 1446;
}
);
unicode = 0050;
userData = {
com.typemytype.robofont.mark = (
0.6,
0.609,
1,
1
);
};
},
{
color = 10;
glyphname = Thorn;
lastChange = "2018-07-18 20:29:11 +0000";
layers = (
{
anchors = (
{
name = btm;
position = "{633, -170}";
},
{
name = top;
position = "{633, 1700}";
}
);
layerId = "D92FDD0B-F694-41DD-AE46-0E4F694F0F38";
paths = (
{
closed = 1;
nodes = (
"558 0 LINE SMOOTH",
"581 0 OFFCURVE",
"596 36 OFFCURVE",
"597 51 CURVE",
"600 81 OFFCURVE",
"592 85 OFFCURVE",
"565 88 CURVE SMOOTH",
"508 94 OFFCURVE",
"423 98 OFFCURVE",
"423 172 CURVE",
"438 300 LINE",
"601 300 LINE SMOOTH",
"922 300 OFFCURVE",
"1208 465 OFFCURVE",
"1208 781 CURVE SMOOTH",
"1208 1072 OFFCURVE",
"1031 1164 OFFCURVE",
"715 1164 CURVE SMOOTH",
"572 1164 LINE",
"584 1267 LINE",
"593 1311 OFFCURVE",
"674 1326 OFFCURVE",
"739 1331 CURVE",
"764 1334 OFFCURVE",
"776 1347 OFFCURVE",
"777 1368 CURVE SMOOTH",
"778 1383 OFFCURVE",
"774 1419 OFFCURVE",
"751 1419 CURVE SMOOTH",
"246 1419 LINE SMOOTH",
"224 1419 OFFCURVE",
"203 1388 OFFCURVE",
"203 1353 CURVE SMOOTH",
"203 1336 OFFCURVE",
"212 1333 OFFCURVE",
"235 1331 CURVE SMOOTH",
"302 1325 OFFCURVE",
"387 1312 OFFCURVE",
"375 1234 CURVE SMOOTH",
"213 152 LINE",
"210 108 OFFCURVE",
"126 93 OFFCURVE",
"61 88 CURVE",
"34 85 OFFCURVE",
"26 70 OFFCURVE",
"26 47 CURVE SMOOTH {name = hr00;}",
"26 31 OFFCURVE",
"32 0 OFFCURVE",
"53 0 CURVE SMOOTH"
);
},
{
closed = 1;
nodes = (
"904 1076 OFFCURVE",
"982 989 OFFCURVE",
"982 764 CURVE SMOOTH",
"982 506 OFFCURVE",
"813 386 OFFCURVE",
"585 386 CURVE SMOOTH",
"449 386 LINE",
"563 1076 LINE",
"698 1076 LINE SMOOTH"
);
}
);
width = 1258;
},
{
anchors = (
{
name = btm;
position = "{592, -170}";
},
{
name = top;
position = "{592, 1700}";
}
);
layerId = "BDB4B313-38B1-4B24-B843-560B185382BD";
paths = (
{
closed = 1;
nodes = (
"753 0 LINE SMOOTH",
"776 0 OFFCURVE",
"792 24 OFFCURVE",
"792 51 CURVE SMOOTH",
"792 71 OFFCURVE",
"790 85 OFFCURVE",
"763 88 CURVE SMOOTH",
"708 94 OFFCURVE",
"556 98 OFFCURVE",
"556 165 CURVE",
"575 300 LINE",
"664 300 LINE SMOOTH",
"1082 300 OFFCURVE",
"1413 472 OFFCURVE",
"1413 797 CURVE SMOOTH",
"1413 1035 OFFCURVE",
"1281 1164 OFFCURVE",
"803 1164 CURVE SMOOTH",
"704 1164 LINE",
"719 1267 LINE",
"727 1311 OFFCURVE",
"809 1326 OFFCURVE",
"875 1331 CURVE",
"899 1334 OFFCURVE",
"914 1347 OFFCURVE",
"914 1378 CURVE SMOOTH",
"914 1395 OFFCURVE",
"907 1419 OFFCURVE",
"888 1419 CURVE SMOOTH",
"263 1419 LINE SMOOTH",
"240 1419 OFFCURVE",
"220 1394 OFFCURVE",
"220 1377 CURVE SMOOTH",
"220 1347 OFFCURVE",
"223 1334 OFFCURVE",
"251 1331 CURVE SMOOTH",
"310 1325 OFFCURVE",
"402 1321 OFFCURVE",
"392 1255 CURVE",
"225 152 LINE",
"216 108 OFFCURVE",
"147 93 OFFCURVE",
"78 88 CURVE",
"51 85 OFFCURVE",
"38 72 OFFCURVE",
"38 51 CURVE SMOOTH",
"38 25 OFFCURVE",
"44 0 OFFCURVE",
"67 0 CURVE SMOOTH"
);
},
{
closed = 1;
nodes = (
"982 1076 OFFCURVE",
"1046 962 OFFCURVE",
"1046 786 CURVE SMOOTH",
"1046 507 OFFCURVE",
"913 386 OFFCURVE",
"719 386 CURVE SMOOTH",
"588 386 LINE",
"691 1076 LINE",
"779 1076 LINE SMOOTH"
);
}
);
width = 1450;
}
);
unicode = 00DE;
},
{
color = 10;
glyphname = Q;
lastChange = "2018-07-19 20:58:33 +0000";
layers = (
{
anchors = (
{
name = btm;
position = "{770, -170}";
},
{
name = top;
position = "{770, 1700}";
}
);
background = {
paths = (
{
closed = 1;
nodes = (
"1276 -419 OFFCURVE",
"1330 -393 OFFCURVE",
"1330 -393 CURVE",
"1330 -393 OFFCURVE",
"1330 -323 OFFCURVE",
"1330 -323 CURVE",
"958 -330 OFFCURVE",
"873 -76 OFFCURVE",
"870 29 CURVE",
"870 29 OFFCURVE",
"638 0 OFFCURVE",
"638 0 CURVE {name = hr00;}",
"698 -369 OFFCURVE",
"945 -419 OFFCURVE",
"1167 -419 CURVE SMOOTH"
);
}
);
};
components = (
{
name = O;
}
);
layerId = "D92FDD0B-F694-41DD-AE46-0E4F694F0F38";
paths = (
{
closed = 1;
nodes = (
"1275 -419 OFFCURVE",
"1330 -383 OFFCURVE",
"1330 -383 CURVE",
"1330 -323 LINE",
"992 -323 OFFCURVE",
"884 -122 OFFCURVE",
"872 12 CURVE",
"814 29 LINE",
"814 29 OFFCURVE",
"660 13 OFFCURVE",
"660 13 CURVE",
"658 -4 OFFCURVE",
"656 -21 OFFCURVE",
"656 -37 CURVE SMOOTH",
"656 -263 OFFCURVE",
"877 -419 OFFCURVE",
"1099 -419 CURVE SMOOTH"
);
}
);
width = 1496;
},
{
anchors = (
{
name = btm;
position = "{770, -170}";
},
{
name = top;
position = "{770, 1700}";
}
);
components = (
{
name = O;
transform = "{1, 0, 0, 1, 2, 0}";
}
);
layerId = "BDB4B313-38B1-4B24-B843-560B185382BD";
paths = (
{
closed = 1;
nodes = (
"1302 -419 OFFCURVE",
"1389 -383 OFFCURVE",
"1389 -383 CURVE",
"1389 -313 LINE",
"1070 -319 OFFCURVE",
"944 -136 OFFCURVE",
"944 -9 CURVE",
"814 29 LINE",
"814 29 OFFCURVE",
"617 0 OFFCURVE",
"617 0 CURVE",
"615 -17 OFFCURVE",
"613 -34 OFFCURVE",
"613 -50 CURVE SMOOTH",
"613 -276 OFFCURVE",
"838 -419 OFFCURVE",
"1126 -419 CURVE SMOOTH"
);
}
);
width = 1679;
}
);
unicode = 0051;
userData = {
com.typemytype.robofont.mark = (
0.6,
0.609,
1,
1
);
};
},
{
color = 10;
glyphname = R;
lastChange = "2018-07-18 16:02:59 +0000";
layers = (
{
anchors = (
{
name = bottom;
position = "{733, 0}";
},
{
name = top;
position = "{804, 1419}";
}
);
layerId = "D92FDD0B-F694-41DD-AE46-0E4F694F0F38";
paths = (
{
closed = 1;
nodes = (
"610 0 LINE SMOOTH",
"647 0 OFFCURVE",
"646 60 OFFCURVE",
"647 66 CURVE",
"647 82 OFFCURVE",
"637 86 OFFCURVE",
"616 88 CURVE SMOOTH",
"557 94 OFFCURVE",
"464 97 OFFCURVE",
"464 172 CURVE",
"519 625 LINE",
"720 625 LINE SMOOTH",
"920 625 OFFCURVE",
"877 245 OFFCURVE",
"996 78 CURVE SMOOTH",
"1030 30 OFFCURVE",
"1076 0 OFFCURVE",
"1143 0 CURVE SMOOTH",
"1355 0 LINE SMOOTH",
"1394 0 OFFCURVE",
"1391 63 OFFCURVE",
"1391 63 CURVE",
"1391 80 OFFCURVE",
"1383 88 OFFCURVE",
"1361 89 CURVE SMOOTH",
"1278 93 OFFCURVE",
"1212 125 OFFCURVE",
"1175 209 CURVE SMOOTH",
"1101 378 OFFCURVE",
"1061 578 OFFCURVE",
"917 636 CURVE",
"1107 659 OFFCURVE",
"1307 838 OFFCURVE",
"1307 1057 CURVE SMOOTH",
"1307 1281 OFFCURVE",
"1185 1419 OFFCURVE",
"783 1419 CURVE SMOOTH",
"259 1419 LINE SMOOTH",
"226 1419 OFFCURVE",
"217 1383 OFFCURVE",
"217 1352 CURVE SMOOTH",
"217 1309 OFFCURVE",
"403 1348 OFFCURVE",
"391 1251 CURVE SMOOTH",
"255 152 LINE SMOOTH",
"249 107 OFFCURVE",
"177 94 OFFCURVE",
"112 88 CURVE SMOOTH",
"90 86 OFFCURVE",
"79 74 OFFCURVE",
"79 42 CURVE SMOOTH",
"79 25 OFFCURVE",
"86 0 OFFCURVE",
"105 0 CURVE SMOOTH"
);
},
{
closed = 1;
nodes = (
"607 1332 LINE {name = hr00;}",
"733 1332 LINE SMOOTH",
"1001 1332 OFFCURVE",
"1092 1265 OFFCURVE",
"1092 1054 CURVE SMOOTH",
"1092 833 OFFCURVE",
"959 701 OFFCURVE",
"717 701 CURVE SMOOTH",
"529 701 LINE"
);
}
);
width = 1437;
},
{
anchors = (
{
name = bottom;
position = "{818, 0}";
},
{
name = top;
position = "{891, 1421}";
}
);
layerId = "BDB4B313-38B1-4B24-B843-560B185382BD";
paths = (
{
closed = 1;
nodes = (
"706 0 LINE SMOOTH",
"743 0 OFFCURVE",
"743 39 OFFCURVE",
"743 56 CURVE SMOOTH",
"743 72 OFFCURVE",
"733 86 OFFCURVE",
"712 88 CURVE SMOOTH",
"653 93 OFFCURVE",
"560 97 OFFCURVE",
"560 172 CURVE",
"616 625 LINE",
"818 625 LINE",
"963 560 OFFCURVE",
"1000 226 OFFCURVE",
"1072 80 CURVE SMOOTH",
"1100 23 OFFCURVE",
"1146 0 OFFCURVE",
"1219 0 CURVE SMOOTH",
"1553 0 LINE SMOOTH",
"1575 0 OFFCURVE",
"1587 17 OFFCURVE",
"1587 32 CURVE SMOOTH",
"1587 62 OFFCURVE",
"1581 86 OFFCURVE",
"1553 89 CURVE SMOOTH",
"1468 98 OFFCURVE",
"1420 167 OFFCURVE",
"1366 253 CURVE SMOOTH",
"1306 349 OFFCURVE",
"1270 593 OFFCURVE",
"1115 651 CURVE",
"1343 703 OFFCURVE",
"1493 863 OFFCURVE",
"1493 1057 CURVE SMOOTH",
"1493 1271 OFFCURVE",
"1356 1419 OFFCURVE",
"829 1419 CURVE SMOOTH",
"225 1419 LINE SMOOTH",
"194 1419 OFFCURVE",
"183 1391 OFFCURVE",
"183 1358 CURVE SMOOTH",
"183 1305 OFFCURVE",
"368 1348 OFFCURVE",
"357 1251 CURVE SMOOTH",
"221 152 LINE SMOOTH",
"216 107 OFFCURVE",
"143 94 OFFCURVE",
"78 88 CURVE SMOOTH",
"52 86 OFFCURVE",
"45 63 OFFCURVE",
"45 42 CURVE SMOOTH",
"45 25 OFFCURVE",
"52 0 OFFCURVE",
"71 0 CURVE SMOOTH"
);
},
{
closed = 1;
nodes = (
"703 1334 LINE",
"809 1334 LINE SMOOTH",
"1056 1334 OFFCURVE",
"1146 1265 OFFCURVE",
"1146 1054 CURVE SMOOTH",
"1146 833 OFFCURVE",
"1037 701 OFFCURVE",
"773 701 CURVE SMOOTH",
"625 701 LINE"
);
}
);
width = 1633;
}
);
unicode = 0052;
userData = {
com.typemytype.robofont.mark = (
0.6,
0.609,
1,
1
);
};
},
{
color = 10;
glyphname = S;
lastChange = "2018-07-18 16:04:05 +0000";
layers = (
{
anchors = (
{
name = bottom;
position = "{535, 0}";
},
{
name = top;
position = "{679, 1419}";
}
);
layerId = "D92FDD0B-F694-41DD-AE46-0E4F694F0F38";
paths = (
{
closed = 1;
nodes = (
"58 48 OFFCURVE",
"76 20 OFFCURVE",
"103 20 CURVE SMOOTH",
"123 20 OFFCURVE",
"155 32 OFFCURVE",
"176 61 CURVE SMOOTH",
"187 76 OFFCURVE",
"202 83 OFFCURVE",
"209 78 CURVE SMOOTH",
"268 36 OFFCURVE",
"380 -30 OFFCURVE",
"562 -30 CURVE SMOOTH",
"845 -30 OFFCURVE",
"1032 123 OFFCURVE",
"1032 371 CURVE SMOOTH",
"1032 606 OFFCURVE",
"850 714 OFFCURVE",
"692 816 CURVE SMOOTH",
"561 901 OFFCURVE",
"425 993 OFFCURVE",
"425 1145 CURVE SMOOTH",
"425 1302 OFFCURVE",
"546 1366 OFFCURVE",
"684 1366 CURVE SMOOTH",
"825 1366 OFFCURVE",
"954 1265 OFFCURVE",
"970 1050 CURVE",
"970 1038 OFFCURVE",
"993 1028 OFFCURVE",
"1014 1028 CURVE SMOOTH",
"1042 1028 OFFCURVE",
"1064 1032 OFFCURVE",
"1066 1087 CURVE",
"1063 1208 OFFCURVE",
"1085 1360 OFFCURVE",
"1082 1398 CURVE",
"1082 1416 OFFCURVE",
"1059 1432 OFFCURVE",
"1034 1432 CURVE SMOOTH",
"996 1432 OFFCURVE",
"986 1388 OFFCURVE",
"945 1388 CURVE SMOOTH",
"938 1388 OFFCURVE",
"928 1386 OFFCURVE",
"920 1391 CURVE",
"866 1417 OFFCURVE",
"779 1449 OFFCURVE",
"678 1449 CURVE SMOOTH",
"400 1449 OFFCURVE",
"232 1295 OFFCURVE",
"232 1092 CURVE SMOOTH",
"232 863 OFFCURVE",
"364 774 OFFCURVE",
"547 655 CURVE SMOOTH",
"687 564 OFFCURVE",
"830 462 OFFCURVE",
"830 301 CURVE SMOOTH",
"830 127 OFFCURVE",
"715 54 OFFCURVE",
"557 54 CURVE SMOOTH",
"427 54 OFFCURVE",
"298 114 OFFCURVE",
"247 257 CURVE",
"205 371 OFFCURVE",
"208 444 OFFCURVE",
"204 478 CURVE",
"204 505 OFFCURVE",
"176 520 OFFCURVE",
"153 520 CURVE SMOOTH",
"126 520 OFFCURVE",
"107 513 OFFCURVE",
"106 471 CURVE",
"106 391 OFFCURVE",
"89 214 OFFCURVE",
"61 72 CURVE {name = hr00;}"
);
}
);
width = 1149;
},
{
anchors = (
{
name = bottom;
position = "{599, 0}";
},
{
name = top;
position = "{790, 1419}";
}
);
layerId = "BDB4B313-38B1-4B24-B843-560B185382BD";
paths = (
{
closed = 1;
nodes = (
"42 48 OFFCURVE",
"69 20 OFFCURVE",
"97 20 CURVE SMOOTH",
"117 20 OFFCURVE",
"149 32 OFFCURVE",
"172 61 CURVE SMOOTH",
"184 76 OFFCURVE",
"198 83 OFFCURVE",
"205 78 CURVE SMOOTH",
"263 37 OFFCURVE",
"439 -30 OFFCURVE",
"605 -30 CURVE SMOOTH",
"1003 -30 OFFCURVE",
"1181 194 OFFCURVE",
"1181 400 CURVE SMOOTH",
"1181 619 OFFCURVE",
"1011 753 OFFCURVE",
"839 858 CURVE SMOOTH",
"685 952 OFFCURVE",
"544 1034 OFFCURVE",
"544 1176 CURVE SMOOTH",
"544 1308 OFFCURVE",
"641 1370 OFFCURVE",
"800 1370 CURVE SMOOTH",
"956 1370 OFFCURVE",
"1068 1295 OFFCURVE",
"1105 1059 CURVE SMOOTH",
"1108 1040 OFFCURVE",
"1144 1028 OFFCURVE",
"1165 1028 CURVE SMOOTH",
"1193 1028 OFFCURVE",
"1217 1032 OFFCURVE",
"1219 1087 CURVE SMOOTH",
"1223 1208 OFFCURVE",
"1239 1330 OFFCURVE",
"1247 1404 CURVE SMOOTH",
"1249 1422 OFFCURVE",
"1220 1432 OFFCURVE",
"1189 1432 CURVE SMOOTH",
"1151 1432 OFFCURVE",
"1152 1383 OFFCURVE",
"1111 1383 CURVE SMOOTH",
"1104 1383 OFFCURVE",
"1085 1386 OFFCURVE",
"1075 1391 CURVE SMOOTH",
"1046 1405 OFFCURVE",
"926 1449 OFFCURVE",
"782 1449 CURVE SMOOTH",
"448 1449 OFFCURVE",
"238 1291 OFFCURVE",
"238 1065 CURVE SMOOTH",
"238 860 OFFCURVE",
"391 720 OFFCURVE",
"547 614 CURVE SMOOTH",
"712 502 OFFCURVE",
"874 418 OFFCURVE",
"874 276 CURVE SMOOTH",
"874 119 OFFCURVE",
"772 59 OFFCURVE",
"592 59 CURVE SMOOTH",
"446 59 OFFCURVE",
"305 126 OFFCURVE",
"258 277 CURVE SMOOTH",
"227 376 OFFCURVE",
"226 444 OFFCURVE",
"224 478 CURVE",
"224 505 OFFCURVE",
"188 520 OFFCURVE",
"165 520 CURVE SMOOTH",
"138 520 OFFCURVE",
"107 513 OFFCURVE",
"106 471 CURVE",
"102 391 OFFCURVE",
"77 215 OFFCURVE",
"47 72 CURVE SMOOTH"
);
}
);
width = 1337;
}
);
unicode = 0053;
},
{
color = 10;
glyphname = Germandbls;
lastChange = "2018-07-18 16:08:18 +0000";
layers = (
{
layerId = "D92FDD0B-F694-41DD-AE46-0E4F694F0F38";
paths = (
{
closed = 1;
nodes = (
"1119 -23 OFFCURVE",
"1326 169 OFFCURVE",
"1326 460 CURVE SMOOTH",
"1326 697 OFFCURVE",
"1104.995 810 OFFCURVE",
"975 810 CURVE",
"1377 1419 LINE",
"879 1417 LINE SMOOTH",
"517 1416 OFFCURVE",
"289 1225 OFFCURVE",
"241 903 CURVE SMOOTH",
"135 185 LINE SMOOTH",
"122 99 OFFCURVE",
"51 92 OFFCURVE",
"-11 88 CURVE SMOOTH",
"-39 86 OFFCURVE",
"-52 81 OFFCURVE",
"-52 51 CURVE SMOOTH",
"-52 36 OFFCURVE",
"-49 0 OFFCURVE",
"-26 0 CURVE SMOOTH",
"316 0 LINE",
"449 895 LINE",
"495 1207 OFFCURVE",
"661 1323 OFFCURVE",
"869 1323 CURVE SMOOTH",
"1087 1323 LINE",
"750 823 OFFCURVE",
"743 818 OFFCURVE",
"740 795 CURVE SMOOTH",
"737 769 OFFCURVE",
"748 726 OFFCURVE",
"800 726 CURVE SMOOTH",
"1008 726 OFFCURVE",
"1097 561 OFFCURVE",
"1097 419 CURVE SMOOTH",
"1097 227 OFFCURVE",
"995 72 OFFCURVE",
"808 72 CURVE SMOOTH",
"693 72 OFFCURVE",
"676 139 OFFCURVE",
"676 139 CURVE",
"737 315 LINE",
"735 357 OFFCURVE",
"689 383 OFFCURVE",
"643 383 CURVE SMOOTH",
"564 383 OFFCURVE",
"513 303 OFFCURVE",
"513 218 CURVE SMOOTH",
"513 77 OFFCURVE",
"643 -23 OFFCURVE",
"827 -23 CURVE SMOOTH"
);
}
);
width = 1417;
},
{
layerId = "BDB4B313-38B1-4B24-B843-560B185382BD";
paths = (
{
closed = 1;
nodes = (
"1262 -19 OFFCURVE",
"1539 101 OFFCURVE",
"1539 428 CURVE SMOOTH",
"1539 649 OFFCURVE",
"1381 789 OFFCURVE",
"1155 789 CURVE",
"1560 1419 LINE",
"978 1420 LINE SMOOTH",
"547 1421 OFFCURVE",
"289 1225 OFFCURVE",
"241 903 CURVE SMOOTH",
"134 185 LINE SMOOTH",
"121 99 OFFCURVE",
"60 94 OFFCURVE",
"-2 88 CURVE SMOOTH",
"-31 85 OFFCURVE",
"-44 76 OFFCURVE",
"-44 51 CURVE SMOOTH",
"-44 36 OFFCURVE",
"-40 0 OFFCURVE",
"-17 0 CURVE SMOOTH",
"454 0 LINE",
"587 895 LINE",
"633 1207 OFFCURVE",
"744 1326 OFFCURVE",
"968 1326 CURVE SMOOTH",
"1170 1326 LINE",
"916 935 OFFCURVE",
"817 801 OFFCURVE",
"817 759 CURVE SMOOTH",
"817 730 OFFCURVE",
"831 693 OFFCURVE",
"877 693 CURVE SMOOTH",
"1121 693 OFFCURVE",
"1197 573 OFFCURVE",
"1197 397 CURVE SMOOTH",
"1197 224 OFFCURVE",
"1081 76 OFFCURVE",
"922 76 CURVE SMOOTH",
"808 76 OFFCURVE",
"764 143 OFFCURVE",
"764 143 CURVE",
"830 347 LINE",
"828 389 OFFCURVE",
"779 397 OFFCURVE",
"733 397 CURVE SMOOTH",
"654 397 OFFCURVE",
"587 313 OFFCURVE",
"587 227 CURVE SMOOTH",
"587 81 OFFCURVE",
"790 -19 OFFCURVE",
"949 -19 CURVE SMOOTH"
);
}
);
width = 1622;
}
);
unicode = 1E9E;
},
{
color = 10;
glyphname = Schwa;
lastChange = "2018-07-22 15:36:09 +0000";
layers = (
{
layerId = "D92FDD0B-F694-41DD-AE46-0E4F694F0F38";
paths = (
{
closed = 1;
nodes = (
"1078 -30 OFFCURVE",
"1403 381 OFFCURVE",
"1403 854 CURVE SMOOTH",
"1403 1291 OFFCURVE",
"1072 1449 OFFCURVE",
"804 1449 CURVE SMOOTH",
"539 1449 OFFCURVE",
"401 1392 OFFCURVE",
"326 1361 CURVE",
"258 1051 LINE",
"257 1048 OFFCURVE",
"257 1045 OFFCURVE",
"257 1042 CURVE SMOOTH",
"257 1024 OFFCURVE",
"274 1011 OFFCURVE",
"288 1011 CURVE",
"315 1010 OFFCURVE",
"332 1013 OFFCURVE",
"340 1039 CURVE",
"412 1206 OFFCURVE",
"554 1353 OFFCURVE",
"787 1353 CURVE SMOOTH",
"919 1353 OFFCURVE",
"1158 1286 OFFCURVE",
"1158 892 CURVE SMOOTH",
"1158 835 OFFCURVE",
"1153 776 OFFCURVE",
"1144 716 CURVE",
"153 716 LINE SMOOTH",
"125 716 OFFCURVE",
"102 543 OFFCURVE",
"102 477 CURVE SMOOTH",
"102 241 OFFCURVE",
"221 -30 OFFCURVE",
"612 -30 CURVE SMOOTH"
);
},
{
closed = 1;
nodes = (
"417 65 OFFCURVE",
"306 224 OFFCURVE",
"306 431 CURVE SMOOTH",
"306 512 OFFCURVE",
"318 558 OFFCURVE",
"340 628 CURVE",
"1127 628 LINE",
"1061 338 OFFCURVE",
"886 65 OFFCURVE",
"610 65 CURVE SMOOTH"
);
}
);
width = 1459;
},
{
layerId = "BDB4B313-38B1-4B24-B843-560B185382BD";
paths = (
{
closed = 1;
nodes = (
"1167 -30 OFFCURVE",
"1578 329 OFFCURVE",
"1578 834 CURVE SMOOTH",
"1578 1286 OFFCURVE",
"1176 1449 OFFCURVE",
"860 1449 CURVE SMOOTH",
"600 1449 OFFCURVE",
"413 1392 OFFCURVE",
"339 1361 CURVE",
"271 1051 LINE",
"265 1028 OFFCURVE",
"304 1011 OFFCURVE",
"321 1011 CURVE SMOOTH",
"325 1011 OFFCURVE",
"328 1010 OFFCURVE",
"334 1010 CURVE SMOOTH",
"360 1010 OFFCURVE",
"403 1017 OFFCURVE",
"411 1039 CURVE",
"482 1207 OFFCURVE",
"604 1353 OFFCURVE",
"848 1353 CURVE SMOOTH",
"974 1353 OFFCURVE",
"1204 1282 OFFCURVE",
"1204 893 CURVE SMOOTH",
"1204 810 OFFCURVE",
"1196 725 OFFCURVE",
"1180 641 CURVE",
"136 641 LINE SMOOTH",
"107 641 OFFCURVE",
"84 505 OFFCURVE",
"84 447 CURVE SMOOTH",
"84 227 OFFCURVE",
"237 -30 OFFCURVE",
"669 -30 CURVE SMOOTH"
);
},
{
closed = 1;
nodes = (
"500 65 OFFCURVE",
"423 204 OFFCURVE",
"423 356 CURVE SMOOTH",
"423 408 OFFCURVE",
"437 504 OFFCURVE",
"458 546 CURVE",
"1160 552 LINE",
"1088 288 OFFCURVE",
"928 65 OFFCURVE",
"666 65 CURVE SMOOTH"
);
}
);
width = 1624;
}
);
leftMetricsKey = O;
rightMetricsKey = O;
unicode = 018F;
},
{
color = 10;
glyphname = T;
lastChange = "2018-07-22 14:57:12 +0000";
layers = (
{
anchors = (
{
name = bottom;
position = "{564, 0}";
},
{
name = center;
position = "{655, 710}";
},
{
name = top;
position = "{785, 1419}";
}
);
layerId = "D92FDD0B-F694-41DD-AE46-0E4F694F0F38";
paths = (
{
closed = 1;
nodes = (
"258 28 OFFCURVE",
"268 0 OFFCURVE",
"288 0 CURVE SMOOTH",
"903 0 LINE SMOOTH",
"926 0 OFFCURVE",
"939 36 OFFCURVE",
"942 51 CURVE SMOOTH",
"948 80 OFFCURVE",
"936 85 OFFCURVE",
"909 88 CURVE",
"829 93 OFFCURVE",
"690 99 OFFCURVE",
"703 185 CURVE SMOOTH",
"871 1331 LINE",
"1088 1331 LINE SMOOTH",
"1202 1331 OFFCURVE",
"1223 1084 OFFCURVE",
"1220 1019 CURVE",
"1218 993 OFFCURVE",
"1234 986 OFFCURVE",
"1255 986 CURVE SMOOTH",
"1270 986 OFFCURVE",
"1314 997 OFFCURVE",
"1318 1020 CURVE",
"1318 1153 OFFCURVE",
"1319 1286 OFFCURVE",
"1319 1419 CURVE",
"202 1419 LINE SMOOTH",
"187 1419 OFFCURVE",
"130 1151 OFFCURVE",
"113 1020 CURVE",
"109 997 OFFCURVE",
"142 986 OFFCURVE",
"157 986 CURVE SMOOTH",
"178 986 OFFCURVE",
"203 993 OFFCURVE",
"211 1019 CURVE",
"224 1084 OFFCURVE",
"311 1331 OFFCURVE",
"425 1331 CURVE SMOOTH",
"664 1331 LINE",
"495 182 LINE SMOOTH",
"484 109 OFFCURVE",
"390 93 OFFCURVE",
"295 88 CURVE",
"265 85 OFFCURVE",
"258 69 OFFCURVE",
"258 45 CURVE SMOOTH {name = hr00;}"
);
}
);
width = 1267;
},
{
anchors = (
{
name = bottom;
position = "{631, 0}";
},
{
name = center;
position = "{731, 710}";
},
{
name = top;
position = "{831, 1419}";
}
);
layerId = "BDB4B313-38B1-4B24-B843-560B185382BD";
paths = (
{
closed = 1;
nodes = (
"208 26 OFFCURVE",
"216 0 OFFCURVE",
"236 0 CURVE SMOOTH",
"1032 0 LINE SMOOTH",
"1055 0 OFFCURVE",
"1077 27 OFFCURVE",
"1077 50 CURVE SMOOTH",
"1077 80 OFFCURVE",
"1069 86 OFFCURVE",
"1042 88 CURVE SMOOTH",
"965 94 OFFCURVE",
"818 99 OFFCURVE",
"818 175 CURVE",
"989 1331 LINE",
"1118 1331 LINE SMOOTH",
"1274 1331 OFFCURVE",
"1291 1176 OFFCURVE",
"1291 937 CURVE",
"1289 911 OFFCURVE",
"1315 904 OFFCURVE",
"1341 904 CURVE SMOOTH",
"1356 904 OFFCURVE",
"1419 915 OFFCURVE",
"1423 938 CURVE",
"1446 1079 OFFCURVE",
"1466 1279 OFFCURVE",
"1466 1419 CURVE",
"199 1419 LINE SMOOTH",
"184 1419 OFFCURVE",
"100 1069 OFFCURVE",
"77 938 CURVE",
"73 915 OFFCURVE",
"160 904 OFFCURVE",
"175 904 CURVE SMOOTH",
"196 904 OFFCURVE",
"224 911 OFFCURVE",
"232 937 CURVE",
"247 1002 OFFCURVE",
"363 1331 OFFCURVE",
"567 1331 CURVE SMOOTH",
"657 1331 LINE",
"486 182 LINE SMOOTH",
"475 108 OFFCURVE",
"342 97 OFFCURVE",
"247 88 CURVE SMOOTH",
"217 85 OFFCURVE",
"208 69 OFFCURVE",
"208 43 CURVE SMOOTH"
);
}
);
width = 1401;
}
);
unicode = 0054;
},
{
color = 10;
glyphname = Tbar;
lastChange = "2018-07-22 14:58:11 +0000";
layers = (
{
components = (
{
name = T;
}
);
layerId = "D92FDD0B-F694-41DD-AE46-0E4F694F0F38";
paths = (
{
closed = 1;
nodes = (
"1078 604 LINE",
"1093 610 OFFCURVE",
"1112 661 OFFCURVE",
"1112 683 CURVE SMOOTH",
"1112 697 OFFCURVE",
"1107 711 OFFCURVE",
"1093 711 CURVE SMOOTH",
"285 711 LINE",
"269 704 OFFCURVE",
"252 676 OFFCURVE",
"252 648 CURVE SMOOTH",
"252 631 OFFCURVE",
"257 604 OFFCURVE",
"270 604 CURVE SMOOTH"
);
}
);
width = 1267;
},
{
components = (
{
name = T;
}
);
layerId = "BDB4B313-38B1-4B24-B843-560B185382BD";
paths = (
{
closed = 1;
nodes = (
"1158 604 LINE",
"1173 610 OFFCURVE",
"1192 661 OFFCURVE",
"1192 683 CURVE SMOOTH",
"1192 697 OFFCURVE",
"1187 711 OFFCURVE",
"1173 711 CURVE SMOOTH",
"285 711 LINE",
"269 704 OFFCURVE",
"252 676 OFFCURVE",
"252 648 CURVE SMOOTH",
"252 631 OFFCURVE",
"257 604 OFFCURVE",
"270 604 CURVE SMOOTH"
);
}
);
width = 1401;
}
);
unicode = 0166;
},
{
color = 10;
glyphname = U;
lastChange = "2018-07-19 00:32:46 +0000";
layers = (
{
anchors = (
{
name = bottom;
position = "{751, 0}";
},
{
name = ogonek;
position = "{1326, 10}";
},
{
name = top;
position = "{940, 1419}";
},
{
name = topright;
position = "{1659, 1419}";
}
);
layerId = "D92FDD0B-F694-41DD-AE46-0E4F694F0F38";
paths = (
{
closed = 1;
nodes = (
"1075 -29 OFFCURVE",
"1268 123 OFFCURVE",
"1311 523 CURVE SMOOTH",
"1410 1230 LINE SMOOTH",
"1417 1294 OFFCURVE",
"1481 1326 OFFCURVE",
"1568 1331 CURVE SMOOTH",
"1593 1332 OFFCURVE",
"1605 1348 OFFCURVE",
"1605 1370 CURVE SMOOTH",
"1605 1387 OFFCURVE",
"1601 1419 OFFCURVE",
"1580 1419 CURVE SMOOTH",
"1184 1419 LINE SMOOTH",
"1159 1419 OFFCURVE",
"1142 1381 OFFCURVE",
"1142 1352 CURVE SMOOTH {name = hr02;}",
"1142 1336 OFFCURVE",
"1151 1331 OFFCURVE",
"1173 1331 CURVE SMOOTH",
"1263 1331 OFFCURVE",
"1319 1290 OFFCURVE",
"1312 1233 CURVE SMOOTH",
"1210 521 LINE SMOOTH",
"1177 257 OFFCURVE",
"1073 65 OFFCURVE",
"764 65 CURVE SMOOTH",
"566 65 OFFCURVE",
"459 195 OFFCURVE",
"459 403 CURVE SMOOTH",
"459 446 OFFCURVE",
"462 492 OFFCURVE",
"467 543 CURVE SMOOTH",
"568 1267 LINE SMOOTH",
"576 1311 OFFCURVE",
"670 1325 OFFCURVE",
"741 1331 CURVE SMOOTH {name = hr03;}",
"766 1333 OFFCURVE",
"779 1348 OFFCURVE",
"779 1369 CURVE SMOOTH",
"779 1390 OFFCURVE",
"773 1419 OFFCURVE",
"753 1419 CURVE SMOOTH",
"228 1419 LINE SMOOTH",
"202 1419 OFFCURVE",
"186 1381 OFFCURVE",
"186 1352 CURVE SMOOTH",
"190 1309 OFFCURVE",
"368 1352 OFFCURVE",
"357 1256 CURVE SMOOTH",
"253 523 LINE SMOOTH {name = hr01;}",
"250 493 OFFCURVE",
"247 456 OFFCURVE",
"247 417 CURVE SMOOTH",
"247 109 OFFCURVE",
"440 -29 OFFCURVE",
"752 -29 CURVE SMOOTH"
);
}
);
width = 1549;
},
{
anchors = (
{
name = bottom;
position = "{846, 0}";
},
{
name = ogonek;
position = "{1468, 10}";
},
{
name = top;
position = "{1069, 1419}";
},
{
name = topright;
position = "{1817, 1419}";
}
);
layerId = "BDB4B313-38B1-4B24-B843-560B185382BD";
paths = (
{
closed = 1;
nodes = (
"1193 -29 OFFCURVE",
"1394 154 OFFCURVE",
"1455 546 CURVE SMOOTH",
"1561 1230 LINE SMOOTH",
"1571 1294 OFFCURVE",
"1639 1327 OFFCURVE",
"1752 1331 CURVE SMOOTH",
"1779 1332 OFFCURVE",
"1791 1350 OFFCURVE",
"1791 1375 CURVE SMOOTH",
"1791 1392 OFFCURVE",
"1786 1419 OFFCURVE",
"1766 1419 CURVE SMOOTH",
"1310 1419 LINE SMOOTH",
"1286 1419 OFFCURVE",
"1266 1381 OFFCURVE",
"1266 1352 CURVE SMOOTH",
"1266 1336 OFFCURVE",
"1275 1332 OFFCURVE",
"1297 1331 CURVE SMOOTH",
"1410 1326 OFFCURVE",
"1463 1315 OFFCURVE",
"1463 1265 CURVE",
"1361 578 LINE",
"1313 331 OFFCURVE",
"1217 65 OFFCURVE",
"885 65 CURVE SMOOTH",
"702 65 OFFCURVE",
"599 144 OFFCURVE",
"590 361 CURVE SMOOTH",
"588 411 OFFCURVE",
"596 491 OFFCURVE",
"605 554 CURVE SMOOTH",
"710 1267 LINE SMOOTH",
"716 1311 OFFCURVE",
"775 1331 OFFCURVE",
"885 1331 CURVE SMOOTH",
"911 1331 OFFCURVE",
"924 1349 OFFCURVE",
"924 1373 CURVE SMOOTH",
"924 1390 OFFCURVE",
"919 1419 OFFCURVE",
"899 1419 CURVE SMOOTH",
"234 1419 LINE SMOOTH",
"200 1419 OFFCURVE",
"190 1381 OFFCURVE",
"190 1352 CURVE SMOOTH",
"190 1311 OFFCURVE",
"359 1346 OFFCURVE",
"359 1268 CURVE",
"258 546 LINE",
"250 504 OFFCURVE",
"247 448 OFFCURVE",
"247 394 CURVE SMOOTH",
"247 116 OFFCURVE",
"463 -29 OFFCURVE",
"846 -29 CURVE SMOOTH"
);
}
);
width = 1707;
}
);
unicode = 0055;
},
{
color = 10;
glyphname = Uhorn;
lastChange = "2018-07-22 14:54:17 +0000";
layers = (
{
components = (
{
name = U;
}
);
layerId = "D92FDD0B-F694-41DD-AE46-0E4F694F0F38";
paths = (
{
closed = 1;
nodes = (
"1482 1322 LINE",
"1654 1322 OFFCURVE",
"1763 1478 OFFCURVE",
"1773 1633 CURVE SMOOTH",
"1774 1648 OFFCURVE",
"1771 1663 OFFCURVE",
"1768 1680 CURVE",
"1595 1680 LINE",
"1596 1671 OFFCURVE",
"1596 1659 OFFCURVE",
"1596 1644 CURVE SMOOTH",
"1596 1564 OFFCURVE",
"1572 1417 OFFCURVE",
"1413 1414 CURVE"
);
}
);
width = 1549;
},
{
components = (
{
name = U;
}
);
layerId = "BDB4B313-38B1-4B24-B843-560B185382BD";
paths = (
{
closed = 1;
nodes = (
"1732 1329 LINE",
"1791 1329 OFFCURVE",
"1949 1421 OFFCURVE",
"1949 1627 CURVE SMOOTH",
"1949 1645 OFFCURVE",
"1946 1717 OFFCURVE",
"1943 1738 CURVE",
"1727 1738 LINE",
"1729 1729 OFFCURVE",
"1729 1702 OFFCURVE",
"1729 1655 CURVE SMOOTH",
"1729 1554 OFFCURVE",
"1718 1419 OFFCURVE",
"1528 1419 CURVE"
);
}
);
width = 1707;
}
);
unicode = 01AF;
},
{
color = 10;
glyphname = V;
lastChange = "2018-07-19 00:36:32 +0000";
layers = (
{
anchors = (
{
name = bottom;
position = "{542, 0}";
},
{
name = top;
position = "{878, 1419}";
}
);
layerId = "D92FDD0B-F694-41DD-AE46-0E4F694F0F38";
paths = (
{
closed = 1;
nodes = (
"588 -18 LINE",
"1338 1254 LINE SMOOTH",
"1388 1339 OFFCURVE",
"1460 1326 OFFCURVE",
"1510 1331 CURVE SMOOTH",
"1538 1334 OFFCURVE",
"1549 1338 OFFCURVE",
"1553 1368 CURVE SMOOTH",
"1555 1383 OFFCURVE",
"1549 1419 OFFCURVE",
"1527 1419 CURVE SMOOTH",
"1072 1419 LINE SMOOTH",
"1052 1419 OFFCURVE",
"1029 1387 OFFCURVE",
"1029 1356 CURVE SMOOTH",
"1029 1342 OFFCURVE",
"1035 1333 OFFCURVE",
"1056 1331 CURVE",
"1165 1331 OFFCURVE",
"1210 1313 OFFCURVE",
"1210 1281 CURVE SMOOTH",
"1210 1274 OFFCURVE",
"1208 1266 OFFCURVE",
"1203 1257 CURVE SMOOTH",
"616 202 LINE",
"605 202 LINE",
"418 1283 LINE",
"418 1320 OFFCURVE",
"456 1327 OFFCURVE",
"559 1331 CURVE",
"585 1334 OFFCURVE",
"595 1347 OFFCURVE",
"599 1368 CURVE SMOOTH",
"602 1383 OFFCURVE",
"595 1419 OFFCURVE",
"573 1419 CURVE SMOOTH",
"48 1419 LINE SMOOTH",
"25 1419 OFFCURVE",
"5 1382 OFFCURVE",
"5 1352 CURVE SMOOTH",
"5 1336 OFFCURVE",
"13 1333 OFFCURVE",
"35 1331 CURVE SMOOTH",
"83 1327 OFFCURVE",
"167 1343 OFFCURVE",
"185 1254 CURVE SMOOTH",
"441 -18 LINE {name = hr00;}"
);
}
);
width = 1365;
},
{
anchors = (
{
name = bottom;
position = "{711, 0}";
},
{
name = top;
position = "{1043, 1419}";
}
);
layerId = "BDB4B313-38B1-4B24-B843-560B185382BD";
paths = (
{
closed = 1;
nodes = (
"750 -18 LINE",
"1543 1241 LINE",
"1597 1326 OFFCURVE",
"1679 1326 OFFCURVE",
"1729 1331 CURVE SMOOTH",
"1757 1334 OFFCURVE",
"1773 1350 OFFCURVE",
"1773 1386 CURVE SMOOTH",
"1773 1403 OFFCURVE",
"1766 1419 OFFCURVE",
"1748 1419 CURVE SMOOTH",
"1293 1419 LINE SMOOTH",
"1259 1419 OFFCURVE",
"1248 1386 OFFCURVE",
"1248 1356 CURVE SMOOTH",
"1248 1342 OFFCURVE",
"1254 1333 OFFCURVE",
"1275 1331 CURVE SMOOTH",
"1378 1321 OFFCURVE",
"1418 1304 OFFCURVE",
"1418 1271 CURVE SMOOTH",
"1418 1263 OFFCURVE",
"1416 1255 OFFCURVE",
"1412 1246 CURVE",
"753 192 LINE",
"746 192 LINE",
"594 1258 LINE",
"594 1301 OFFCURVE",
"646 1323 OFFCURVE",
"754 1331 CURVE SMOOTH",
"780 1333 OFFCURVE",
"794 1347 OFFCURVE",
"794 1368 CURVE SMOOTH",
"794 1384 OFFCURVE",
"792 1419 OFFCURVE",
"770 1419 CURVE SMOOTH",
"95 1419 LINE SMOOTH",
"73 1419 OFFCURVE",
"49 1379 OFFCURVE",
"49 1353 CURVE SMOOTH",
"49 1336 OFFCURVE",
"58 1333 OFFCURVE",
"80 1331 CURVE SMOOTH",
"128 1326 OFFCURVE",
"210 1342 OFFCURVE",
"226 1254 CURVE SMOOTH",
"460 -18 LINE"
);
}
);
width = 1561;
}
);
unicode = 0056;
},
{
color = 10;
glyphname = W;
lastChange = "2018-07-19 00:40:27 +0000";
layers = (
{
anchors = (
{
name = bottom;
position = "{909, 0}";
},
{
name = top;
position = "{1202, 1419}";
}
);
layerId = "D92FDD0B-F694-41DD-AE46-0E4F694F0F38";
paths = (
{
closed = 1;
nodes = (
"540 -18 LINE",
"1090 1053 LINE",
"1103 1053 LINE",
"1230 -18 LINE",
"1353 -18 LINE",
"1975 1254 LINE SMOOTH",
"2015 1344 OFFCURVE",
"2087 1326 OFFCURVE",
"2137 1331 CURVE SMOOTH",
"2165 1334 OFFCURVE",
"2175 1338 OFFCURVE",
"2180 1368 CURVE SMOOTH",
"2181 1383 OFFCURVE",
"2176 1419 OFFCURVE",
"2154 1419 CURVE SMOOTH",
"1709 1419 LINE SMOOTH",
"1689 1419 OFFCURVE",
"1666 1387 OFFCURVE",
"1666 1355 CURVE SMOOTH",
"1666 1341 OFFCURVE",
"1672 1331 OFFCURVE",
"1693 1331 CURVE SMOOTH",
"1782 1331 OFFCURVE",
"1838 1319 OFFCURVE",
"1838 1285 CURVE SMOOTH",
"1838 1279 OFFCURVE",
"1837 1273 OFFCURVE",
"1834 1267 CURVE SMOOTH",
"1388 281 LINE",
"1381 281 LINE",
"1251 1399 LINE",
"1143 1399 LINE",
"582 286 LINE",
"573 286 LINE",
"489 1261 LINE SMOOTH",
"485 1309 OFFCURVE",
"538 1331 OFFCURVE",
"651 1331 CURVE SMOOTH",
"677 1331 OFFCURVE",
"687 1347 OFFCURVE",
"691 1368 CURVE SMOOTH",
"692 1383 OFFCURVE",
"688 1419 OFFCURVE",
"665 1419 CURVE SMOOTH",
"150 1419 LINE SMOOTH",
"127 1419 OFFCURVE",
"106 1381 OFFCURVE",
"106 1353 CURVE SMOOTH",
"106 1336 OFFCURVE",
"115 1333 OFFCURVE",
"137 1331 CURVE SMOOTH",
"185 1326 OFFCURVE",
"266 1343 OFFCURVE",
"277 1254 CURVE SMOOTH",
"417 -18 LINE {name = hr00;}"
);
}
);
width = 1998;
},
{
anchors = (
{
name = bottom;
position = "{985, 0}";
},
{
name = top;
position = "{1393, 1419}";
}
);
layerId = "BDB4B313-38B1-4B24-B843-560B185382BD";
paths = (
{
closed = 1;
nodes = (
"669 -18 LINE",
"1201 1039 LINE",
"1212 1039 LINE",
"1294 -18 LINE",
"1562 -18 LINE",
"2256 1254 LINE SMOOTH",
"2296 1328 OFFCURVE",
"2391 1326 OFFCURVE",
"2442 1331 CURVE SMOOTH",
"2470 1334 OFFCURVE",
"2486 1341 OFFCURVE",
"2486 1377 CURVE SMOOTH",
"2486 1394 OFFCURVE",
"2479 1419 OFFCURVE",
"2461 1419 CURVE SMOOTH",
"1916 1419 LINE SMOOTH",
"1896 1419 OFFCURVE",
"1871 1405 OFFCURVE",
"1871 1355 CURVE SMOOTH",
"1871 1341 OFFCURVE",
"1877 1331 OFFCURVE",
"1898 1331 CURVE SMOOTH",
"1994 1331 OFFCURVE",
"2090 1307 OFFCURVE",
"2090 1260 CURVE SMOOTH",
"2090 1255 OFFCURVE",
"2088 1249 OFFCURVE",
"2085 1242 CURVE SMOOTH",
"1613 291 LINE",
"1600 291 LINE",
"1502 1399 LINE",
"1244 1399 LINE",
"716 291 LINE",
"702 291 LINE",
"619 1261 LINE SMOOTH",
"615 1309 OFFCURVE",
"692 1331 OFFCURVE",
"803 1331 CURVE SMOOTH",
"830 1331 OFFCURVE",
"844 1352 OFFCURVE",
"844 1378 CURVE SMOOTH",
"844 1395 OFFCURVE",
"838 1419 OFFCURVE",
"819 1419 CURVE SMOOTH",
"119 1419 LINE SMOOTH",
"97 1419 OFFCURVE",
"73 1392 OFFCURVE",
"73 1353 CURVE SMOOTH",
"73 1336 OFFCURVE",
"82 1333 OFFCURVE",
"104 1331 CURVE SMOOTH",
"152 1326 OFFCURVE",
"263 1343 OFFCURVE",
"270 1254 CURVE",
"416 -18 LINE"
);
}
);
width = 2307;
}
);
unicode = 0057;
},
{
color = 10;
glyphname = X;
lastChange = "2018-07-19 03:37:40 +0000";
layers = (
{
layerId = "D92FDD0B-F694-41DD-AE46-0E4F694F0F38";
paths = (
{
closed = 1;
nodes = (
"480 0 LINE SMOOTH",
"502 0 OFFCURVE",
"523 41 OFFCURVE",
"523 64 CURVE SMOOTH",
"523 77 OFFCURVE",
"515 86 OFFCURVE",
"496 88 CURVE",
"354 92 OFFCURVE",
"311 109 OFFCURVE",
"311 134 CURVE SMOOTH",
"311 143 OFFCURVE",
"316 152 OFFCURVE",
"323 162 CURVE",
"694 613 LINE",
"938 122 LINE",
"938 93 OFFCURVE",
"890 92 OFFCURVE",
"829 88 CURVE",
"802 85 OFFCURVE",
"788 57 OFFCURVE",
"788 36 CURVE SMOOTH",
"788 21 OFFCURVE",
"793 0 OFFCURVE",
"815 0 CURVE SMOOTH",
"1317 0 LINE SMOOTH",
"1339 0 OFFCURVE",
"1360 18 OFFCURVE",
"1360 60 CURVE SMOOTH",
"1360 76 OFFCURVE",
"1351 86 OFFCURVE",
"1330 88 CURVE SMOOTH",
"1289 92 OFFCURVE",
"1198 86 OFFCURVE",
"1167 165 CURVE",
"840 758 LINE",
"1294 1254 LINE",
"1366 1330 OFFCURVE",
"1457 1326 OFFCURVE",
"1507 1331 CURVE SMOOTH",
"1535 1334 OFFCURVE",
"1551 1343 OFFCURVE",
"1551 1379 CURVE SMOOTH",
"1551 1396 OFFCURVE",
"1545 1419 OFFCURVE",
"1527 1419 CURVE SMOOTH",
"1022 1419 LINE SMOOTH",
"1003 1419 OFFCURVE",
"976 1386 OFFCURVE",
"976 1355 CURVE SMOOTH",
"976 1341 OFFCURVE",
"982 1331 OFFCURVE",
"1003 1331 CURVE SMOOTH",
"1100 1331 OFFCURVE",
"1169 1310 OFFCURVE",
"1169 1281 CURVE SMOOTH",
"1169 1274 OFFCURVE",
"1164 1266 OFFCURVE",
"1154 1257 CURVE",
"797 839 LINE",
"572 1300 LINE",
"572 1329 OFFCURVE",
"621 1331 OFFCURVE",
"683 1331 CURVE SMOOTH",
"710 1331 OFFCURVE",
"724 1351 OFFCURVE",
"724 1380 CURVE SMOOTH",
"724 1397 OFFCURVE",
"718 1419 OFFCURVE",
"700 1419 CURVE SMOOTH",
"188 1419 LINE SMOOTH",
"166 1419 OFFCURVE",
"141 1393 OFFCURVE",
"141 1353 CURVE SMOOTH",
"141 1336 OFFCURVE",
"150 1333 OFFCURVE",
"172 1331 CURVE SMOOTH",
"220 1327 OFFCURVE",
"312 1333 OFFCURVE",
"346 1254 CURVE",
"646 684 LINE",
"179 165 LINE",
"115 88 OFFCURVE",
"37 93 OFFCURVE",
"-7 88 CURVE SMOOTH",
"-34 85 OFFCURVE",
"-52 77 OFFCURVE",
"-52 43 CURVE SMOOTH",
"-52 26 OFFCURVE",
"-45 0 OFFCURVE",
"-26 0 CURVE SMOOTH"
);
}
);
width = 1455;
},
{
layerId = "BDB4B313-38B1-4B24-B843-560B185382BD";
paths = (
{
closed = 1;
nodes = (
"494 0 LINE SMOOTH",
"517 0 OFFCURVE",
"532 28 OFFCURVE",
"532 48 CURVE SMOOTH",
"532 70 OFFCURVE",
"529 85 OFFCURVE",
"504 88 CURVE",
"390 92 OFFCURVE",
"337 111 OFFCURVE",
"337 136 CURVE SMOOTH",
"337 144 OFFCURVE",
"344 152 OFFCURVE",
"353 162 CURVE SMOOTH",
"739 582 LINE",
"951 120 LINE",
"951 100 OFFCURVE",
"925 94 OFFCURVE",
"817 88 CURVE",
"790 85 OFFCURVE",
"773 66 OFFCURVE",
"773 42 CURVE SMOOTH",
"773 25 OFFCURVE",
"780 0 OFFCURVE",
"799 0 CURVE SMOOTH",
"1471 0 LINE SMOOTH",
"1493 0 OFFCURVE",
"1514 28 OFFCURVE",
"1514 51 CURVE SMOOTH",
"1514 66 OFFCURVE",
"1510 86 OFFCURVE",
"1488 88 CURVE SMOOTH",
"1440 92 OFFCURVE",
"1355 89 OFFCURVE",
"1315 165 CURVE SMOOTH",
"992 774 LINE",
"1478 1254 LINE SMOOTH",
"1554 1329 OFFCURVE",
"1635 1326 OFFCURVE",
"1685 1331 CURVE SMOOTH",
"1716 1334 OFFCURVE",
"1730 1344 OFFCURVE",
"1730 1383 CURVE SMOOTH",
"1730 1400 OFFCURVE",
"1724 1419 OFFCURVE",
"1707 1419 CURVE SMOOTH",
"1232 1419 LINE SMOOTH",
"1209 1419 OFFCURVE",
"1196 1390 OFFCURVE",
"1195 1368 CURVE SMOOTH",
"1194 1347 OFFCURVE",
"1195 1331 OFFCURVE",
"1221 1331 CURVE SMOOTH",
"1293 1331 OFFCURVE",
"1342 1312 OFFCURVE",
"1342 1284 CURVE SMOOTH",
"1342 1276 OFFCURVE",
"1337 1267 OFFCURVE",
"1328 1257 CURVE SMOOTH",
"957 858 LINE",
"744 1303 LINE",
"744 1322 OFFCURVE",
"769 1331 OFFCURVE",
"872 1331 CURVE SMOOTH",
"898 1331 OFFCURVE",
"914 1359 OFFCURVE",
"914 1380 CURVE SMOOTH",
"914 1396 OFFCURVE",
"914 1419 OFFCURVE",
"891 1419 CURVE SMOOTH",
"222 1419 LINE SMOOTH",
"200 1419 OFFCURVE",
"179 1389 OFFCURVE",
"179 1371 CURVE SMOOTH",
"179 1350 OFFCURVE",
"185 1333 OFFCURVE",
"213 1330 CURVE SMOOTH",
"301 1321 OFFCURVE",
"359 1316 OFFCURVE",
"391 1254 CURVE SMOOTH",
"703 660 LINE",
"199 165 LINE SMOOTH",
"124 91 OFFCURVE",
"30 94 OFFCURVE",
"-20 88 CURVE SMOOTH",
"-46 85 OFFCURVE",
"-67 76 OFFCURVE",
"-67 43 CURVE SMOOTH",
"-67 26 OFFCURVE",
"-60 0 OFFCURVE",
"-41 0 CURVE SMOOTH"
);
}
);
width = 1643;
}
);
unicode = 0058;
},
{
color = 10;
glyphname = Y;
lastChange = "2018-07-19 03:40:39 +0000";
layers = (
{
anchors = (
{
name = bottom;
position = "{583, 0}";
},
{
name = top;
position = "{823, 1419}";
},
{
name = topleft;
position = "{150, 1419}";
}
);
layerId = "D92FDD0B-F694-41DD-AE46-0E4F694F0F38";
paths = (
{
closed = 1;
nodes = (
"249 26 OFFCURVE",
"257 0 OFFCURVE",
"277 0 CURVE SMOOTH",
"862 0 LINE SMOOTH",
"882 0 OFFCURVE",
"904 37 OFFCURVE",
"904 60 CURVE SMOOTH",
"904 82 OFFCURVE",
"887 85 OFFCURVE",
"863 88 CURVE",
"793 93 OFFCURVE",
"684 80 OFFCURVE",
"684 152 CURVE",
"748 541 LINE",
"1258 1254 LINE SMOOTH",
"1317 1336 OFFCURVE",
"1358 1336 OFFCURVE",
"1408 1341 CURVE SMOOTH",
"1436 1344 OFFCURVE",
"1444 1348 OFFCURVE",
"1450 1378 CURVE SMOOTH",
"1453 1393 OFFCURVE",
"1446 1419 OFFCURVE",
"1424 1419 CURVE SMOOTH",
"1019 1419 LINE SMOOTH",
"992 1419 OFFCURVE",
"977 1384 OFFCURVE",
"977 1372 CURVE SMOOTH",
"977 1352 OFFCURVE",
"989 1331 OFFCURVE",
"1013 1331 CURVE SMOOTH",
"1104 1331 OFFCURVE",
"1138 1315 OFFCURVE",
"1138 1290 CURVE SMOOTH",
"1138 1280 OFFCURVE",
"1134 1270 OFFCURVE",
"1126 1258 CURVE SMOOTH",
"705 639 LINE",
"438 1297 LINE",
"438 1332 OFFCURVE",
"512 1331 OFFCURVE",
"590 1331 CURVE SMOOTH",
"619 1331 OFFCURVE",
"638 1364 OFFCURVE",
"638 1386 CURVE SMOOTH",
"638 1400 OFFCURVE",
"630 1419 OFFCURVE",
"611 1419 CURVE SMOOTH",
"117 1419 LINE SMOOTH",
"96 1419 OFFCURVE",
"74 1400 OFFCURVE",
"74 1368 CURVE SMOOTH",
"74 1351 OFFCURVE",
"82 1343 OFFCURVE",
"105 1341 CURVE SMOOTH",
"153 1337 OFFCURVE",
"184 1335 OFFCURVE",
"220 1254 CURVE SMOOTH",
"539 534 LINE",
"475 152 LINE SMOOTH",
"463 81 OFFCURVE",
"367 93 OFFCURVE",
"299 88 CURVE",
"270 85 OFFCURVE",
"249 69 OFFCURVE",
"249 43 CURVE SMOOTH {name = hr00;}"
);
}
);
width = 1260;
},
{
anchors = (
{
name = bottom;
position = "{660, 0}";
},
{
name = top;
position = "{933, 1419}";
},
{
name = topleft;
position = "{150, 1419}";
}
);
layerId = "BDB4B313-38B1-4B24-B843-560B185382BD";
paths = (
{
closed = 1;
nodes = (
"263 25 OFFCURVE",
"270 0 OFFCURVE",
"289 0 CURVE SMOOTH",
"1018 0 LINE SMOOTH",
"1038 0 OFFCURVE",
"1063 27 OFFCURVE",
"1063 63 CURVE SMOOTH",
"1063 82 OFFCURVE",
"1046 85 OFFCURVE",
"1023 88 CURVE SMOOTH",
"961 96 OFFCURVE",
"845 81 OFFCURVE",
"845 150 CURVE",
"907 547 LINE",
"1437 1254 LINE SMOOTH",
"1499 1337 OFFCURVE",
"1556 1336 OFFCURVE",
"1607 1341 CURVE SMOOTH",
"1635 1344 OFFCURVE",
"1645 1348 OFFCURVE",
"1651 1378 CURVE SMOOTH",
"1654 1393 OFFCURVE",
"1647 1419 OFFCURVE",
"1625 1419 CURVE SMOOTH",
"1180 1419 LINE SMOOTH",
"1158 1419 OFFCURVE",
"1137 1392 OFFCURVE",
"1137 1369 CURVE SMOOTH",
"1137 1350 OFFCURVE",
"1150 1331 OFFCURVE",
"1172 1331 CURVE SMOOTH",
"1266 1331 OFFCURVE",
"1303 1315 OFFCURVE",
"1303 1288 CURVE SMOOTH",
"1303 1279 OFFCURVE",
"1299 1269 OFFCURVE",
"1291 1258 CURVE SMOOTH",
"844 639 LINE",
"584 1297 LINE",
"584 1321 OFFCURVE",
"628 1326 OFFCURVE",
"748 1331 CURVE SMOOTH",
"774 1332 OFFCURVE",
"797 1358 OFFCURVE",
"797 1378 CURVE SMOOTH",
"797 1393 OFFCURVE",
"794 1419 OFFCURVE",
"771 1419 CURVE SMOOTH",
"114 1419 LINE SMOOTH",
"92 1419 OFFCURVE",
"72 1398 OFFCURVE",
"72 1378 CURVE SMOOTH",
"72 1360 OFFCURVE",
"72 1343 OFFCURVE",
"100 1341 CURVE SMOOTH",
"185 1335 OFFCURVE",
"217 1306 OFFCURVE",
"240 1254 CURVE SMOOTH",
"560 534 LINE",
"493 152 LINE SMOOTH",
"481 81 OFFCURVE",
"383 95 OFFCURVE",
"315 88 CURVE SMOOTH",
"285 85 OFFCURVE",
"263 68 OFFCURVE",
"263 42 CURVE SMOOTH"
);
}
);
width = 1499;
}
);
unicode = 0059;
},
{
color = 10;
glyphname = Z;
lastChange = "2018-07-19 03:43:11 +0000";
layers = (
{
anchors = (
{
name = bottom;
position = "{559, 0}";
},
{
name = top;
position = "{791, 1419}";
}
);
layerId = "D92FDD0B-F694-41DD-AE46-0E4F694F0F38";
paths = (
{
closed = 1;
nodes = (
"1 15 OFFCURVE",
"19 0 OFFCURVE",
"35 0 CURVE SMOOTH",
"1031 0 LINE",
"1049 1 OFFCURVE",
"1065 14 OFFCURVE",
"1083 41 CURVE",
"1164 429 LINE",
"1168 452 OFFCURVE",
"1123 463 OFFCURVE",
"1108 463 CURVE SMOOTH",
"1087 463 OFFCURVE",
"1074 456 OFFCURVE",
"1066 430 CURVE SMOOTH",
"1051 382 OFFCURVE",
"923 83 OFFCURVE",
"763 83 CURVE SMOOTH",
"275 83 LINE",
"1285 1323 LINE SMOOTH",
"1293 1333 OFFCURVE",
"1311 1352 OFFCURVE",
"1311 1374 CURVE SMOOTH",
"1311 1388 LINE SMOOTH",
"1311 1407 OFFCURVE",
"1298 1419 OFFCURVE",
"1277 1419 CURVE SMOOTH",
"325 1419 LINE",
"305 1418 OFFCURVE",
"287 1405 OFFCURVE",
"270 1378 CURVE",
"196 1020 LINE",
"192 997 OFFCURVE",
"234 986 OFFCURVE",
"249 986 CURVE SMOOTH",
"270 986 OFFCURVE",
"285 993 OFFCURVE",
"293 1019 CURVE SMOOTH",
"308 1067 OFFCURVE",
"440 1331 OFFCURVE",
"538 1331 CURVE SMOOTH",
"1032 1331 LINE",
"53 123 LINE",
"10 69 OFFCURVE",
"1 53 OFFCURVE",
"1 40 CURVE SMOOTH",
"1 34 LINE SMOOTH {name = hr00;}"
);
}
);
width = 1232;
},
{
anchors = (
{
name = bottom;
position = "{626, 0}";
},
{
name = top;
position = "{846, 1419}";
}
);
layerId = "BDB4B313-38B1-4B24-B843-560B185382BD";
paths = (
{
closed = 1;
nodes = (
"23 12 OFFCURVE",
"36 0 OFFCURVE",
"62 0 CURVE SMOOTH",
"1175 0 LINE",
"1195 1 OFFCURVE",
"1211 14 OFFCURVE",
"1229 41 CURVE",
"1354 429 LINE",
"1358 452 OFFCURVE",
"1315 463 OFFCURVE",
"1300 463 CURVE SMOOTH",
"1269 463 OFFCURVE",
"1248 456 OFFCURVE",
"1236 430 CURVE SMOOTH",
"1214 383 OFFCURVE",
"1035 83 OFFCURVE",
"901 83 CURVE SMOOTH",
"446 83 LINE",
"1390 1330 LINE SMOOTH",
"1397 1340 OFFCURVE",
"1405 1348 OFFCURVE",
"1405 1361 CURVE SMOOTH",
"1405 1389 LINE SMOOTH",
"1405 1408 OFFCURVE",
"1387 1419 OFFCURVE",
"1371 1419 CURVE SMOOTH",
"330 1419 LINE",
"310 1418 OFFCURVE",
"292 1405 OFFCURVE",
"275 1378 CURVE",
"177 1020 LINE",
"173 997 OFFCURVE",
"206 986 OFFCURVE",
"221 986 CURVE SMOOTH",
"252 986 OFFCURVE",
"273 993 OFFCURVE",
"285 1019 CURVE SMOOTH",
"307 1066 OFFCURVE",
"470 1331 OFFCURVE",
"572 1331 CURVE SMOOTH",
"979 1331 LINE",
"81 138 LINE",
"34 84 OFFCURVE",
"23 67 OFFCURVE",
"23 50 CURVE SMOOTH",
"23 31 LINE SMOOTH"
);
}
);
width = 1412;
}
);
unicode = 005A;
userData = {
com.typemytype.robofont.mark = (
0.6,
0.609,
1,
1
);
};
},
{
color = 10;
glyphname = a;
lastChange = "2018-07-19 03:59:11 +0000";
layers = (
{
anchors = (
{
name = bottom;
position = "{428, 0}";
},
{
name = btm;
position = "{554, -170}";
},
{
name = ogonek;
position = "{988, 10}";
},
{
name = top;
position = "{584, 994}";
}
);
layerId = "D92FDD0B-F694-41DD-AE46-0E4F694F0F38";
paths = (
{
closed = 1;
nodes = (
"553 -30 OFFCURVE",
"637 63 OFFCURVE",
"708 159 CURVE",
"704 141 OFFCURVE",
"701 125 OFFCURVE",
"701 110 CURVE SMOOTH",
"701 31 OFFCURVE",
"745 -13 OFFCURVE",
"821 -13 CURVE SMOOTH {name = hr02;}",
"870 -13 OFFCURVE",
"964 10 OFFCURVE",
"1056 41 CURVE SMOOTH",
"1074 47 OFFCURVE",
"1081 67 OFFCURVE",
"1081 83 CURVE SMOOTH {name = hr03;}",
"1081 112 OFFCURVE",
"1068 113 OFFCURVE",
"1056 113 CURVE SMOOTH",
"1036 113 OFFCURVE",
"984 96 OFFCURVE",
"956 96 CURVE SMOOTH",
"910 96 OFFCURVE",
"897 117 OFFCURVE",
"897 147 CURVE SMOOTH",
"897 154 OFFCURVE",
"898 161 OFFCURVE",
"899 168 CURVE",
"1023 967 LINE",
"1026 990 OFFCURVE",
"1012 997 OFFCURVE",
"999 997 CURVE SMOOTH",
"968 997 OFFCURVE",
"921 958 OFFCURVE",
"888 939 CURVE",
"827 984 OFFCURVE",
"761 1013 OFFCURVE",
"644 1013 CURVE SMOOTH",
"342 1013 OFFCURVE",
"112 710 OFFCURVE",
"112 375 CURVE SMOOTH",
"112 160 OFFCURVE",
"185 -30 OFFCURVE",
"427 -30 CURVE SMOOTH"
);
},
{
closed = 1;
nodes = (
"345 88 OFFCURVE",
"313 226 OFFCURVE",
"313 362 CURVE SMOOTH",
"313 574 OFFCURVE",
"400 918 OFFCURVE",
"647 918 CURVE SMOOTH",
"732 918 OFFCURVE",
"768 881 OFFCURVE",
"808 819 CURVE",
"733 316 LINE",
"695 230 OFFCURVE",
"574 88 OFFCURVE",
"480 88 CURVE SMOOTH {name = hr04;}"
);
}
);
width = 1173;
},
{
anchors = (
{
name = bottom;
position = "{606, 0}";
},
{
name = btm;
position = "{598, -170}";
},
{
name = ogonek;
position = "{1149, 10}";
},
{
name = top;
position = "{723, 994}";
}
);
layerId = "BDB4B313-38B1-4B24-B843-560B185382BD";
paths = (
{
closed = 1;
nodes = (
"650 -27 OFFCURVE",
"764 112 OFFCURVE",
"831 239 CURVE",
"823 191 OFFCURVE",
"815 140 OFFCURVE",
"815 111 CURVE SMOOTH",
"815 34 OFFCURVE",
"861 -25 OFFCURVE",
"973 -25 CURVE SMOOTH",
"1127 -25 OFFCURVE",
"1238 25 OFFCURVE",
"1265 34 CURVE SMOOTH",
"1271 36 OFFCURVE",
"1290 43 OFFCURVE",
"1290 77 CURVE SMOOTH",
"1290 95 OFFCURVE",
"1282 114 OFFCURVE",
"1262 114 CURVE SMOOTH",
"1257 114 OFFCURVE",
"1215 102 OFFCURVE",
"1184 102 CURVE SMOOTH",
"1167 102 OFFCURVE",
"1126 109 OFFCURVE",
"1126 147 CURVE SMOOTH",
"1126 159 OFFCURVE",
"1127 172 OFFCURVE",
"1129 189 CURVE",
"1247 990 LINE",
"1247 1006 OFFCURVE",
"1231 1011 OFFCURVE",
"1212 1011 CURVE SMOOTH",
"1184 1011 OFFCURVE",
"1135 980 OFFCURVE",
"1054 934 CURVE",
"990 980 OFFCURVE",
"900 1011 OFFCURVE",
"739 1011 CURVE SMOOTH",
"357 1011 OFFCURVE",
"91 711 OFFCURVE",
"91 372 CURVE SMOOTH",
"91 131 OFFCURVE",
"229 -27 OFFCURVE",
"446 -27 CURVE SMOOTH"
);
},
{
closed = 1;
nodes = (
"477 153 OFFCURVE",
"410 218 OFFCURVE",
"410 371 CURVE SMOOTH",
"410 645 OFFCURVE",
"532 920 OFFCURVE",
"760 920 CURVE SMOOTH",
"847 920 OFFCURVE",
"889 876 OFFCURVE",
"920 802 CURVE",
"859 406 LINE",
"813 315 OFFCURVE",
"680 153 OFFCURVE",
"538 153 CURVE SMOOTH"
);
}
);
width = 1352;
}
);
unicode = 0061;
},
{
color = 10;
glyphname = ae;
lastChange = "2018-07-20 19:09:15 +0000";
layers = (
{
anchors = (
{
name = top;
position = "{992, 994}";
}
);
layerId = "D92FDD0B-F694-41DD-AE46-0E4F694F0F38";
paths = (
{
closed = 1;
nodes = (
"425 -27 OFFCURVE",
"598 126 OFFCURVE",
"718 358 CURVE",
"701 123 OFFCURVE",
"838 -29 OFFCURVE",
"1069 -29 CURVE SMOOTH",
"1239 -29 OFFCURVE",
"1381 50 OFFCURVE",
"1470 164 CURVE",
"1472 170 OFFCURVE",
"1480 176 OFFCURVE",
"1480 183 CURVE SMOOTH",
"1480 186 OFFCURVE",
"1479 189 OFFCURVE",
"1475 192 CURVE",
"1438 225 LINE",
"1429 231 OFFCURVE",
"1423 223 OFFCURVE",
"1416 215 CURVE",
"1322 124 OFFCURVE",
"1216 75 OFFCURVE",
"1098 75 CURVE SMOOTH",
"969 75 OFFCURVE",
"934 209 OFFCURVE",
"934 407 CURVE",
"1247 465 OFFCURVE",
"1540 591 OFFCURVE",
"1535 804 CURVE SMOOTH",
"1533 898 OFFCURVE",
"1468 1014 OFFCURVE",
"1252 1014 CURVE SMOOTH",
"1150 1014 OFFCURVE",
"1049 975 OFFCURVE",
"963 909 CURVE",
"928 979 OFFCURVE",
"859 1011 OFFCURVE",
"729 1011 CURVE SMOOTH",
"345 1011 OFFCURVE",
"36 628 OFFCURVE",
"36 282 CURVE SMOOTH",
"36 143 OFFCURVE",
"94 -27 OFFCURVE",
"292 -27 CURVE SMOOTH"
);
},
{
closed = 1;
nodes = (
"965 768 OFFCURVE",
"1100 933 OFFCURVE",
"1247 933 CURVE SMOOTH",
"1298 933 OFFCURVE",
"1347 901 OFFCURVE",
"1348 838 CURVE SMOOTH",
"1351 640 OFFCURVE",
"1203 540 OFFCURVE",
"938 484 CURVE"
);
},
{
closed = 1;
nodes = (
"262 113 OFFCURVE",
"231 197 OFFCURVE",
"231 304 CURVE SMOOTH",
"231 575 OFFCURVE",
"429 926 OFFCURVE",
"708 926 CURVE SMOOTH",
"800 926 OFFCURVE",
"855 854 OFFCURVE",
"828 757 CURVE",
"807 727 OFFCURVE",
"718 608 OFFCURVE",
"708 503 CURVE {name = hr00;}",
"599 243 OFFCURVE",
"445 113 OFFCURVE",
"336 113 CURVE SMOOTH"
);
}
);
width = 1565;
},
{
anchors = (
{
name = top;
position = "{1040, 994}";
}
);
layerId = "BDB4B313-38B1-4B24-B843-560B185382BD";
paths = (
{
closed = 1;
nodes = (
"497 -27 OFFCURVE",
"649 115 OFFCURVE",
"740 250 CURVE",
"789 77 OFFCURVE",
"940 -29 OFFCURVE",
"1162 -29 CURVE SMOOTH",
"1399 -29 OFFCURVE",
"1516 50 OFFCURVE",
"1653 164 CURVE",
"1656 170 OFFCURVE",
"1664 176 OFFCURVE",
"1664 183 CURVE SMOOTH",
"1664 186 OFFCURVE",
"1663 189 OFFCURVE",
"1659 192 CURVE",
"1622 225 LINE",
"1613 231 OFFCURVE",
"1607 223 OFFCURVE",
"1600 215 CURVE",
"1490 143 OFFCURVE",
"1391 105 OFFCURVE",
"1253 105 CURVE SMOOTH",
"1104 105 OFFCURVE",
"1050 243 OFFCURVE",
"1061 407 CURVE",
"1490 465 OFFCURVE",
"1709 558 OFFCURVE",
"1709 781 CURVE SMOOTH",
"1709 875 OFFCURVE",
"1626 1014 OFFCURVE",
"1350 1014 CURVE SMOOTH",
"1231 1014 OFFCURVE",
"1119 981 OFFCURVE",
"1024 923 CURVE",
"976 965 OFFCURVE",
"884 1011 OFFCURVE",
"741 1011 CURVE SMOOTH",
"358 1011 OFFCURVE",
"54 690 OFFCURVE",
"54 286 CURVE SMOOTH",
"54 58 OFFCURVE",
"188 -27 OFFCURVE",
"323 -27 CURVE SMOOTH"
);
},
{
closed = 1;
nodes = (
"1090 768 OFFCURVE",
"1192 933 OFFCURVE",
"1304 933 CURVE SMOOTH",
"1389 933 OFFCURVE",
"1408 871 OFFCURVE",
"1408 808 CURVE SMOOTH",
"1408 630 OFFCURVE",
"1287 534 OFFCURVE",
"1066 484 CURVE"
);
},
{
closed = 1;
nodes = (
"420 153 OFFCURVE",
"380 199 OFFCURVE",
"380 300 CURVE SMOOTH",
"380 661 OFFCURVE",
"535 926 OFFCURVE",
"731 926 CURVE SMOOTH",
"813 926 OFFCURVE",
"869 880 OFFCURVE",
"873 794 CURVE",
"775 678 OFFCURVE",
"723 534 OFFCURVE",
"723 375 CURVE",
"649 264 OFFCURVE",
"546 153 OFFCURVE",
"483 153 CURVE SMOOTH"
);
}
);
width = 1754;
}
);
unicode = 00E6;
userData = {
com.typemytype.robofont.mark = (
0.6,
0.609,
1,
1
);
};
},
{
color = 10;
glyphname = b;
lastChange = "2018-07-20 20:08:13 +0000";
layers = (
{
anchors = (
{
name = bottom;
position = "{497, 0}";
},
{
name = top;
position = "{732, 994}";
}
);
layerId = "D92FDD0B-F694-41DD-AE46-0E4F694F0F38";
paths = (
{
closed = 1;
nodes = (
"133 70 OFFCURVE",
"324 -30 OFFCURVE",
"514 -30 CURVE SMOOTH",
"791 -30 OFFCURVE",
"975 223 OFFCURVE",
"1008 492 CURVE SMOOTH",
"1013 534 OFFCURVE",
"1016 576 OFFCURVE",
"1016 617 CURVE SMOOTH",
"1016 828 OFFCURVE",
"939 1013 OFFCURVE",
"701 1013 CURVE SMOOTH",
"601 1013 OFFCURVE",
"463 959 OFFCURVE",
"372 815 CURVE",
"431 1104 LINE",
"492 1506 LINE SMOOTH",
"492 1509 OFFCURVE",
"493 1512 OFFCURVE",
"493 1514 CURVE SMOOTH",
"493 1536 OFFCURVE",
"479 1546 OFFCURVE",
"468 1546 CURVE SMOOTH",
"457 1546 OFFCURVE",
"442 1546 OFFCURVE",
"426 1546 CURVE SMOOTH",
"359 1546 OFFCURVE",
"255 1545 OFFCURVE",
"148 1539 CURVE SMOOTH",
"129 1538 OFFCURVE",
"116 1502 OFFCURVE",
"116 1488 CURVE SMOOTH",
"116 1468 OFFCURVE",
"124 1461 OFFCURVE",
"134 1455 CURVE SMOOTH",
"182 1428 OFFCURVE",
"279 1439 OFFCURVE",
"279 1368 CURVE",
"92 126 LINE {name = hr00;}"
);
},
{
closed = 1;
nodes = (
"424 802 OFFCURVE",
"546 895 OFFCURVE",
"645 895 CURVE SMOOTH",
"775 895 OFFCURVE",
"812 804 OFFCURVE",
"812 657 CURVE SMOOTH",
"812 608 OFFCURVE",
"808 552 OFFCURVE",
"802 492 CURVE SMOOTH",
"770 252 OFFCURVE",
"684 65 OFFCURVE",
"491 65 CURVE SMOOTH",
"385 65 OFFCURVE",
"305 129 OFFCURVE",
"285 173 CURVE",
"367 719 LINE"
);
}
);
width = 1134;
},
{
anchors = (
{
name = bottom;
position = "{595, 0}";
},
{
name = top;
position = "{891, 994}";
}
);
layerId = "BDB4B313-38B1-4B24-B843-560B185382BD";
paths = (
{
closed = 1;
nodes = (
"139 70 OFFCURVE",
"375 -30 OFFCURVE",
"601 -30 CURVE SMOOTH",
"1002 -30 OFFCURVE",
"1210 223 OFFCURVE",
"1255 492 CURVE SMOOTH",
"1260 529 OFFCURVE",
"1263 565 OFFCURVE",
"1263 600 CURVE SMOOTH",
"1263 830 OFFCURVE",
"1144 1013 OFFCURVE",
"865 1013 CURVE SMOOTH",
"744 1013 OFFCURVE",
"602 953 OFFCURVE",
"501 825 CURVE",
"548 1104 LINE",
"604 1508 LINE SMOOTH",
"605 1512 OFFCURVE",
"605 1515 OFFCURVE",
"605 1518 CURVE SMOOTH",
"605 1542 OFFCURVE",
"590 1548 OFFCURVE",
"580 1548 CURVE SMOOTH",
"500 1547 OFFCURVE",
"333 1546 OFFCURVE",
"145 1538 CURVE SMOOTH",
"129 1537 OFFCURVE",
"117 1510 OFFCURVE",
"114 1494 CURVE SMOOTH",
"111 1469 OFFCURVE",
"120 1460 OFFCURVE",
"133 1454 CURVE",
"181 1441 OFFCURVE",
"276 1451 OFFCURVE",
"276 1355 CURVE SMOOTH",
"276 1347 OFFCURVE",
"275 1338 OFFCURVE",
"274 1329 CURVE SMOOTH",
"89 126 LINE"
);
},
{
closed = 1;
nodes = (
"541 770 OFFCURVE",
"631 865 OFFCURVE",
"742 865 CURVE SMOOTH",
"873 865 OFFCURVE",
"918 771 OFFCURVE",
"918 622 CURVE SMOOTH",
"918 582 OFFCURVE",
"914 539 OFFCURVE",
"909 492 CURVE SMOOTH",
"877 252 OFFCURVE",
"771 65 OFFCURVE",
"578 65 CURVE SMOOTH",
"494 65 OFFCURVE",
"423 110 OFFCURVE",
"410 165 CURVE",
"491 702 LINE"
);
}
);
width = 1329;
}
);
unicode = 0062;
},
{
color = 10;
glyphname = c;
lastChange = "2018-07-20 20:07:12 +0000";
layers = (
{
anchors = (
{
name = bottom;
position = "{420, 0}";
},
{
name = top;
position = "{595, 994}";
}
);
layerId = "D92FDD0B-F694-41DD-AE46-0E4F694F0F38";
paths = (
{
closed = 1;
nodes = (
"328 1014 OFFCURVE",
"64 740 OFFCURVE",
"64 381 CURVE SMOOTH",
"64 133 OFFCURVE",
"194 -28 OFFCURVE",
"432 -28 CURVE SMOOTH",
"598 -28 OFFCURVE",
"714 50 OFFCURVE",
"803 164 CURVE",
"806 170 OFFCURVE",
"814 176 OFFCURVE",
"814 183 CURVE SMOOTH",
"814 186 OFFCURVE",
"813 189 OFFCURVE",
"809 192 CURVE SMOOTH",
"772 225 LINE",
"763 231 OFFCURVE",
"757 223 OFFCURVE",
"750 215 CURVE",
"658 124 OFFCURVE",
"577 75 OFFCURVE",
"463 75 CURVE SMOOTH",
"364 75 OFFCURVE",
"281 152 OFFCURVE",
"281 360 CURVE SMOOTH",
"281 720 OFFCURVE",
"423 933 OFFCURVE",
"574 933 CURVE SMOOTH",
"613 933 OFFCURVE",
"647 925 OFFCURVE",
"660 914 CURVE",
"714 705 LINE SMOOTH",
"726 660 OFFCURVE",
"745 662 OFFCURVE",
"784 662 CURVE SMOOTH",
"826 662 OFFCURVE",
"888 704 OFFCURVE",
"888 787 CURVE SMOOTH",
"888 944 OFFCURVE",
"757 1014 OFFCURVE",
"590 1014 CURVE SMOOTH {name = hr00;}"
);
}
);
width = 929;
},
{
anchors = (
{
name = bottom;
position = "{524, 0}";
},
{
name = top;
position = "{706, 994}";
}
);
layerId = "BDB4B313-38B1-4B24-B843-560B185382BD";
paths = (
{
closed = 1;
nodes = (
"350 1014 OFFCURVE",
"71 752 OFFCURVE",
"71 411 CURVE SMOOTH",
"71 145 OFFCURVE",
"241 -28 OFFCURVE",
"539 -28 CURVE SMOOTH",
"737 -28 OFFCURVE",
"862 62 OFFCURVE",
"967 188 CURVE",
"970 194 OFFCURVE",
"978 200 OFFCURVE",
"978 207 CURVE SMOOTH",
"978 210 OFFCURVE",
"977 213 OFFCURVE",
"973 216 CURVE SMOOTH",
"936 249 LINE",
"927 255 OFFCURVE",
"921 247 OFFCURVE",
"914 239 CURVE",
"846 180 OFFCURVE",
"764 125 OFFCURVE",
"650 125 CURVE SMOOTH",
"532 125 OFFCURVE",
"418 195 OFFCURVE",
"418 390 CURVE SMOOTH",
"418 732 OFFCURVE",
"523 933 OFFCURVE",
"671 933 CURVE SMOOTH",
"722 933 OFFCURVE",
"737 926 OFFCURVE",
"746 919 CURVE",
"801 705 LINE SMOOTH",
"813 660 OFFCURVE",
"822 662 OFFCURVE",
"861 662 CURVE SMOOTH",
"977 662 OFFCURVE",
"1075 704 OFFCURVE",
"1075 787 CURVE SMOOTH",
"1075 934 OFFCURVE",
"959 1014 OFFCURVE",
"707 1014 CURVE SMOOTH"
);
}
);
width = 1097;
}
);
unicode = 0063;
},
{
color = 10;
glyphname = d;
lastChange = "2018-07-21 03:20:41 +0000";
layers = (
{
anchors = (
{
name = bottom;
position = "{499, 0}";
},
{
name = center;
position = "{589, 497}";
},
{
name = top;
position = "{986, 1450}";
},
{
name = topright;
position = "{1228, 994}";
}
);
layerId = "D92FDD0B-F694-41DD-AE46-0E4F694F0F38";
paths = (
{
closed = 1;
nodes = (
"504 -30 OFFCURVE",
"641 23 OFFCURVE",
"729 165 CURVE",
"722 121 OFFCURVE",
"718 94 OFFCURVE",
"718 92 CURVE SMOOTH",
"718 57 OFFCURVE",
"731 -13 OFFCURVE",
"847 -13 CURVE SMOOTH {name = hr02;}",
"896 -13 OFFCURVE",
"994 10 OFFCURVE",
"1086 41 CURVE SMOOTH",
"1104 47 OFFCURVE",
"1111 67 OFFCURVE",
"1111 83 CURVE SMOOTH {name = hr03;}",
"1111 112 OFFCURVE",
"1098 113 OFFCURVE",
"1086 113 CURVE SMOOTH",
"1066 113 OFFCURVE",
"1014 96 OFFCURVE",
"986 96 CURVE SMOOTH",
"940 96 OFFCURVE",
"927 117 OFFCURVE",
"927 147 CURVE SMOOTH",
"927 154 OFFCURVE",
"928 161 OFFCURVE",
"929 168 CURVE SMOOTH",
"1135 1506 LINE SMOOTH",
"1139 1532 OFFCURVE",
"1122 1546 OFFCURVE",
"1110 1546 CURVE SMOOTH",
"1053 1546 OFFCURVE",
"900 1546 OFFCURVE",
"766 1538 CURVE SMOOTH",
"750 1537 OFFCURVE",
"737 1510 OFFCURVE",
"735 1494 CURVE",
"734 1490 OFFCURVE",
"734 1486 OFFCURVE",
"734 1483 CURVE SMOOTH",
"734 1466 OFFCURVE",
"742 1457 OFFCURVE",
"754 1454 CURVE SMOOTH",
"803 1442 OFFCURVE",
"921 1439 OFFCURVE",
"921 1368 CURVE SMOOTH",
"921 1363 OFFCURVE",
"921 1359 OFFCURVE",
"920 1354 CURVE",
"882 1104 LINE",
"863 957 LINE",
"804 992 OFFCURVE",
"724 1013 OFFCURVE",
"605 1013 CURVE SMOOTH",
"303 1013 OFFCURVE",
"93 716 OFFCURVE",
"93 381 CURVE SMOOTH",
"93 166 OFFCURVE",
"166 -30 OFFCURVE",
"408 -30 CURVE SMOOTH"
);
},
{
closed = 1;
nodes = (
"329 88 OFFCURVE",
"297 232 OFFCURVE",
"297 368 CURVE SMOOTH",
"297 580 OFFCURVE",
"361 918 OFFCURVE",
"608 918 CURVE SMOOTH",
"708 918 OFFCURVE",
"804 870 OFFCURVE",
"832 791 CURVE",
"750 293 LINE",
"691 193 OFFCURVE",
"555 88 OFFCURVE",
"464 88 CURVE SMOOTH {name = hr04;}"
);
}
);
width = 1178;
},
{
anchors = (
{
name = bottom;
position = "{594, 0}";
},
{
name = center;
position = "{679, 497}";
},
{
name = top;
position = "{1158, 1464}";
},
{
name = topright;
position = "{1407, 994}";
}
);
layerId = "BDB4B313-38B1-4B24-B843-560B185382BD";
paths = (
{
closed = 1;
nodes = (
"575 -28 OFFCURVE",
"739 44 OFFCURVE",
"820 146 CURVE",
"819 139 OFFCURVE",
"818 130 OFFCURVE",
"818 121 CURVE SMOOTH",
"818 67 OFFCURVE",
"842 -17 OFFCURVE",
"999 -17 CURVE SMOOTH",
"1064 -17 OFFCURVE",
"1152 -3 OFFCURVE",
"1271 34 CURVE",
"1289 40 OFFCURVE",
"1296 61 OFFCURVE",
"1296 76 CURVE SMOOTH",
"1296 94 OFFCURVE",
"1289 114 OFFCURVE",
"1271 114 CURVE SMOOTH",
"1252 114 OFFCURVE",
"1218 103 OFFCURVE",
"1189 103 CURVE SMOOTH",
"1158 103 OFFCURVE",
"1132 114 OFFCURVE",
"1132 157 CURVE SMOOTH",
"1132 163 OFFCURVE",
"1132 169 OFFCURVE",
"1133 175 CURVE SMOOTH",
"1332 1508 LINE SMOOTH",
"1333 1512 OFFCURVE",
"1333 1515 OFFCURVE",
"1333 1518 CURVE SMOOTH",
"1333 1542 OFFCURVE",
"1317 1548 OFFCURVE",
"1308 1548 CURVE SMOOTH",
"1232 1547 OFFCURVE",
"1022 1546 OFFCURVE",
"842 1538 CURVE SMOOTH",
"826 1537 OFFCURVE",
"811 1512 OFFCURVE",
"811 1486 CURVE SMOOTH",
"811 1468 OFFCURVE",
"817 1460 OFFCURVE",
"830 1454 CURVE",
"879 1441 OFFCURVE",
"1003 1452 OFFCURVE",
"1003 1350 CURVE SMOOTH",
"1003 1344 OFFCURVE",
"1002 1337 OFFCURVE",
"1001 1329 CURVE",
"968 1104 LINE",
"950 965 LINE",
"901 991 OFFCURVE",
"846 1015 OFFCURVE",
"730 1015 CURVE SMOOTH",
"341 1015 OFFCURVE",
"72 711 OFFCURVE",
"72 383 CURVE SMOOTH",
"72 164 OFFCURVE",
"184 -28 OFFCURVE",
"460 -28 CURVE SMOOTH"
);
},
{
closed = 1;
nodes = (
"522 120 OFFCURVE",
"416 137 OFFCURVE",
"416 360 CURVE SMOOTH",
"416 628 OFFCURVE",
"522 920 OFFCURVE",
"751 920 CURVE SMOOTH",
"862 920 OFFCURVE",
"905 846 OFFCURVE",
"919 802 CURVE",
"837 286 LINE",
"790 210 OFFCURVE",
"688 120 OFFCURVE",
"583 120 CURVE SMOOTH"
);
}
);
width = 1357;
}
);
unicode = 0064;
},
{
color = 10;
glyphname = eth;
lastChange = "2018-07-21 03:22:13 +0000";
layers = (
{
anchors = (
{
name = top;
position = "{724, 1700}";
}
);
layerId = "D92FDD0B-F694-41DD-AE46-0E4F694F0F38";
paths = (
{
closed = 1;
nodes = (
"816 -29 OFFCURVE",
"1014 350 OFFCURVE",
"1014 729 CURVE SMOOTH",
"1014 970 OFFCURVE",
"936 1211 OFFCURVE",
"741 1385 CURVE",
"902 1514 LINE {name = hr00;}",
"850 1602 LINE",
"657 1450 LINE",
"570 1508 OFFCURVE",
"465 1550 OFFCURVE",
"342 1571 CURVE",
"314 1481 LINE",
"404 1466 OFFCURVE",
"485 1427 OFFCURVE",
"552 1375 CURVE",
"377 1250 LINE",
"434 1168 LINE",
"629 1306 LINE",
"752 1197 OFFCURVE",
"803 1035 OFFCURVE",
"805 934 CURVE SMOOTH",
"805 927 OFFCURVE",
"805 920 OFFCURVE",
"805 913 CURVE",
"750 965 OFFCURVE",
"673 994 OFFCURVE",
"563 994 CURVE SMOOTH",
"298 994 OFFCURVE",
"71 728 OFFCURVE",
"71 392 CURVE SMOOTH",
"71 154 OFFCURVE",
"213 -29 OFFCURVE",
"487 -29 CURVE SMOOTH"
);
},
{
closed = 1;
nodes = (
"331 66 OFFCURVE",
"283 168 OFFCURVE",
"283 339 CURVE SMOOTH",
"283 604 OFFCURVE",
"375 877 OFFCURVE",
"565 877 CURVE SMOOTH",
"657 877 OFFCURVE",
"766 863 OFFCURVE",
"810 782 CURVE",
"812 753 OFFCURVE",
"813 725 OFFCURVE",
"813 698 CURVE SMOOTH",
"813 401 OFFCURVE",
"703 66 OFFCURVE",
"496 66 CURVE SMOOTH"
);
}
);
width = 1119;
},
{
anchors = (
{
name = top;
position = "{802, 1700}";
}
);
layerId = "BDB4B313-38B1-4B24-B843-560B185382BD";
paths = (
{
closed = 1;
nodes = (
"964 -29 OFFCURVE",
"1233 299 OFFCURVE",
"1233 739 CURVE SMOOTH",
"1233 1031 OFFCURVE",
"1104 1274 OFFCURVE",
"883 1421 CURVE",
"1085 1564 LINE",
"1021 1650 LINE",
"782 1479 LINE",
"672 1531 OFFCURVE",
"546 1563 OFFCURVE",
"406 1571 CURVE",
"376 1481 LINE",
"480 1471 OFFCURVE",
"569 1433 OFFCURVE",
"643 1380 CURVE",
"374 1188 LINE",
"443 1110 LINE",
"724 1309 LINE",
"838 1190 OFFCURVE",
"897 1037 OFFCURVE",
"897 934 CURVE SMOOTH",
"897 927 OFFCURVE",
"897 920 OFFCURVE",
"896 913 CURVE",
"843 965 OFFCURVE",
"772 994 OFFCURVE",
"671 994 CURVE SMOOTH",
"280 994 OFFCURVE",
"66 697 OFFCURVE",
"66 379 CURVE SMOOTH",
"66 128 OFFCURVE",
"220 -29 OFFCURVE",
"537 -29 CURVE SMOOTH"
);
},
{
closed = 1;
nodes = (
"431 66 OFFCURVE",
"407 194 OFFCURVE",
"407 318 CURVE SMOOTH",
"407 559 OFFCURVE",
"486 877 OFFCURVE",
"701 877 CURVE SMOOTH",
"770 877 OFFCURVE",
"869 863 OFFCURVE",
"899 782 CURVE",
"899 708 OFFCURVE",
"889 622 OFFCURVE",
"879 572 CURVE SMOOTH",
"828 322 OFFCURVE",
"763 66 OFFCURVE",
"528 66 CURVE SMOOTH"
);
}
);
width = 1305;
}
);
unicode = 00F0;
},
{
color = 10;
glyphname = dcroat;
lastChange = "2018-07-21 03:21:04 +0000";
layers = (
{
components = (
{
name = d;
}
);
layerId = "D92FDD0B-F694-41DD-AE46-0E4F694F0F38";
paths = (
{
closed = 1;
nodes = (
"650 1288 OFFCURVE",
"638 1266 OFFCURVE",
"634 1241 CURVE",
"634 1225 OFFCURVE",
"636 1193 OFFCURVE",
"652 1192 CURVE",
"1223 1192 LINE",
"1238 1198 OFFCURVE",
"1252 1235 OFFCURVE",
"1255 1260 CURVE",
"1256 1263 OFFCURVE",
"1256 1266 OFFCURVE",
"1256 1269 CURVE SMOOTH",
"1256 1282 OFFCURVE",
"1249 1293 OFFCURVE",
"1236 1294 CURVE",
"664 1294 LINE {name = hr00;}"
);
}
);
width = 1178;
},
{
components = (
{
name = d;
transform = "{1, 0, 0, 1, -1, 0}";
}
);
layerId = "BDB4B313-38B1-4B24-B843-560B185382BD";
paths = (
{
closed = 1;
nodes = (
"647 1288 OFFCURVE",
"635 1266 OFFCURVE",
"631 1241 CURVE",
"631 1225 OFFCURVE",
"633 1193 OFFCURVE",
"649 1192 CURVE",
"1463 1192 LINE",
"1478 1198 OFFCURVE",
"1492 1235 OFFCURVE",
"1495 1260 CURVE",
"1496 1263 OFFCURVE",
"1496 1266 OFFCURVE",
"1496 1269 CURVE SMOOTH",
"1496 1282 OFFCURVE",
"1489 1293 OFFCURVE",
"1476 1294 CURVE",
"661 1294 LINE"
);
}
);
width = 1357;
}
);
unicode = 0111;
},
{
color = 10;
glyphname = e;
lastChange = "2018-07-20 04:50:33 +0000";
layers = (
{
anchors = (
{
name = bottom;
position = "{413, 0}";
},
{
name = btm;
position = "{492, -170}";
},
{
name = ogonek;
position = "{801, 10}";
},
{
name = top;
position = "{608, 994}";
}
);
layerId = "D92FDD0B-F694-41DD-AE46-0E4F694F0F38";
paths = (
{
closed = 1;
nodes = (
"896 894 OFFCURVE",
"833 1014 OFFCURVE",
"613 1014 CURVE SMOOTH",
"344 1014 OFFCURVE",
"78 746 OFFCURVE",
"78 393 CURVE SMOOTH",
"78 139 OFFCURVE",
"211 -29 OFFCURVE",
"453 -29 CURVE SMOOTH",
"623 -29 OFFCURVE",
"742 50 OFFCURVE",
"831 164 CURVE",
"833 170 OFFCURVE",
"841 176 OFFCURVE",
"841 183 CURVE SMOOTH",
"841 186 OFFCURVE",
"839 188 OFFCURVE",
"836 192 CURVE SMOOTH",
"826 205 OFFCURVE",
"814 217 OFFCURVE",
"799 225 CURVE",
"790 231 OFFCURVE",
"784 223 OFFCURVE",
"777 215 CURVE",
"683 124 OFFCURVE",
"600 75 OFFCURVE",
"482 75 CURVE SMOOTH",
"383 75 OFFCURVE",
"295 152 OFFCURVE",
"295 360 CURVE SMOOTH",
"295 376 OFFCURVE",
"295 392 OFFCURVE",
"295 407 CURVE",
"606 465 OFFCURVE",
"896 589 OFFCURVE",
"896 800 CURVE SMOOTH {name = hr00;}"
);
},
{
closed = 1;
nodes = (
"659 933 OFFCURVE",
"708 901 OFFCURVE",
"709 838 CURVE SMOOTH",
"712 640 OFFCURVE",
"564 540 OFFCURVE",
"299 484 CURVE",
"326 768 OFFCURVE",
"461 933 OFFCURVE",
"608 933 CURVE SMOOTH"
);
}
);
width = 966;
},
{
anchors = (
{
name = bottom;
position = "{501, 0}";
},
{
name = btm;
position = "{467, -170}";
},
{
name = ogonek;
position = "{959, 10}";
},
{
name = top;
position = "{719, 994}";
}
);
layerId = "BDB4B313-38B1-4B24-B843-560B185382BD";
paths = (
{
closed = 1;
nodes = (
"1075 883 OFFCURVE",
"986 1014 OFFCURVE",
"715 1014 CURVE SMOOTH",
"370 1014 OFFCURVE",
"75 740 OFFCURVE",
"75 381 CURVE SMOOTH",
"75 133 OFFCURVE",
"246 -29 OFFCURVE",
"538 -29 CURVE SMOOTH",
"717 -29 OFFCURVE",
"895 39 OFFCURVE",
"1020 164 CURVE SMOOTH",
"1022 166 OFFCURVE",
"1026 170 OFFCURVE",
"1026 175 CURVE SMOOTH",
"1026 176 OFFCURVE",
"1025 178 OFFCURVE",
"1025 179 CURVE SMOOTH",
"1025 195 OFFCURVE",
"993 231 OFFCURVE",
"983 231 CURVE SMOOTH",
"978 231 OFFCURVE",
"973 228 OFFCURVE",
"968 225 CURVE SMOOTH",
"856 158 OFFCURVE",
"760 120 OFFCURVE",
"638 120 CURVE SMOOTH",
"522 120 OFFCURVE",
"407 173 OFFCURVE",
"407 360 CURVE SMOOTH",
"407 376 OFFCURVE",
"407 392 OFFCURVE",
"408 407 CURVE",
"768 445 OFFCURVE",
"1075 566 OFFCURVE",
"1075 789 CURVE SMOOTH"
);
},
{
closed = 1;
nodes = (
"753 933 OFFCURVE",
"778 879 OFFCURVE",
"778 816 CURVE SMOOTH",
"778 638 OFFCURVE",
"642 534 OFFCURVE",
"413 484 CURVE",
"439 768 OFFCURVE",
"550 933 OFFCURVE",
"670 933 CURVE SMOOTH"
);
}
);
width = 1141;
}
);
unicode = 0065;
},
{
color = 10;
glyphname = f;
lastChange = "2018-07-24 19:07:14 +0000";
layers = (
{
anchors = (
{
name = bottom;
position = "{434, 0}";
},
{
name = top;
position = "{454, 1549}";
}
);
layerId = "D92FDD0B-F694-41DD-AE46-0E4F694F0F38";
paths = (
{
closed = 1;
nodes = (
"143 -442 OFFCURVE",
"284 -198 OFFCURVE",
"319 56 CURVE SMOOTH",
"435 892 LINE",
"677 892 LINE",
"691 898 OFFCURVE",
"701 945 OFFCURVE",
"701 969 CURVE SMOOTH",
"701 982 OFFCURVE",
"694 993 OFFCURVE",
"681 994 CURVE",
"449 994 LINE",
"465 1107 LINE SMOOTH",
"509 1420 OFFCURVE",
"590 1475 OFFCURVE",
"650 1475 CURVE",
"748 1310 LINE",
"748 1308 OFFCURVE",
"748 1307 OFFCURVE",
"759 1307 CURVE SMOOTH",
"794 1307 OFFCURVE",
"872 1361 OFFCURVE",
"872 1439 CURVE SMOOTH",
"872 1517 OFFCURVE",
"821 1573 OFFCURVE",
"729 1573 CURVE SMOOTH",
"471 1573 OFFCURVE",
"311 1329 OFFCURVE",
"274 1075 CURVE SMOOTH",
"262 992 LINE",
"129 984 LINE",
"115 978 OFFCURVE",
"99 966 OFFCURVE",
"99 941 CURVE SMOOTH",
"99 925 OFFCURVE",
"101 893 OFFCURVE",
"117 892 CURVE",
"249 892 LINE",
"127 20 LINE SMOOTH",
"86 -272 OFFCURVE",
"16 -340 OFFCURVE",
"-58 -344 CURVE",
"-138 -208 LINE",
"-141 -206 OFFCURVE",
"-150 -206 OFFCURVE",
"-155 -206 CURVE SMOOTH",
"-190 -206 OFFCURVE",
"-256 -240 OFFCURVE",
"-256 -320 CURVE SMOOTH",
"-256 -387 OFFCURVE",
"-223 -442 OFFCURVE",
"-97 -442 CURVE SMOOTH"
);
}
);
width = 673;
},
{
anchors = (
{
name = bottom;
position = "{600, 0}";
},
{
name = top;
position = "{558, 1570}";
}
);
layerId = "BDB4B313-38B1-4B24-B843-560B185382BD";
paths = (
{
closed = 1;
nodes = (
"217 -442 OFFCURVE",
"425 -200 OFFCURVE",
"459 56 CURVE SMOOTH",
"571 892 LINE",
"795 892 LINE",
"812 899 OFFCURVE",
"828 945 OFFCURVE",
"828 969 CURVE SMOOTH",
"828 982 OFFCURVE",
"821 993 OFFCURVE",
"808 994 CURVE",
"584 994 LINE",
"599 1107 LINE SMOOTH",
"641 1421 OFFCURVE",
"681 1475 OFFCURVE",
"744 1475 CURVE",
"834 1312 LINE SMOOTH",
"835 1310 OFFCURVE",
"840 1309 OFFCURVE",
"846 1309 CURVE SMOOTH",
"908 1309 OFFCURVE",
"1018 1353 OFFCURVE",
"1018 1431 CURVE SMOOTH",
"1018 1499 OFFCURVE",
"957 1573 OFFCURVE",
"773 1573 CURVE SMOOTH",
"453 1573 OFFCURVE",
"329 1330 OFFCURVE",
"288 1075 CURVE SMOOTH",
"275 994 LINE",
"141 984 LINE",
"127 978 OFFCURVE",
"116 966 OFFCURVE",
"111 941 CURVE SMOOTH",
"108 925 OFFCURVE",
"113 893 OFFCURVE",
"129 892 CURVE",
"263 892 LINE",
"147 20 LINE SMOOTH",
"108 -273 OFFCURVE",
"20 -340 OFFCURVE",
"-58 -344 CURVE",
"-134 -143 LINE",
"-152 -141 OFFCURVE",
"-167 -140 OFFCURVE",
"-178 -140 CURVE SMOOTH",
"-252 -140 OFFCURVE",
"-322 -205 OFFCURVE",
"-322 -284 CURVE SMOOTH",
"-322 -352 OFFCURVE",
"-279 -442 OFFCURVE",
"-97 -442 CURVE SMOOTH"
);
}
);
width = 780;
}
);
unicode = 0066;
},
{
color = 10;
glyphname = g;
lastChange = "2018-07-20 18:57:40 +0000";
layers = (
{
anchors = (
{
name = bottom;
position = "{438, -404}";
},
{
name = top;
position = "{587, 994}";
}
);
layerId = "D92FDD0B-F694-41DD-AE46-0E4F694F0F38";
paths = (
{
closed = 1;
nodes = (
"720 -451 OFFCURVE",
"967 -317 OFFCURVE",
"971 -46 CURVE SMOOTH",
"973 67 OFFCURVE",
"863 149 OFFCURVE",
"651 170 CURVE SMOOTH",
"407 194 LINE SMOOTH",
"341 201 OFFCURVE",
"294 225 OFFCURVE",
"295 283 CURVE SMOOTH",
"296 327 OFFCURVE",
"329 370 OFFCURVE",
"363 398 CURVE",
"404 386 OFFCURVE",
"452 379 OFFCURVE",
"506 379 CURVE SMOOTH",
"764 379 OFFCURVE",
"944 542 OFFCURVE",
"947 748 CURVE SMOOTH",
"948 797 OFFCURVE",
"925 851 OFFCURVE",
"908 863 CURVE",
"935 879 OFFCURVE",
"987 906 OFFCURVE",
"995 889 CURVE SMOOTH",
"1008 859 OFFCURVE",
"1021 838 OFFCURVE",
"1047 809 CURVE",
"1059 792 OFFCURVE",
"1080 783 OFFCURVE",
"1102 783 CURVE SMOOTH",
"1145 783 OFFCURVE",
"1192 816 OFFCURVE",
"1194 890 CURVE SMOOTH",
"1195 969 OFFCURVE",
"1157 1014 OFFCURVE",
"1067 1014 CURVE SMOOTH",
"1001 1014 OFFCURVE",
"911 959 OFFCURVE",
"874 914 CURVE",
"817 977 OFFCURVE",
"725 1014 OFFCURVE",
"604 1014 CURVE SMOOTH",
"325 1014 OFFCURVE",
"150 878 OFFCURVE",
"147 654 CURVE SMOOTH",
"145 571 OFFCURVE",
"189 487 OFFCURVE",
"288 430 CURVE",
"198 373 OFFCURVE",
"133 302 OFFCURVE",
"131 182 CURVE SMOOTH",
"131 139 OFFCURVE",
"145 106 OFFCURVE",
"167 80 CURVE",
"53 37 OFFCURVE",
"-4 -27 OFFCURVE",
"-6 -142 CURVE SMOOTH {name = hr02;}",
"-9 -307 OFFCURVE",
"161 -451 OFFCURVE",
"449 -451 CURVE SMOOTH"
);
},
{
closed = 1;
nodes = (
"394 474 OFFCURVE",
"338 536 OFFCURVE",
"340 635 CURVE SMOOTH",
"343 800 OFFCURVE",
"388 926 OFFCURVE",
"583 926 CURVE SMOOTH",
"701 926 OFFCURVE",
"753 859 OFFCURVE",
"751 761 CURVE SMOOTH",
"748 569 OFFCURVE",
"679 474 OFFCURVE",
"515 474 CURVE SMOOTH {name = hr01;}"
);
},
{
closed = 1;
nodes = (
"286 -355 OFFCURVE",
"174 -264 OFFCURVE",
"177 -132 CURVE SMOOTH {name = hr04;}",
"178 -66 OFFCURVE",
"185 0 OFFCURVE",
"232 36 CURVE",
"279 15 OFFCURVE",
"337 5 OFFCURVE",
"392 0 CURVE SMOOTH",
"526 -13 LINE SMOOTH",
"664 -26 OFFCURVE",
"826 -45 OFFCURVE",
"825 -142 CURVE SMOOTH",
"822 -307 OFFCURVE",
"642 -355 OFFCURVE",
"459 -355 CURVE SMOOTH"
);
}
);
width = 1173;
},
{
anchors = (
{
name = bottom;
position = "{524, -409}";
},
{
name = top;
position = "{659, 994}";
}
);
layerId = "BDB4B313-38B1-4B24-B843-560B185382BD";
paths = (
{
closed = 1;
nodes = (
"880 -448 OFFCURVE",
"1154 -311 OFFCURVE",
"1154 -87 CURVE SMOOTH",
"1154 77 OFFCURVE",
"1054 172 OFFCURVE",
"759 208 CURVE SMOOTH",
"435 244 LINE SMOOTH",
"357 253 OFFCURVE",
"330 284 OFFCURVE",
"330 320 CURVE SMOOTH",
"330 345 OFFCURVE",
"354 372 OFFCURVE",
"386 392 CURVE",
"442 377 OFFCURVE",
"509 369 OFFCURVE",
"588 369 CURVE SMOOTH",
"865 369 OFFCURVE",
"1084 484 OFFCURVE",
"1084 745 CURVE SMOOTH",
"1084 782 OFFCURVE",
"1077 816 OFFCURVE",
"1063 848 CURVE",
"1100 866 OFFCURVE",
"1155 879 OFFCURVE",
"1164 874 CURVE",
"1171 849 OFFCURVE",
"1177 823 OFFCURVE",
"1184 798 CURVE SMOOTH",
"1193 764 OFFCURVE",
"1233 744 OFFCURVE",
"1277 744 CURVE SMOOTH",
"1337 744 OFFCURVE",
"1394 783 OFFCURVE",
"1394 865 CURVE SMOOTH",
"1394 965 OFFCURVE",
"1322 1019 OFFCURVE",
"1242 1019 CURVE SMOOTH",
"1155 1019 OFFCURVE",
"1056 970 OFFCURVE",
"1005 923 CURVE",
"939 980 OFFCURVE",
"827 1014 OFFCURVE",
"659 1014 CURVE SMOOTH",
"406 1014 OFFCURVE",
"157 908 OFFCURVE",
"157 648 CURVE SMOOTH",
"157 555 OFFCURVE",
"201 474 OFFCURVE",
"302 424 CURVE",
"214 381 OFFCURVE",
"108 292 OFFCURVE",
"108 186 CURVE SMOOTH",
"108 120 OFFCURVE",
"135 68 OFFCURVE",
"186 33 CURVE",
"91 2 OFFCURVE",
"-10 -55 OFFCURVE",
"-10 -163 CURVE SMOOTH",
"-10 -359 OFFCURVE",
"206 -448 OFFCURVE",
"549 -448 CURVE SMOOTH"
);
},
{
closed = 1;
nodes = (
"508 458 OFFCURVE",
"472 528 OFFCURVE",
"472 651 CURVE SMOOTH",
"472 811 OFFCURVE",
"511 928 OFFCURVE",
"637 928 CURVE SMOOTH",
"750 928 OFFCURVE",
"795 876 OFFCURVE",
"795 758 CURVE SMOOTH",
"795 593 OFFCURVE",
"743 458 OFFCURVE",
"612 458 CURVE SMOOTH"
);
},
{
closed = 1;
nodes = (
"333 -352 OFFCURVE",
"274 -271 OFFCURVE",
"274 -146 CURVE SMOOTH",
"274 -86 OFFCURVE",
"284 -45 OFFCURVE",
"299 -13 CURVE",
"314 -16 OFFCURVE",
"331 -19 OFFCURVE",
"348 -21 CURVE SMOOTH",
"668 -55 LINE SMOOTH",
"789 -68 OFFCURVE",
"868 -106 OFFCURVE",
"868 -166 CURVE SMOOTH",
"868 -302 OFFCURVE",
"723 -352 OFFCURVE",
"575 -352 CURVE SMOOTH"
);
}
);
width = 1330;
}
);
unicode = 0067;
},
{
color = 10;
glyphname = h;
lastChange = "2018-07-21 03:26:57 +0000";
layers = (
{
anchors = (
{
name = bottom;
position = "{482, 0}";
},
{
name = center;
position = "{741, 939}";
},
{
name = top;
position = "{371, 1470}";
}
);
layerId = "D92FDD0B-F694-41DD-AE46-0E4F694F0F38";
paths = (
{
closed = 1;
nodes = (
"253 0 LINE",
"357 656 LINE",
"434 753 OFFCURVE",
"586 874 OFFCURVE",
"713 874 CURVE SMOOTH",
"791 874 OFFCURVE",
"805 844 OFFCURVE",
"805 814 CURVE",
"701 102 LINE",
"701 57 OFFCURVE",
"709 -13 OFFCURVE",
"825 -13 CURVE SMOOTH",
"874 -13 OFFCURVE",
"966 10 OFFCURVE",
"1058 41 CURVE SMOOTH",
"1076 47 OFFCURVE",
"1083 67 OFFCURVE",
"1083 83 CURVE SMOOTH {name = hr03;}",
"1083 112 OFFCURVE",
"1070 113 OFFCURVE",
"1058 113 CURVE SMOOTH",
"1038 113 OFFCURVE",
"988 96 OFFCURVE",
"960 96 CURVE SMOOTH",
"913 96 OFFCURVE",
"899 119 OFFCURVE",
"899 149 CURVE",
"995 766 LINE",
"1018 926 OFFCURVE",
"956 1014 OFFCURVE",
"791 1014 CURVE SMOOTH {name = hr04;}",
"604 1014 OFFCURVE",
"437 839 OFFCURVE",
"369 761 CURVE",
"411 1010 LINE",
"487 1506 LINE",
"489 1538 OFFCURVE",
"474 1546 OFFCURVE",
"463 1546 CURVE SMOOTH",
"412 1546 OFFCURVE",
"295 1547 OFFCURVE",
"173 1539 CURVE SMOOTH",
"157 1538 OFFCURVE",
"141 1511 OFFCURVE",
"141 1495 CURVE SMOOTH",
"141 1478 OFFCURVE",
"148 1462 OFFCURVE",
"159 1455 CURVE",
"195 1428 OFFCURVE",
"274 1441 OFFCURVE",
"274 1369 CURVE SMOOTH",
"274 1364 OFFCURVE",
"274 1359 OFFCURVE",
"273 1354 CURVE",
"66 0 LINE"
);
}
);
width = 1152;
},
{
anchors = (
{
name = bottom;
position = "{589, 0}";
},
{
name = center;
position = "{868, 945}";
},
{
name = top;
position = "{425, 1469}";
}
);
layerId = "BDB4B313-38B1-4B24-B843-560B185382BD";
paths = (
{
closed = 1;
nodes = (
"378 0 LINE",
"482 669 LINE",
"529 716 OFFCURVE",
"639 838 OFFCURVE",
"788 838 CURVE SMOOTH",
"907 838 OFFCURVE",
"900 769 OFFCURVE",
"900 689 CURVE",
"809 105 LINE",
"809 59 OFFCURVE",
"834 -13 OFFCURVE",
"994 -13 CURVE SMOOTH",
"1060 -13 OFFCURVE",
"1150 0 OFFCURVE",
"1271 34 CURVE",
"1289 40 OFFCURVE",
"1296 61 OFFCURVE",
"1296 76 CURVE SMOOTH",
"1296 94 OFFCURVE",
"1289 114 OFFCURVE",
"1271 114 CURVE SMOOTH",
"1261 114 OFFCURVE",
"1221 103 OFFCURVE",
"1190 103 CURVE SMOOTH",
"1155 103 OFFCURVE",
"1129 117 OFFCURVE",
"1133 175 CURVE",
"1226 763 LINE",
"1246 961 OFFCURVE",
"1126 1014 OFFCURVE",
"986 1014 CURVE SMOOTH",
"720 1014 OFFCURVE",
"540 832 OFFCURVE",
"489 785 CURVE",
"545 1104 LINE",
"611 1508 LINE",
"613 1540 OFFCURVE",
"598 1548 OFFCURVE",
"587 1548 CURVE SMOOTH",
"506 1548 OFFCURVE",
"347 1550 OFFCURVE",
"157 1538 CURVE SMOOTH",
"141 1537 OFFCURVE",
"129 1510 OFFCURVE",
"126 1494 CURVE",
"123 1469 OFFCURVE",
"132 1460 OFFCURVE",
"145 1454 CURVE",
"193 1441 OFFCURVE",
"280 1451 OFFCURVE",
"280 1357 CURVE SMOOTH",
"280 1348 OFFCURVE",
"279 1339 OFFCURVE",
"278 1329 CURVE",
"69 0 LINE"
);
}
);
width = 1383;
}
);
unicode = 0068;
},
{
color = 10;
glyphname = hbar;
lastChange = "2018-07-21 03:26:57 +0000";
layers = (
{
components = (
{
name = h;
transform = "{1, 0, 0, 1, -29, 0}";
}
);
layerId = "D92FDD0B-F694-41DD-AE46-0E4F694F0F38";
paths = (
{
closed = 1;
nodes = (
"71 1247 LINE",
"57 1241 OFFCURVE",
"45 1229 OFFCURVE",
"41 1204 CURVE",
"41 1188 OFFCURVE",
"43 1156 OFFCURVE",
"59 1155 CURVE",
"222 1155 LINE",
"630 1155 LINE",
"645 1161 OFFCURVE",
"659 1198 OFFCURVE",
"662 1223 CURVE",
"663 1226 OFFCURVE",
"663 1229 OFFCURVE",
"663 1232 CURVE SMOOTH",
"663 1245 OFFCURVE",
"656 1256 OFFCURVE",
"643 1257 CURVE",
"234 1257 LINE {name = hr00;}"
);
}
);
width = 1152;
},
{
components = (
{
name = h;
transform = "{1, 0, 0, 1, -41, 0}";
}
);
layerId = "BDB4B313-38B1-4B24-B843-560B185382BD";
paths = (
{
closed = 1;
nodes = (
"99 1247 LINE",
"85 1241 OFFCURVE",
"73 1229 OFFCURVE",
"69 1204 CURVE",
"69 1188 OFFCURVE",
"71 1156 OFFCURVE",
"87 1155 CURVE",
"250 1155 LINE",
"748 1155 LINE",
"763 1161 OFFCURVE",
"777 1198 OFFCURVE",
"780 1223 CURVE",
"781 1226 OFFCURVE",
"781 1229 OFFCURVE",
"781 1232 CURVE SMOOTH",
"781 1245 OFFCURVE",
"774 1256 OFFCURVE",
"761 1257 CURVE",
"262 1257 LINE"
);
}
);
width = 1383;
}
);
unicode = 0127;
},
{
color = 10;
glyphname = idotless;
lastChange = "2018-07-20 19:05:38 +0000";
layers = (
{
anchors = (
{
name = bottom;
position = "{278, 0}";
},
{
name = btm;
position = "{250, -170}";
},
{
name = ogonek;
position = "{480, 10}";
},
{
name = top;
position = "{330, 994}";
}
);
layerId = "D92FDD0B-F694-41DD-AE46-0E4F694F0F38";
paths = (
{
closed = 1;
nodes = (
"294 -13 OFFCURVE",
"388 10 OFFCURVE",
"480 41 CURVE SMOOTH",
"498 47 OFFCURVE",
"505 67 OFFCURVE",
"505 83 CURVE SMOOTH {name = hr02;}",
"505 112 OFFCURVE",
"492 113 OFFCURVE",
"480 113 CURVE SMOOTH",
"460 113 OFFCURVE",
"408 96 OFFCURVE",
"380 96 CURVE SMOOTH",
"335 96 OFFCURVE",
"321 118 OFFCURVE",
"321 150 CURVE",
"448 957 LINE {name = hr01;}",
"452 989 OFFCURVE",
"435 997 OFFCURVE",
"424 997 CURVE SMOOTH",
"368 997 OFFCURVE",
"252 995 OFFCURVE",
"122 987 CURVE SMOOTH",
"106 986 OFFCURVE",
"94 959 OFFCURVE",
"92 943 CURVE SMOOTH",
"89 918 OFFCURVE",
"96 909 OFFCURVE",
"110 903 CURVE",
"154 890 OFFCURVE",
"233 906 OFFCURVE",
"233 812 CURVE SMOOTH",
"233 804 OFFCURVE",
"232 795 OFFCURVE",
"231 785 CURVE",
"125 142 LINE",
"124 135 OFFCURVE",
"123 117 OFFCURVE",
"123 102 CURVE SMOOTH",
"123 57 OFFCURVE",
"129 -13 OFFCURVE",
"245 -13 CURVE SMOOTH"
);
}
);
width = 609;
},
{
anchors = (
{
name = bottom;
position = "{380, 0}";
},
{
name = btm;
position = "{160, -170}";
},
{
name = ogonek;
position = "{606, 10}";
},
{
name = top;
position = "{412, 994}";
}
);
layerId = "BDB4B313-38B1-4B24-B843-560B185382BD";
paths = (
{
closed = 1;
nodes = (
"368 -13 OFFCURVE",
"464 3 OFFCURVE",
"592 39 CURVE SMOOTH",
"610 44 OFFCURVE",
"616 57 OFFCURVE",
"616 69 CURVE SMOOTH",
"616 87 OFFCURVE",
"609 107 OFFCURVE",
"591 107 CURVE SMOOTH",
"575 107 OFFCURVE",
"539 96 OFFCURVE",
"510 96 CURVE SMOOTH",
"479 96 OFFCURVE",
"448 99 OFFCURVE",
"448 140 CURVE",
"574 957 LINE",
"575 989 OFFCURVE",
"561 997 OFFCURVE",
"550 997 CURVE SMOOTH",
"470 997 OFFCURVE",
"314 999 OFFCURVE",
"128 987 CURVE SMOOTH",
"112 986 OFFCURVE",
"100 959 OFFCURVE",
"98 943 CURVE SMOOTH",
"95 918 OFFCURVE",
"102 909 OFFCURVE",
"116 903 CURVE",
"160 890 OFFCURVE",
"242 906 OFFCURVE",
"242 816 CURVE SMOOTH",
"242 807 OFFCURVE",
"241 797 OFFCURVE",
"239 785 CURVE SMOOTH",
"138 173 LINE SMOOTH",
"134 150 OFFCURVE",
"132 121 OFFCURVE",
"132 96 CURVE SMOOTH",
"132 60 OFFCURVE",
"136 -13 OFFCURVE",
"253 -13 CURVE SMOOTH"
);
}
);
width = 749;
}
);
unicode = 0131;
userData = {
com.typemytype.robofont.guides = (
{
angle = 82;
isGlobal = 0;
magnetic = 5;
x = 234;
y = 0;
}
);
};
},
{
color = 10;
glyphname = jdotless;
lastChange = "2018-07-20 19:01:32 +0000";
layers = (
{
anchors = (
{
name = bottom;
position = "{275, -444}";
},
{
name = top;
position = "{373, 994}";
}
);
layerId = "D92FDD0B-F694-41DD-AE46-0E4F694F0F38";
paths = (
{
closed = 1;
nodes = (
"166 -449 OFFCURVE",
"324 -186 OFFCURVE",
"367 88 CURVE SMOOTH",
"502 957 LINE",
"503 989 OFFCURVE",
"489 997 OFFCURVE",
"478 997 CURVE SMOOTH",
"420 997 OFFCURVE",
"290 995 OFFCURVE",
"156 987 CURVE SMOOTH",
"139 986 OFFCURVE",
"125 954 OFFCURVE",
"125 933 CURVE SMOOTH",
"125 915 OFFCURVE",
"133 907 OFFCURVE",
"144 903 CURVE SMOOTH",
"191 886 OFFCURVE",
"290 900 OFFCURVE",
"290 803 CURVE",
"171 56 LINE",
"119 -317 OFFCURVE",
"50 -345 OFFCURVE",
"-19 -347 CURVE",
"-71 -202 LINE SMOOTH",
"-77 -185 OFFCURVE",
"-94 -178 OFFCURVE",
"-122 -178 CURVE SMOOTH {name = hr00;}",
"-160 -178 OFFCURVE",
"-235 -230 OFFCURVE",
"-235 -300 CURVE SMOOTH",
"-235 -367 OFFCURVE",
"-180 -449 OFFCURVE",
"-62 -449 CURVE SMOOTH"
);
}
);
width = 596;
},
{
anchors = (
{
name = bottom;
position = "{363, -447}";
},
{
name = top;
position = "{447, 994}";
}
);
layerId = "BDB4B313-38B1-4B24-B843-560B185382BD";
paths = (
{
closed = 1;
nodes = (
"226 -449 OFFCURVE",
"453 -235 OFFCURVE",
"497 74 CURVE SMOOTH",
"623 957 LINE",
"624 989 OFFCURVE",
"610 997 OFFCURVE",
"599 997 CURVE SMOOTH",
"519 997 OFFCURVE",
"363 999 OFFCURVE",
"177 987 CURVE SMOOTH",
"161 986 OFFCURVE",
"149 959 OFFCURVE",
"147 943 CURVE SMOOTH",
"144 918 OFFCURVE",
"151 909 OFFCURVE",
"165 903 CURVE",
"235 884 OFFCURVE",
"291 879 OFFCURVE",
"291 817 CURVE",
"183 56 LINE",
"134 -297 OFFCURVE",
"60 -345 OFFCURVE",
"-8 -347 CURVE",
"-102 -181 LINE SMOOTH",
"-118 -153 OFFCURVE",
"-144 -138 OFFCURVE",
"-175 -138 CURVE SMOOTH",
"-255 -138 OFFCURVE",
"-293 -196 OFFCURVE",
"-293 -260 CURVE SMOOTH",
"-293 -354 OFFCURVE",
"-190 -449 OFFCURVE",
"-11 -449 CURVE SMOOTH"
);
}
);
width = 748;
}
);
unicode = 0237;
},
{
color = 10;
glyphname = k;
lastChange = "2018-07-20 19:14:02 +0000";
layers = (
{
anchors = (
{
name = bottom;
position = "{471, 0}";
},
{
name = top;
position = "{563, 1700}";
}
);
layerId = "D92FDD0B-F694-41DD-AE46-0E4F694F0F38";
paths = (
{
closed = 1;
nodes = (
"515 1506 LINE",
"517 1538 OFFCURVE",
"502 1546 OFFCURVE",
"491 1546 CURVE SMOOTH",
"434 1546 OFFCURVE",
"305 1547 OFFCURVE",
"171 1539 CURVE SMOOTH",
"155 1538 OFFCURVE",
"139 1511 OFFCURVE",
"139 1495 CURVE SMOOTH",
"139 1479 OFFCURVE",
"145 1462 OFFCURVE",
"157 1455 CURVE SMOOTH",
"202 1429 OFFCURVE",
"302 1441 OFFCURVE",
"302 1369 CURVE",
"94 0 LINE",
"281 0 LINE",
"340 405 LINE",
"425 475 LINE",
"520 373 OFFCURVE",
"608 166 OFFCURVE",
"684 33 CURVE SMOOTH {name = hr02;}",
"700 5 OFFCURVE",
"739 -17 OFFCURVE",
"803 -17 CURVE SMOOTH",
"852 -17 OFFCURVE",
"922 -3 OFFCURVE",
"1013 27 CURVE SMOOTH",
"1031 33 OFFCURVE",
"1038 54 OFFCURVE",
"1038 69 CURVE SMOOTH",
"1038 89 OFFCURVE",
"1032 107 OFFCURVE",
"1012 107 CURVE SMOOTH",
"995 107 OFFCURVE",
"963 97 OFFCURVE",
"935 97 CURVE SMOOTH",
"898 97 OFFCURVE",
"867 137 OFFCURVE",
"844 170 CURVE SMOOTH",
"746 310 OFFCURVE",
"653 502 OFFCURVE",
"562 570 CURVE",
"868 814 LINE SMOOTH",
"916 852 OFFCURVE",
"987 899 OFFCURVE",
"1046 899 CURVE SMOOTH",
"1071 899 OFFCURVE",
"1088 921 OFFCURVE",
"1088 949 CURVE SMOOTH",
"1088 964 OFFCURVE",
"1079 987 OFFCURVE",
"1060 987 CURVE SMOOTH",
"687 990 LINE SMOOTH",
"665 990 OFFCURVE",
"645 960 OFFCURVE",
"645 934 CURVE SMOOTH",
"645 918 OFFCURVE",
"650 905 OFFCURVE",
"671 903 CURVE SMOOTH",
"717 899 OFFCURVE",
"769 894 OFFCURVE",
"769 873 CURVE SMOOTH",
"769 866 OFFCURVE",
"764 858 OFFCURVE",
"752 848 CURVE SMOOTH",
"347 503 LINE",
"399 742 LINE {name = hr01;}"
);
}
);
width = 1081;
},
{
anchors = (
{
name = bottom;
position = "{587, 0}";
},
{
name = top;
position = "{994, 1700}";
}
);
layerId = "BDB4B313-38B1-4B24-B843-560B185382BD";
paths = (
{
closed = 1;
nodes = (
"636 1518 LINE",
"636 1542 OFFCURVE",
"621 1548 OFFCURVE",
"611 1548 CURVE SMOOTH",
"530 1548 OFFCURVE",
"384 1550 OFFCURVE",
"194 1538 CURVE SMOOTH",
"178 1537 OFFCURVE",
"163 1517 OFFCURVE",
"163 1494 CURVE SMOOTH",
"163 1475 OFFCURVE",
"169 1460 OFFCURVE",
"182 1454 CURVE",
"229 1441 OFFCURVE",
"309 1451 OFFCURVE",
"309 1359 CURVE",
"100 0 LINE",
"412 0 LINE",
"473 366 LINE",
"599 467 LINE",
"675 366 OFFCURVE",
"710 199 OFFCURVE",
"768 67 CURVE SMOOTH",
"792 12 OFFCURVE",
"833 -13 OFFCURVE",
"890 -13 CURVE SMOOTH",
"1035 -13 OFFCURVE",
"1123 -1 OFFCURVE",
"1250 34 CURVE SMOOTH",
"1268 39 OFFCURVE",
"1275 61 OFFCURVE",
"1275 76 CURVE SMOOTH",
"1275 94 OFFCURVE",
"1268 114 OFFCURVE",
"1250 114 CURVE SMOOTH",
"1239 114 OFFCURVE",
"1211 103 OFFCURVE",
"1191 103 CURVE SMOOTH",
"1154 103 OFFCURVE",
"1122 143 OFFCURVE",
"1099 175 CURVE SMOOTH",
"993 322 OFFCURVE",
"919 549 OFFCURVE",
"831 649 CURVE",
"996 808 LINE SMOOTH",
"1058 868 OFFCURVE",
"1196 910 OFFCURVE",
"1285 906 CURVE SMOOTH",
"1309 905 OFFCURVE",
"1324 928 OFFCURVE",
"1324 954 CURVE SMOOTH",
"1324 970 OFFCURVE",
"1317 994 OFFCURVE",
"1296 994 CURVE SMOOTH",
"763 994 LINE SMOOTH",
"742 994 OFFCURVE",
"722 967 OFFCURVE",
"722 936 CURVE SMOOTH",
"722 920 OFFCURVE",
"728 908 OFFCURVE",
"748 906 CURVE SMOOTH",
"798 901 OFFCURVE",
"877 889 OFFCURVE",
"877 858 CURVE SMOOTH",
"877 851 OFFCURVE",
"873 842 OFFCURVE",
"861 832 CURVE SMOOTH",
"483 490 LINE",
"519 743 LINE"
);
}
);
width = 1313;
}
);
unicode = 006B;
},
{
color = 10;
glyphname = kgreenlandic;
lastChange = "2018-07-18 15:17:53 +0000";
layers = (
{
layerId = "D92FDD0B-F694-41DD-AE46-0E4F694F0F38";
paths = (
{
closed = 1;
nodes = (
"293 0 LINE",
"353 374 LINE",
"450 450 LINE",
"535 357 OFFCURVE",
"642 157 OFFCURVE",
"708 37 CURVE SMOOTH {name = hr02;}",
"724 8 OFFCURVE",
"763 -13 OFFCURVE",
"827 -13 CURVE SMOOTH",
"876 -13 OFFCURVE",
"937 0 OFFCURVE",
"1027 34 CURVE",
"1045 40 OFFCURVE",
"1052 61 OFFCURVE",
"1052 76 CURVE SMOOTH",
"1052 79 OFFCURVE",
"1052 82 OFFCURVE",
"1051 85 CURVE",
"1047 107 OFFCURVE",
"1040 114 OFFCURVE",
"1027 114 CURVE SMOOTH",
"1010 114 OFFCURVE",
"976 103 OFFCURVE",
"948 103 CURVE SMOOTH",
"911 103 OFFCURVE",
"879 142 OFFCURVE",
"856 175 CURVE SMOOTH",
"768 302 OFFCURVE",
"665 492 OFFCURVE",
"585 552 CURVE",
"853 819 LINE",
"906 861 OFFCURVE",
"987 906 OFFCURVE",
"1052 906 CURVE SMOOTH",
"1076 906 OFFCURVE",
"1091 928 OFFCURVE",
"1091 954 CURVE SMOOTH",
"1091 970 OFFCURVE",
"1084 994 OFFCURVE",
"1063 994 CURVE SMOOTH",
"670 994 LINE SMOOTH",
"647 994 OFFCURVE",
"632 964 OFFCURVE",
"630 949 CURVE",
"629 945 OFFCURVE",
"629 940 OFFCURVE",
"629 936 CURVE SMOOTH",
"629 920 OFFCURVE",
"635 908 OFFCURVE",
"655 906 CURVE SMOOTH",
"701 901 OFFCURVE",
"759 896 OFFCURVE",
"759 872 CURVE SMOOTH",
"759 864 OFFCURVE",
"752 854 OFFCURVE",
"738 842 CURVE",
"371 485 LINE",
"447 957 LINE {name = hr03;}",
"451 989 OFFCURVE",
"434 997 OFFCURVE",
"423 997 CURVE SMOOTH",
"367 997 OFFCURVE",
"239 995 OFFCURVE",
"109 987 CURVE SMOOTH",
"93 986 OFFCURVE",
"81 959 OFFCURVE",
"79 943 CURVE",
"77 918 OFFCURVE",
"83 909 OFFCURVE",
"97 903 CURVE",
"141 890 OFFCURVE",
"231 899 OFFCURVE",
"231 806 CURVE",
"101 0 LINE"
);
}
);
width = 1138;
},
{
layerId = "BDB4B313-38B1-4B24-B843-560B185382BD";
paths = (
{
closed = 1;
nodes = (
"396 0 LINE",
"453 353 LINE",
"540 424 LINE",
"616 329 OFFCURVE",
"721 160 OFFCURVE",
"778 37 CURVE",
"794 10 OFFCURVE",
"830 -13 OFFCURVE",
"887 -13 CURVE SMOOTH",
"1032 -13 OFFCURVE",
"1130 0 OFFCURVE",
"1257 34 CURVE",
"1275 40 OFFCURVE",
"1282 61 OFFCURVE",
"1282 76 CURVE SMOOTH",
"1282 79 OFFCURVE",
"1282 82 OFFCURVE",
"1281 85 CURVE",
"1277 107 OFFCURVE",
"1270 114 OFFCURVE",
"1257 114 CURVE SMOOTH",
"1246 114 OFFCURVE",
"1218 103 OFFCURVE",
"1198 103 CURVE SMOOTH",
"1161 103 OFFCURVE",
"1132 145 OFFCURVE",
"1106 175 CURVE SMOOTH",
"991 308 OFFCURVE",
"878 520 OFFCURVE",
"790 614 CURVE",
"973 808 LINE",
"1041 861 OFFCURVE",
"1173 910 OFFCURVE",
"1262 906 CURVE SMOOTH",
"1286 905 OFFCURVE",
"1301 928 OFFCURVE",
"1301 954 CURVE SMOOTH",
"1301 970 OFFCURVE",
"1294 994 OFFCURVE",
"1273 994 CURVE SMOOTH",
"740 994 LINE SMOOTH",
"717 994 OFFCURVE",
"702 964 OFFCURVE",
"700 949 CURVE",
"699 945 OFFCURVE",
"699 940 OFFCURVE",
"699 936 CURVE SMOOTH",
"699 920 OFFCURVE",
"705 908 OFFCURVE",
"725 906 CURVE SMOOTH",
"775 901 OFFCURVE",
"854 893 OFFCURVE",
"854 862 CURVE SMOOTH",
"854 849 OFFCURVE",
"850 842 OFFCURVE",
"838 832 CURVE",
"472 471 LINE",
"553 961 LINE SMOOTH",
"558 993 OFFCURVE",
"540 1001 OFFCURVE",
"529 1001 CURVE SMOOTH",
"449 1001 OFFCURVE",
"271 1003 OFFCURVE",
"85 991 CURVE SMOOTH",
"69 990 OFFCURVE",
"57 963 OFFCURVE",
"55 947 CURVE",
"53 922 OFFCURVE",
"59 913 OFFCURVE",
"73 907 CURVE",
"117 894 OFFCURVE",
"207 903 OFFCURVE",
"207 810 CURVE",
"74 0 LINE"
);
}
);
width = 1343;
}
);
unicode = 0138;
},
{
color = 10;
glyphname = l;
lastChange = "2018-07-24 19:31:15 +0000";
layers = (
{
anchors = (
{
name = bottom;
position = "{220, 0}";
},
{
name = center;
position = "{354, 939}";
},
{
name = top;
position = "{389, 1514}";
}
);
layerId = "D92FDD0B-F694-41DD-AE46-0E4F694F0F38";
paths = (
{
closed = 1;
nodes = (
"114 142 OFFCURVE {name = hr01;}",
"112 124 OFFCURVE",
"112 102 CURVE SMOOTH",
"112 57 OFFCURVE",
"118 -13 OFFCURVE",
"234 -13 CURVE SMOOTH",
"283 -13 OFFCURVE",
"377 10 OFFCURVE",
"469 41 CURVE SMOOTH",
"487 47 OFFCURVE",
"494 67 OFFCURVE",
"494 83 CURVE SMOOTH {name = hr02;}",
"494 112 OFFCURVE",
"481 113 OFFCURVE",
"469 113 CURVE SMOOTH",
"449 113 OFFCURVE",
"397 96 OFFCURVE",
"369 96 CURVE SMOOTH",
"323 96 OFFCURVE",
"310 117 OFFCURVE",
"310 147 CURVE SMOOTH",
"310 163 OFFCURVE",
"513 1512 OFFCURVE",
"513 1518 CURVE SMOOTH",
"513 1542 OFFCURVE",
"498 1548 OFFCURVE",
"488 1548 CURVE SMOOTH",
"431 1548 OFFCURVE",
"301 1544 OFFCURVE",
"167 1538 CURVE SMOOTH",
"146 1537 OFFCURVE",
"135 1497 OFFCURVE",
"135 1485 CURVE SMOOTH",
"135 1417 OFFCURVE",
"299 1459 OFFCURVE",
"299 1368 CURVE SMOOTH",
"299 1350 OFFCURVE",
"129 238 OFFCURVE",
"114 142 CURVE {name = hr01;}"
);
}
);
width = 584;
},
{
anchors = (
{
name = bottom;
position = "{289, 0}";
},
{
name = center;
position = "{406, 945}";
},
{
name = top;
position = "{483, 1501}";
}
);
layerId = "BDB4B313-38B1-4B24-B843-560B185382BD";
paths = (
{
closed = 1;
nodes = (
"123 155 OFFCURVE",
"119 137 OFFCURVE",
"119 116 CURVE SMOOTH",
"119 71 OFFCURVE",
"142 -13 OFFCURVE",
"273 -13 CURVE SMOOTH",
"401 -13 OFFCURVE",
"499 8 OFFCURVE",
"582 34 CURVE SMOOTH",
"601 40 OFFCURVE",
"607 60 OFFCURVE",
"607 76 CURVE SMOOTH",
"607 105 OFFCURVE",
"593 107 OFFCURVE",
"581 107 CURVE SMOOTH",
"561 107 OFFCURVE",
"529 98 OFFCURVE",
"501 98 CURVE SMOOTH",
"455 98 OFFCURVE",
"442 119 OFFCURVE",
"442 149 CURVE SMOOTH",
"442 169 OFFCURVE",
"652 1507 OFFCURVE",
"652 1518 CURVE SMOOTH",
"652 1542 OFFCURVE",
"637 1548 OFFCURVE",
"627 1548 CURVE SMOOTH",
"547 1548 OFFCURVE",
"364 1547 OFFCURVE",
"176 1538 CURVE SMOOTH",
"155 1537 OFFCURVE",
"142 1497 OFFCURVE",
"142 1485 CURVE SMOOTH",
"142 1414 OFFCURVE",
"310 1461 OFFCURVE",
"310 1364 CURVE SMOOTH",
"310 1360 OFFCURVE",
"155 353 OFFCURVE",
"127 180 CURVE SMOOTH"
);
}
);
width = 726;
}
);
unicode = 006C;
},
{
color = 10;
glyphname = lslash;
lastChange = "2018-07-22 16:49:59 +0000";
layers = (
{
components = (
{
name = l;
}
);
layerId = "D92FDD0B-F694-41DD-AE46-0E4F694F0F38";
paths = (
{
closed = 1;
nodes = (
"621 890 LINE",
"625 894 OFFCURVE",
"633 907 OFFCURVE",
"633 926 CURVE SMOOTH",
"633 965 OFFCURVE",
"627 1005 OFFCURVE",
"598 995 CURVE",
"27 702 LINE",
"21 696 OFFCURVE",
"18 685 OFFCURVE",
"18 673 CURVE SMOOTH",
"18 644 OFFCURVE",
"35 592 OFFCURVE",
"54 598 CURVE"
);
}
);
width = 584;
},
{
components = (
{
name = l;
}
);
layerId = "BDB4B313-38B1-4B24-B843-560B185382BD";
paths = (
{
closed = 1;
nodes = (
"739 890 LINE",
"743 894 OFFCURVE",
"751 907 OFFCURVE",
"751 926 CURVE SMOOTH",
"751 965 OFFCURVE",
"745 1005 OFFCURVE",
"716 995 CURVE",
"27 702 LINE",
"21 696 OFFCURVE",
"18 685 OFFCURVE",
"18 673 CURVE SMOOTH",
"18 644 OFFCURVE",
"35 592 OFFCURVE",
"54 598 CURVE"
);
}
);
width = 726;
}
);
unicode = 0142;
},
{
color = 10;
glyphname = m;
lastChange = "2018-07-20 19:21:28 +0000";
layers = (
{
anchors = (
{
name = bottom;
position = "{831, 0}";
},
{
name = btm;
position = "{858, -170}";
},
{
name = top;
position = "{914, 994}";
}
);
layerId = "D92FDD0B-F694-41DD-AE46-0E4F694F0F38";
paths = (
{
closed = 1;
nodes = (
"1624 786 OFFCURVE",
"1625 805 OFFCURVE",
"1625 823 CURVE SMOOTH",
"1625 981 OFFCURVE",
"1545 1014 OFFCURVE",
"1419 1014 CURVE SMOOTH",
"1276 1014 OFFCURVE",
"1107 895 OFFCURVE",
"1036 824 CURVE",
"1035 981 OFFCURVE",
"958 1014 OFFCURVE",
"828 1014 CURVE SMOOTH",
"654 1014 OFFCURVE",
"466 832 OFFCURVE",
"424 785 CURVE",
"450 957 LINE {name = hr02;}",
"454 989 OFFCURVE",
"437 997 OFFCURVE",
"426 997 CURVE SMOOTH",
"370 997 OFFCURVE",
"254 995 OFFCURVE",
"124 987 CURVE SMOOTH",
"108 986 OFFCURVE",
"94 959 OFFCURVE",
"94 943 CURVE SMOOTH",
"94 939 OFFCURVE",
"93 936 OFFCURVE",
"93 933 CURVE SMOOTH",
"93 916 OFFCURVE",
"101 908 OFFCURVE",
"112 903 CURVE",
"156 890 OFFCURVE",
"247 899 OFFCURVE",
"247 807 CURVE SMOOTH",
"247 798 OFFCURVE",
"246 789 OFFCURVE",
"244 778 CURVE SMOOTH",
"121 0 LINE",
"313 0 LINE",
"422 688 LINE",
"488 763 OFFCURVE",
"588 873 OFFCURVE",
"721 873 CURVE SMOOTH {name = hr03;}",
"823 873 OFFCURVE",
"841 816 OFFCURVE",
"841 778 CURVE SMOOTH",
"841 772 OFFCURVE",
"841 767 OFFCURVE",
"840 762 CURVE SMOOTH",
"722 0 LINE",
"916 0 LINE",
"1026 722 LINE",
"1096 792 OFFCURVE",
"1192 873 OFFCURVE",
"1309 873 CURVE SMOOTH",
"1411 873 OFFCURVE",
"1429 816 OFFCURVE",
"1429 778 CURVE SMOOTH",
"1429 772 OFFCURVE",
"1429 767 OFFCURVE",
"1428 762 CURVE SMOOTH",
"1331 142 LINE {name = hr04;}",
"1331 142 OFFCURVE",
"1329 124 OFFCURVE",
"1329 102 CURVE SMOOTH",
"1329 57 OFFCURVE",
"1335 -13 OFFCURVE",
"1451 -13 CURVE SMOOTH",
"1500 -13 OFFCURVE",
"1594 10 OFFCURVE",
"1686 41 CURVE SMOOTH",
"1704 47 OFFCURVE",
"1711 67 OFFCURVE",
"1711 83 CURVE SMOOTH {name = hr05;}",
"1711 112 OFFCURVE",
"1698 113 OFFCURVE",
"1686 113 CURVE SMOOTH",
"1666 113 OFFCURVE",
"1614 96 OFFCURVE",
"1586 96 CURVE SMOOTH",
"1540 96 OFFCURVE",
"1527 119 OFFCURVE",
"1527 151 CURVE SMOOTH",
"1527 159 OFFCURVE",
"1528 167 OFFCURVE",
"1529 175 CURVE",
"1621 766 LINE {name = hr01;}"
);
}
);
width = 1801;
},
{
anchors = (
{
name = bottom;
position = "{956, 0}";
},
{
name = btm;
position = "{742, -170}";
},
{
name = top;
position = "{1027, 994}";
}
);
layerId = "BDB4B313-38B1-4B24-B843-560B185382BD";
paths = (
{
closed = 1;
nodes = (
"1908 750 OFFCURVE",
"1909 772 OFFCURVE",
"1909 792 CURVE SMOOTH",
"1909 974 OFFCURVE",
"1776 1014 OFFCURVE",
"1629 1014 CURVE SMOOTH",
"1434 1014 OFFCURVE",
"1308 895 OFFCURVE",
"1223 824 CURVE",
"1205 976 OFFCURVE",
"1097 1014 OFFCURVE",
"948 1014 CURVE SMOOTH",
"734 1014 OFFCURVE",
"568 852 OFFCURVE",
"518 785 CURVE",
"544 957 LINE",
"548 989 OFFCURVE",
"531 997 OFFCURVE",
"520 997 CURVE SMOOTH",
"440 997 OFFCURVE",
"284 999 OFFCURVE",
"98 987 CURVE SMOOTH",
"82 986 OFFCURVE",
"68 959 OFFCURVE",
"68 943 CURVE SMOOTH",
"68 939 OFFCURVE",
"67 936 OFFCURVE",
"67 933 CURVE SMOOTH",
"67 916 OFFCURVE",
"75 908 OFFCURVE",
"86 903 CURVE",
"130 890 OFFCURVE",
"221 899 OFFCURVE",
"221 807 CURVE SMOOTH",
"221 798 OFFCURVE",
"220 789 OFFCURVE",
"218 778 CURVE SMOOTH",
"95 0 LINE",
"407 0 LINE",
"516 688 LINE",
"578 751 OFFCURVE",
"670 843 OFFCURVE",
"794 843 CURVE SMOOTH",
"890 843 OFFCURVE",
"911 783 OFFCURVE",
"911 731 CURVE SMOOTH",
"911 719 OFFCURVE",
"910 707 OFFCURVE",
"908 697 CURVE SMOOTH",
"801 0 LINE",
"1115 0 LINE",
"1223 722 LINE",
"1286 777 OFFCURVE",
"1369 843 OFFCURVE",
"1474 843 CURVE SMOOTH",
"1569 843 OFFCURVE",
"1589 782 OFFCURVE",
"1589 730 CURVE SMOOTH",
"1589 717 OFFCURVE",
"1588 705 OFFCURVE",
"1586 694 CURVE SMOOTH",
"1502 142 LINE",
"1502 142 OFFCURVE",
"1497 124 OFFCURVE",
"1497 101 CURVE SMOOTH",
"1497 53 OFFCURVE",
"1517 -17 OFFCURVE",
"1641 -13 CURVE",
"1809 -13 OFFCURVE",
"1931 41 OFFCURVE",
"1957 54 CURVE SMOOTH",
"1963 57 OFFCURVE",
"1965 67 OFFCURVE",
"1965 76 CURVE SMOOTH",
"1965 96 OFFCURVE",
"1953 119 OFFCURVE",
"1931 113 CURVE SMOOTH",
"1906 106 OFFCURVE",
"1867 100 OFFCURVE",
"1848 100 CURVE SMOOTH",
"1831 100 OFFCURVE",
"1820 115 OFFCURVE",
"1820 153 CURVE SMOOTH",
"1820 165 OFFCURVE",
"1821 179 OFFCURVE",
"1823 195 CURVE SMOOTH",
"1904 726 LINE"
);
}
);
width = 2052;
}
);
unicode = 006D;
},
{
color = 10;
glyphname = n;
lastChange = "2018-07-20 04:46:40 +0000";
layers = (
{
anchors = (
{
name = bottom;
position = "{535, 0}";
},
{
name = btm;
position = "{468, -170}";
},
{
name = top;
position = "{628, 994}";
}
);
layerId = "D92FDD0B-F694-41DD-AE46-0E4F694F0F38";
paths = (
{
closed = 1;
nodes = (
"1024 786 OFFCURVE",
"1026 804 OFFCURVE",
"1026 821 CURVE SMOOTH",
"1026 981 OFFCURVE",
"924 1014 OFFCURVE",
"818 1014 CURVE SMOOTH {name = hr02;}",
"633 1014 OFFCURVE",
"472 842 OFFCURVE",
"419 785 CURVE",
"445 957 LINE SMOOTH {name = hr03;}",
"450 989 OFFCURVE",
"432 997 OFFCURVE",
"421 997 CURVE SMOOTH",
"365 997 OFFCURVE",
"247 995 OFFCURVE",
"117 987 CURVE SMOOTH",
"101 986 OFFCURVE",
"89 959 OFFCURVE",
"87 943 CURVE SMOOTH",
"84 918 OFFCURVE",
"91 909 OFFCURVE",
"105 903 CURVE",
"149 890 OFFCURVE",
"239 899 OFFCURVE",
"239 806 CURVE SMOOTH",
"239 797 OFFCURVE",
"239 788 OFFCURVE",
"237 778 CURVE SMOOTH",
"116 0 LINE",
"308 0 LINE",
"417 689 LINE",
"483 774 OFFCURVE",
"630 874 OFFCURVE",
"740 874 CURVE SMOOTH {name = hr04;}",
"802 874 OFFCURVE",
"831 861 OFFCURVE",
"831 810 CURVE SMOOTH",
"831 802 OFFCURVE",
"831 794 OFFCURVE",
"829 784 CURVE SMOOTH",
"732 142 LINE {name = hr05;}",
"732 142 OFFCURVE",
"730 124 OFFCURVE",
"730 102 CURVE SMOOTH",
"730 57 OFFCURVE",
"736 -13 OFFCURVE",
"852 -13 CURVE SMOOTH",
"901 -13 OFFCURVE",
"995 10 OFFCURVE",
"1087 41 CURVE SMOOTH",
"1105 47 OFFCURVE",
"1112 67 OFFCURVE",
"1112 83 CURVE SMOOTH {name = hr06;}",
"1112 112 OFFCURVE",
"1099 113 OFFCURVE",
"1087 113 CURVE SMOOTH",
"1067 113 OFFCURVE",
"1015 96 OFFCURVE",
"987 96 CURVE SMOOTH",
"941 96 OFFCURVE",
"928 119 OFFCURVE",
"928 151 CURVE SMOOTH",
"928 159 OFFCURVE",
"929 167 OFFCURVE",
"930 175 CURVE",
"1022 766 LINE {name = hr01;}"
);
}
);
width = 1208;
},
{
anchors = (
{
name = bottom;
position = "{647, 0}";
},
{
name = btm;
position = "{521, -170}";
},
{
name = top;
position = "{777, 994}";
}
);
layerId = "BDB4B313-38B1-4B24-B843-560B185382BD";
paths = (
{
closed = 1;
nodes = (
"1242 744 OFFCURVE",
"1244 767 OFFCURVE",
"1244 789 CURVE SMOOTH",
"1244 961 OFFCURVE",
"1142 1014 OFFCURVE",
"1029 1014 CURVE SMOOTH",
"754 1014 OFFCURVE",
"596 842 OFFCURVE",
"533 785 CURVE",
"559 957 LINE SMOOTH",
"564 989 OFFCURVE",
"546 997 OFFCURVE",
"535 997 CURVE SMOOTH",
"455 997 OFFCURVE",
"297 999 OFFCURVE",
"111 987 CURVE SMOOTH",
"95 986 OFFCURVE",
"83 959 OFFCURVE",
"81 943 CURVE SMOOTH",
"78 918 OFFCURVE",
"85 909 OFFCURVE",
"99 903 CURVE",
"143 890 OFFCURVE",
"232 899 OFFCURVE",
"232 806 CURVE SMOOTH",
"232 798 OFFCURVE",
"232 788 OFFCURVE",
"230 778 CURVE SMOOTH",
"109 0 LINE",
"421 0 LINE",
"531 689 LINE",
"597 759 OFFCURVE",
"709 844 OFFCURVE",
"848 844 CURVE SMOOTH",
"905 844 OFFCURVE",
"927 804 OFFCURVE",
"927 744 CURVE SMOOTH",
"927 730 OFFCURVE",
"926 716 OFFCURVE",
"924 701 CURVE SMOOTH",
"841 142 LINE",
"841 142 OFFCURVE",
"836 124 OFFCURVE",
"836 101 CURVE SMOOTH",
"836 53 OFFCURVE",
"856 -17 OFFCURVE",
"980 -13 CURVE SMOOTH",
"1143 -8 OFFCURVE",
"1271 42 OFFCURVE",
"1296 54 CURVE SMOOTH",
"1302 57 OFFCURVE",
"1304 67 OFFCURVE",
"1304 76 CURVE SMOOTH",
"1304 96 OFFCURVE",
"1292 119 OFFCURVE",
"1270 113 CURVE SMOOTH",
"1245 106 OFFCURVE",
"1206 100 OFFCURVE",
"1187 100 CURVE SMOOTH",
"1170 100 OFFCURVE",
"1159 115 OFFCURVE",
"1159 155 CURVE SMOOTH",
"1159 166 OFFCURVE",
"1160 180 OFFCURVE",
"1162 195 CURVE SMOOTH",
"1239 719 LINE"
);
}
);
width = 1413;
}
);
unicode = 006E;
},
{
color = 10;
glyphname = eng;
lastChange = "2018-07-23 01:50:10 +0000";
layers = (
{
anchors = (
{
name = btm;
position = "{514, -170}";
},
{
name = top;
position = "{514, 1700}";
}
);
background = {
paths = (
{
closed = 1;
nodes = (
"1024 786 OFFCURVE",
"1026 804 OFFCURVE",
"1026 821 CURVE SMOOTH",
"1026 981 OFFCURVE",
"924 1014 OFFCURVE",
"818 1014 CURVE SMOOTH {name = hr02;}",
"633 1014 OFFCURVE",
"472 842 OFFCURVE",
"419 785 CURVE",
"445 957 LINE SMOOTH {name = hr03;}",
"450 989 OFFCURVE",
"432 997 OFFCURVE",
"421 997 CURVE SMOOTH",
"365 997 OFFCURVE",
"247 995 OFFCURVE",
"117 987 CURVE SMOOTH",
"101 986 OFFCURVE",
"89 959 OFFCURVE",
"87 943 CURVE SMOOTH",
"84 918 OFFCURVE",
"91 909 OFFCURVE",
"105 903 CURVE",
"149 890 OFFCURVE",
"239 899 OFFCURVE",
"239 806 CURVE SMOOTH",
"239 797 OFFCURVE",
"239 788 OFFCURVE",
"237 778 CURVE SMOOTH",
"116 0 LINE",
"308 0 LINE",
"417 689 LINE",
"483 774 OFFCURVE",
"630 874 OFFCURVE",
"740 874 CURVE SMOOTH {name = hr04;}",
"802 874 OFFCURVE",
"831 861 OFFCURVE",
"831 810 CURVE SMOOTH",
"831 802 OFFCURVE",
"831 794 OFFCURVE",
"829 784 CURVE SMOOTH",
"732 142 LINE {name = hr05;}",
"732 142 OFFCURVE",
"730 124 OFFCURVE",
"730 102 CURVE SMOOTH",
"730 57 OFFCURVE",
"736 -13 OFFCURVE",
"852 -13 CURVE SMOOTH",
"901 -13 OFFCURVE",
"995 10 OFFCURVE",
"1087 41 CURVE SMOOTH",
"1105 47 OFFCURVE",
"1112 67 OFFCURVE",
"1112 83 CURVE SMOOTH {name = hr06;}",
"1112 112 OFFCURVE",
"1099 113 OFFCURVE",
"1087 113 CURVE SMOOTH",
"1067 113 OFFCURVE",
"1015 96 OFFCURVE",
"987 96 CURVE SMOOTH",
"941 96 OFFCURVE",
"928 119 OFFCURVE",
"928 151 CURVE SMOOTH",
"928 159 OFFCURVE",
"929 167 OFFCURVE",
"930 175 CURVE",
"1022 766 LINE {name = hr01;}"
);
}
);
};
layerId = "D92FDD0B-F694-41DD-AE46-0E4F694F0F38";
paths = (
{
closed = 1;
nodes = (
"718 -449 OFFCURVE",
"891 -186 OFFCURVE",
"934 88 CURVE SMOOTH",
"1041 763 LINE SMOOTH",
"1045 786 OFFCURVE",
"1046 807 OFFCURVE",
"1046 826 CURVE SMOOTH",
"1046 979 OFFCURVE",
"931 1014 OFFCURVE",
"816 1014 CURVE SMOOTH",
"631 1014 OFFCURVE",
"473 842 OFFCURVE",
"420 785 CURVE",
"446 957 LINE {name = hr03;}",
"450 989 OFFCURVE",
"433 997 OFFCURVE",
"422 997 CURVE SMOOTH",
"366 997 OFFCURVE",
"248 995 OFFCURVE",
"118 987 CURVE SMOOTH",
"102 986 OFFCURVE",
"90 959 OFFCURVE",
"88 943 CURVE SMOOTH",
"85 918 OFFCURVE",
"92 909 OFFCURVE",
"106 903 CURVE",
"150 890 OFFCURVE",
"240 899 OFFCURVE",
"240 806 CURVE SMOOTH",
"240 797 OFFCURVE",
"240 788 OFFCURVE",
"238 778 CURVE",
"115 0 LINE",
"307 0 LINE",
"418 689 LINE",
"484 774 OFFCURVE",
"633 874 OFFCURVE",
"738 874 CURVE SMOOTH {name = hr03;}",
"814 874 OFFCURVE",
"847 861 OFFCURVE",
"847 792 CURVE SMOOTH",
"847 776 OFFCURVE",
"845 758 OFFCURVE",
"842 736 CURVE SMOOTH",
"738 56 LINE SMOOTH {name = hr01;}",
"681 -317 OFFCURVE",
"600 -345 OFFCURVE",
"523 -347 CURVE",
"471 -202 LINE",
"464 -185 OFFCURVE",
"448 -178 OFFCURVE",
"420 -178 CURVE SMOOTH",
"365 -178 OFFCURVE",
"320 -224 OFFCURVE",
"308 -285 CURVE SMOOTH",
"307 -290 OFFCURVE",
"307 -295 OFFCURVE",
"307 -300 CURVE SMOOTH",
"307 -367 OFFCURVE",
"362 -449 OFFCURVE",
"480 -449 CURVE SMOOTH"
);
}
);
width = 1184;
},
{
anchors = (
{
name = btm;
position = "{414, -170}";
},
{
name = top;
position = "{414, 1700}";
}
);
background = {
paths = (
{
closed = 1;
nodes = (
"1242 744 OFFCURVE",
"1244 767 OFFCURVE",
"1244 789 CURVE SMOOTH",
"1244 961 OFFCURVE",
"1142 1014 OFFCURVE",
"1029 1014 CURVE SMOOTH",
"754 1014 OFFCURVE",
"596 842 OFFCURVE",
"533 785 CURVE",
"559 957 LINE SMOOTH",
"564 989 OFFCURVE",
"546 997 OFFCURVE",
"535 997 CURVE SMOOTH",
"455 997 OFFCURVE",
"297 999 OFFCURVE",
"111 987 CURVE SMOOTH",
"95 986 OFFCURVE",
"83 959 OFFCURVE",
"81 943 CURVE SMOOTH",
"78 918 OFFCURVE",
"85 909 OFFCURVE",
"99 903 CURVE",
"143 890 OFFCURVE",
"232 899 OFFCURVE",
"232 806 CURVE SMOOTH",
"232 798 OFFCURVE",
"232 788 OFFCURVE",
"230 778 CURVE SMOOTH",
"109 0 LINE",
"421 0 LINE",
"531 689 LINE",
"597 759 OFFCURVE",
"709 844 OFFCURVE",
"848 844 CURVE SMOOTH",
"905 844 OFFCURVE",
"927 804 OFFCURVE",
"927 744 CURVE SMOOTH",
"927 730 OFFCURVE",
"926 716 OFFCURVE",
"924 701 CURVE SMOOTH",
"841 142 LINE",
"841 142 OFFCURVE",
"836 124 OFFCURVE",
"836 101 CURVE SMOOTH",
"836 53 OFFCURVE",
"856 -17 OFFCURVE",
"980 -13 CURVE SMOOTH",
"1143 -8 OFFCURVE",
"1271 42 OFFCURVE",
"1296 54 CURVE SMOOTH",
"1302 57 OFFCURVE",
"1304 67 OFFCURVE",
"1304 76 CURVE SMOOTH",
"1304 96 OFFCURVE",
"1292 119 OFFCURVE",
"1270 113 CURVE SMOOTH",
"1245 106 OFFCURVE",
"1206 100 OFFCURVE",
"1187 100 CURVE SMOOTH",
"1170 100 OFFCURVE",
"1159 115 OFFCURVE",
"1159 155 CURVE SMOOTH",
"1159 166 OFFCURVE",
"1160 180 OFFCURVE",
"1162 195 CURVE SMOOTH",
"1239 719 LINE"
);
}
);
};
layerId = "BDB4B313-38B1-4B24-B843-560B185382BD";
paths = (
{
closed = 1;
nodes = (
"996 -448 OFFCURVE",
"1118 -185 OFFCURVE",
"1159 90 CURVE SMOOTH",
"1251 714 LINE SMOOTH",
"1255 741 OFFCURVE",
"1257 766 OFFCURVE",
"1257 789 CURVE SMOOTH",
"1257 957 OFFCURVE",
"1141 1014 OFFCURVE",
"1029 1014 CURVE SMOOTH",
"759 1014 OFFCURVE",
"596 842 OFFCURVE",
"534 785 CURVE",
"560 957 LINE",
"564 989 OFFCURVE",
"547 997 OFFCURVE",
"536 997 CURVE SMOOTH",
"456 997 OFFCURVE",
"297 999 OFFCURVE",
"111 987 CURVE SMOOTH",
"95 986 OFFCURVE",
"83 959 OFFCURVE",
"81 943 CURVE SMOOTH",
"78 918 OFFCURVE",
"85 909 OFFCURVE",
"99 903 CURVE",
"143 890 OFFCURVE",
"233 899 OFFCURVE",
"233 806 CURVE SMOOTH",
"233 797 OFFCURVE",
"233 788 OFFCURVE",
"231 778 CURVE",
"109 0 LINE",
"422 0 LINE",
"532 689 LINE",
"596 759 OFFCURVE",
"712 844 OFFCURVE",
"848 844 CURVE SMOOTH",
"897 844 OFFCURVE",
"941 814 OFFCURVE",
"941 745 CURVE SMOOTH",
"941 732 OFFCURVE",
"940 718 OFFCURVE",
"938 702 CURVE SMOOTH",
"842 58 LINE SMOOTH",
"790 -293 OFFCURVE",
"714 -346 OFFCURVE",
"648 -346 CURVE",
"563 -144 LINE",
"556 -122 OFFCURVE",
"533 -115 OFFCURVE",
"495 -115 CURVE SMOOTH",
"406 -115 OFFCURVE",
"363 -180 OFFCURVE",
"348 -253 CURVE SMOOTH",
"347 -258 OFFCURVE",
"347 -263 OFFCURVE",
"347 -268 CURVE SMOOTH",
"347 -348 OFFCURVE",
"433 -448 OFFCURVE",
"595 -448 CURVE SMOOTH"
);
}
);
width = 1388;
}
);
unicode = 014B;
},
{
color = 10;
glyphname = o;
lastChange = "2018-07-22 17:28:23 +0000";
layers = (
{
anchors = (
{
name = bottom;
position = "{494, 0}";
},
{
name = center;
position = "{568, 497}";
},
{
name = ogonek;
position = "{940, 10}";
},
{
name = top;
position = "{617, 994}";
},
{
name = topright;
position = "{1168, 994}";
}
);
layerId = "D92FDD0B-F694-41DD-AE46-0E4F694F0F38";
paths = (
{
closed = 1;
nodes = (
"93 164 OFFCURVE",
"217 -28 OFFCURVE",
"490 -28 CURVE SMOOTH",
"811 -28 OFFCURVE",
"1006 245 OFFCURVE",
"1006 568 CURVE SMOOTH",
"1006 821 OFFCURVE",
"892 1014 OFFCURVE",
"613 1014 CURVE SMOOTH",
"295 1014 OFFCURVE",
"93 714 OFFCURVE",
"93 424 CURVE SMOOTH {name = hr00;}"
);
},
{
closed = 1;
nodes = (
"340 59 OFFCURVE",
"306 190 OFFCURVE",
"306 376 CURVE SMOOTH",
"306 640 OFFCURVE",
"387 926 OFFCURVE",
"612 926 CURVE SMOOTH",
"758 926 OFFCURVE",
"790 800 OFFCURVE",
"790 617 CURVE SMOOTH",
"790 347 OFFCURVE",
"710 59 OFFCURVE",
"486 59 CURVE SMOOTH"
);
}
);
width = 1100;
},
{
anchors = (
{
name = bottom;
position = "{582, 0}";
},
{
name = center;
position = "{661, 497}";
},
{
name = ogonek;
position = "{1114, 10}";
},
{
name = top;
position = "{710, 994}";
},
{
name = topright;
position = "{1362, 994}";
}
);
layerId = "BDB4B313-38B1-4B24-B843-560B185382BD";
paths = (
{
closed = 1;
nodes = (
"91 151 OFFCURVE",
"237 -28 OFFCURVE",
"605 -28 CURVE SMOOTH",
"998 -28 OFFCURVE",
"1217 240 OFFCURVE",
"1217 546 CURVE SMOOTH",
"1217 826 OFFCURVE",
"1071 1014 OFFCURVE",
"688 1014 CURVE SMOOTH",
"286 1014 OFFCURVE",
"77 705 OFFCURVE",
"84 421 CURVE SMOOTH"
);
},
{
closed = 1;
nodes = (
"458 59 OFFCURVE",
"420 185 OFFCURVE",
"420 364 CURVE SMOOTH",
"420 634 OFFCURVE",
"496 926 OFFCURVE",
"690 926 CURVE SMOOTH",
"834 926 OFFCURVE",
"877 800 OFFCURVE",
"877 616 CURVE SMOOTH",
"877 346 OFFCURVE",
"799 59 OFFCURVE",
"599 59 CURVE SMOOTH"
);
}
);
width = 1302;
}
);
unicode = 006F;
},
{
color = 10;
glyphname = ohorn;
lastChange = "2018-07-22 17:30:58 +0000";
layers = (
{
components = (
{
name = o;
}
);
layerId = "D92FDD0B-F694-41DD-AE46-0E4F694F0F38";
paths = (
{
closed = 1;
nodes = (
"878 890 LINE",
"987 890 OFFCURVE",
"1177 1011 OFFCURVE",
"1187 1216 CURVE SMOOTH",
"1188 1231 OFFCURVE",
"1185 1246 OFFCURVE",
"1182 1263 CURVE",
"1009 1263 LINE",
"1010 1254 OFFCURVE",
"1010 1242 OFFCURVE",
"1010 1227 CURVE SMOOTH",
"1010 1095 OFFCURVE",
"902 962 OFFCURVE",
"743 962 CURVE"
);
}
);
width = 1100;
},
{
components = (
{
name = o;
}
);
layerId = "BDB4B313-38B1-4B24-B843-560B185382BD";
paths = (
{
closed = 1;
nodes = (
"1055 895 LINE",
"1114 895 OFFCURVE",
"1399 972 OFFCURVE",
"1399 1208 CURVE SMOOTH",
"1399 1226 OFFCURVE",
"1396 1298 OFFCURVE",
"1393 1319 CURVE",
"1177 1319 LINE",
"1179 1308 OFFCURVE",
"1179 1293 OFFCURVE",
"1179 1275 CURVE SMOOTH",
"1179 1147 OFFCURVE",
"1067 962 OFFCURVE",
"851 962 CURVE"
);
}
);
width = 1302;
}
);
unicode = 01A1;
},
{
color = 10;
glyphname = oslash;
lastChange = "2018-07-21 15:13:41 +0000";
layers = (
{
components = (
{
name = o;
}
);
layerId = "D92FDD0B-F694-41DD-AE46-0E4F694F0F38";
paths = (
{
closed = 1;
nodes = (
"980 1108 OFFCURVE",
"943 1149 OFFCURVE",
"915 1149 CURVE SMOOTH",
"907 1149 OFFCURVE",
"900 1147 OFFCURVE",
"895 1140 CURVE",
"110 -107 LINE",
"107 -131 OFFCURVE",
"141 -164 OFFCURVE",
"175 -164 CURVE SMOOTH",
"182 -164 OFFCURVE",
"189 -162 OFFCURVE",
"192 -157 CURVE SMOOTH",
"978 1090 LINE"
);
}
);
width = 1100;
},
{
components = (
{
name = o;
}
);
layerId = "BDB4B313-38B1-4B24-B843-560B185382BD";
paths = (
{
closed = 1;
nodes = (
"1092 1108 OFFCURVE",
"1055 1149 OFFCURVE",
"1027 1149 CURVE SMOOTH",
"1019 1149 OFFCURVE",
"1012 1147 OFFCURVE",
"1007 1140 CURVE",
"222 -107 LINE",
"219 -131 OFFCURVE",
"253 -164 OFFCURVE",
"287 -164 CURVE SMOOTH",
"294 -164 OFFCURVE",
"300 -162 OFFCURVE",
"304 -157 CURVE SMOOTH",
"1090 1090 LINE"
);
}
);
width = 1302;
}
);
unicode = 00F8;
},
{
color = 10;
glyphname = oe;
lastChange = "2018-07-20 19:32:12 +0000";
layers = (
{
anchors = (
{
name = top;
position = "{958, 986}";
}
);
layerId = "D92FDD0B-F694-41DD-AE46-0E4F694F0F38";
paths = (
{
closed = 1;
nodes = (
"614 -28 OFFCURVE",
"723 36 OFFCURVE",
"808 140 CURVE",
"876 34 OFFCURVE",
"997 -29 OFFCURVE",
"1163 -29 CURVE SMOOTH {name = hr02;}",
"1329 -29 OFFCURVE",
"1445 50 OFFCURVE",
"1534 164 CURVE",
"1537 170 OFFCURVE",
"1545 176 OFFCURVE",
"1545 183 CURVE SMOOTH",
"1545 186 OFFCURVE",
"1544 189 OFFCURVE",
"1540 192 CURVE SMOOTH",
"1503 225 LINE",
"1492 231 OFFCURVE",
"1492 223 OFFCURVE",
"1481 215 CURVE",
"1389 124 OFFCURVE",
"1308 75 OFFCURVE",
"1194 75 CURVE SMOOTH",
"1070 75 OFFCURVE",
"962 154 OFFCURVE",
"962 362 CURVE SMOOTH",
"962 378 OFFCURVE",
"962 394 OFFCURVE",
"963 409 CURVE",
"1396 454 OFFCURVE",
"1611 611 OFFCURVE",
"1611 804 CURVE SMOOTH",
"1611 898 OFFCURVE",
"1547 1014 OFFCURVE",
"1331 1014 CURVE SMOOTH",
"1163 1014 OFFCURVE",
"1013 933 OFFCURVE",
"922 794 CURVE",
"895 930 OFFCURVE",
"770 1014 OFFCURVE",
"622 1014 CURVE SMOOTH",
"276 1014 OFFCURVE",
"76 709 OFFCURVE",
"76 414 CURVE SMOOTH {name = hr01;}",
"76 155 OFFCURVE",
"215 -28 OFFCURVE",
"459 -28 CURVE SMOOTH"
);
},
{
closed = 1;
nodes = (
"1004 770 OFFCURVE",
"1158 933 OFFCURVE",
"1325 933 CURVE SMOOTH {name = hr04;}",
"1376 933 OFFCURVE",
"1424 901 OFFCURVE",
"1424 838 CURVE SMOOTH",
"1424 660 OFFCURVE",
"1293 536 OFFCURVE",
"968 486 CURVE"
);
},
{
closed = 1;
nodes = (
"321 59 OFFCURVE",
"287 185 OFFCURVE",
"287 365 CURVE SMOOTH",
"287 635 OFFCURVE",
"375 926 OFFCURVE",
"624 926 CURVE SMOOTH {name = hr05;}",
"707 926 OFFCURVE",
"773 840 OFFCURVE",
"773 701 CURVE SMOOTH",
"773 396 OFFCURVE",
"663 59 OFFCURVE",
"453 59 CURVE SMOOTH"
);
}
);
width = 1690;
},
{
anchors = (
{
name = top;
position = "{1100, 994}";
}
);
layerId = "BDB4B313-38B1-4B24-B843-560B185382BD";
paths = (
{
closed = 1;
nodes = (
"745 -28 OFFCURVE",
"876 17 OFFCURVE",
"972 93 CURVE",
"1053 15 OFFCURVE",
"1174 -29 OFFCURVE",
"1327 -29 CURVE SMOOTH",
"1564 -29 OFFCURVE",
"1681 50 OFFCURVE",
"1818 164 CURVE",
"1821 170 OFFCURVE",
"1829 176 OFFCURVE",
"1829 183 CURVE SMOOTH",
"1829 186 OFFCURVE",
"1828 189 OFFCURVE",
"1824 192 CURVE",
"1787 225 LINE",
"1778 231 OFFCURVE",
"1772 223 OFFCURVE",
"1765 215 CURVE",
"1655 143 OFFCURVE",
"1556 105 OFFCURVE",
"1418 105 CURVE SMOOTH",
"1305 105 OFFCURVE",
"1195 173 OFFCURVE",
"1195 360 CURVE SMOOTH",
"1195 376 OFFCURVE",
"1195 392 OFFCURVE",
"1196 407 CURVE",
"1632 465 OFFCURVE",
"1854 558 OFFCURVE",
"1854 781 CURVE SMOOTH",
"1854 875 OFFCURVE",
"1771 1014 OFFCURVE",
"1495 1014 CURVE SMOOTH",
"1337 1014 OFFCURVE",
"1190 957 OFFCURVE",
"1078 861 CURVE",
"1000 957 OFFCURVE",
"868 1014 OFFCURVE",
"663 1014 CURVE SMOOTH",
"281 1014 OFFCURVE",
"69 724 OFFCURVE",
"69 445 CURVE SMOOTH",
"69 168 OFFCURVE",
"220 -28 OFFCURVE",
"580 -28 CURVE SMOOTH"
);
},
{
closed = 1;
nodes = (
"1226 768 OFFCURVE",
"1332 933 OFFCURVE",
"1449 933 CURVE SMOOTH",
"1534 933 OFFCURVE",
"1553 871 OFFCURVE",
"1553 808 CURVE SMOOTH",
"1553 630 OFFCURVE",
"1428 534 OFFCURVE",
"1201 484 CURVE"
);
},
{
closed = 1;
nodes = (
"448 59 OFFCURVE",
"415 169 OFFCURVE",
"415 349 CURVE SMOOTH",
"415 618 OFFCURVE",
"485 926 OFFCURVE",
"665 926 CURVE SMOOTH",
"809 926 OFFCURVE",
"852 827 OFFCURVE",
"852 643 CURVE SMOOTH",
"852 373 OFFCURVE",
"774 59 OFFCURVE",
"574 59 CURVE SMOOTH"
);
}
);
width = 1910;
}
);
unicode = 0153;
},
{
color = 10;
glyphname = p;
lastChange = "2018-07-20 19:28:32 +0000";
layers = (
{
anchors = (
{
name = bottom;
position = "{522, 0}";
},
{
name = top;
position = "{706, 994}";
}
);
layerId = "D92FDD0B-F694-41DD-AE46-0E4F694F0F38";
paths = (
{
closed = 1;
nodes = (
"424 -444 LINE SMOOTH",
"442 -444 OFFCURVE",
"465 -430 OFFCURVE",
"465 -393 CURVE SMOOTH",
"465 -378 OFFCURVE",
"458 -368 OFFCURVE",
"436 -366 CURVE SMOOTH",
"358 -359 OFFCURVE",
"257 -346 OFFCURVE",
"263 -302 CURVE",
"299 -108 LINE",
"315 14 LINE",
"371 -13 OFFCURVE",
"446 -30 OFFCURVE",
"550 -30 CURVE SMOOTH",
"852 -30 OFFCURVE",
"1062 283 OFFCURVE",
"1062 618 CURVE SMOOTH",
"1062 833 OFFCURVE",
"989 1013 OFFCURVE",
"747 1013 CURVE SMOOTH",
"652 1013 OFFCURVE",
"507 956 OFFCURVE",
"419 810 CURVE",
"442 967 LINE",
"442 991 OFFCURVE",
"427 997 OFFCURVE",
"417 997 CURVE SMOOTH",
"361 997 OFFCURVE",
"245 995 OFFCURVE",
"115 987 CURVE SMOOTH",
"99 986 OFFCURVE",
"87 959 OFFCURVE",
"85 943 CURVE",
"83 918 OFFCURVE",
"89 908 OFFCURVE",
"103 903 CURVE SMOOTH",
"146 888 OFFCURVE",
"237 900 OFFCURVE",
"237 804 CURVE SMOOTH",
"237 796 OFFCURVE",
"236 787 OFFCURVE",
"235 778 CURVE SMOOTH",
"83 -269 LINE SMOOTH",
"71 -355 OFFCURVE",
"-3 -360 OFFCURVE",
"-53 -366 CURVE SMOOTH",
"-80 -369 OFFCURVE",
"-93 -378 OFFCURVE",
"-93 -403 CURVE SMOOTH",
"-93 -418 OFFCURVE",
"-87 -444 OFFCURVE",
"-66 -444 CURVE SMOOTH"
);
},
{
closed = 1;
nodes = (
"462 65 OFFCURVE",
"380 100 OFFCURVE",
"340 159 CURVE",
"414 704 LINE",
"476 799 OFFCURVE",
"604 895 OFFCURVE",
"691 895 CURVE SMOOTH {name = hr03;}",
"826 895 OFFCURVE",
"858 767 OFFCURVE",
"858 631 CURVE SMOOTH",
"858 419 OFFCURVE",
"794 65 OFFCURVE",
"547 65 CURVE SMOOTH"
);
}
);
width = 1184;
},
{
anchors = (
{
name = bottom;
position = "{609, 0}";
},
{
name = top;
position = "{805, 994}";
}
);
layerId = "BDB4B313-38B1-4B24-B843-560B185382BD";
paths = (
{
closed = 1;
nodes = (
"528 -444 LINE SMOOTH",
"560 -444 OFFCURVE",
"569 -403 OFFCURVE",
"569 -393 CURVE SMOOTH",
"569 -378 OFFCURVE",
"562 -368 OFFCURVE",
"540 -366 CURVE SMOOTH",
"464 -359 OFFCURVE",
"373 -347 OFFCURVE",
"373 -306 CURVE",
"400 -108 LINE",
"408 -7 LINE",
"473 -21 OFFCURVE",
"544 -30 OFFCURVE",
"613 -30 CURVE SMOOTH",
"1044 -30 OFFCURVE",
"1261 309 OFFCURVE",
"1261 618 CURVE SMOOTH",
"1261 815 OFFCURVE",
"1162 1013 OFFCURVE",
"894 1013 CURVE SMOOTH",
"773 1013 OFFCURVE",
"624 952 OFFCURVE",
"523 815 CURVE",
"546 967 LINE",
"546 991 OFFCURVE",
"531 997 OFFCURVE",
"521 997 CURVE SMOOTH",
"441 997 OFFCURVE",
"285 995 OFFCURVE",
"99 987 CURVE SMOOTH",
"77 986 OFFCURVE",
"68 944 OFFCURVE",
"68 933 CURVE SMOOTH",
"68 912 OFFCURVE",
"82 904 OFFCURVE",
"101 899 CURVE SMOOTH",
"146 887 OFFCURVE",
"221 892 OFFCURVE",
"221 804 CURVE SMOOTH",
"221 796 OFFCURVE",
"220 787 OFFCURVE",
"219 778 CURVE SMOOTH",
"67 -269 LINE SMOOTH",
"55 -355 OFFCURVE",
"-19 -360 OFFCURVE",
"-69 -366 CURVE SMOOTH",
"-95 -369 OFFCURVE",
"-109 -374 OFFCURVE",
"-109 -408 CURVE SMOOTH",
"-109 -423 OFFCURVE",
"-101 -444 OFFCURVE",
"-82 -444 CURVE SMOOTH"
);
},
{
closed = 1;
nodes = (
"511 65 OFFCURVE",
"432 113 OFFCURVE",
"429 144 CURVE",
"521 719 LINE",
"571 787 OFFCURVE",
"672 865 OFFCURVE",
"764 865 CURVE SMOOTH",
"877 865 OFFCURVE",
"914 773 OFFCURVE",
"914 627 CURVE SMOOTH",
"914 327 OFFCURVE",
"807 65 OFFCURVE",
"590 65 CURVE SMOOTH"
);
}
);
width = 1357;
}
);
unicode = 0070;
},
{
color = 10;
glyphname = thorn;
lastChange = "2018-07-23 01:44:57 +0000";
layers = (
{
anchors = (
{
name = btm;
position = "{520, -170}";
},
{
name = top;
position = "{520, 1700}";
}
);
components = (
{
name = b;
transform = "{1, 0, 0, 1, -3, 0}";
}
);
layerId = "D92FDD0B-F694-41DD-AE46-0E4F694F0F38";
paths = (
{
closed = 1;
nodes = (
"220 149 LINE",
"89 126 LINE",
"4 -443 LINE",
"180 -444 LINE",
"229 -117 LINE",
"244 34 LINE {name = hr00;}"
);
}
);
width = 1132;
},
{
anchors = (
{
name = btm;
position = "{309, -170}";
},
{
name = top;
position = "{309, 1700}";
}
);
components = (
{
name = b;
transform = "{1, 0, 0, 1, -3, 0}";
}
);
layerId = "BDB4B313-38B1-4B24-B843-560B185382BD";
paths = (
{
closed = 1;
nodes = (
"5 -443 LINE",
"300 -444 LINE",
"348 -117 LINE",
"358 27 LINE",
"262 251 LINE",
"86 126 LINE"
);
}
);
width = 1326;
}
);
unicode = 00FE;
},
{
color = 10;
glyphname = q;
lastChange = "2018-07-20 19:36:30 +0000";
layers = (
{
anchors = (
{
name = bottom;
position = "{407, 0}";
},
{
name = top;
position = "{661, 994}";
}
);
layerId = "D92FDD0B-F694-41DD-AE46-0E4F694F0F38";
paths = (
{
closed = 1;
nodes = (
"925 -444 LINE SMOOTH",
"946 -444 OFFCURVE",
"966 -427 OFFCURVE",
"966 -396 CURVE SMOOTH",
"966 -378 OFFCURVE",
"957 -368 OFFCURVE",
"934 -366 CURVE SMOOTH",
"888 -362 OFFCURVE",
"843 -356 OFFCURVE",
"843 -296 CURVE",
"1040 994 LINE",
"1043 1016 OFFCURVE",
"1028 1028 OFFCURVE",
"1007 1028 CURVE SMOOTH",
"992 1028 OFFCURVE",
"974 1022 OFFCURVE",
"959 1007 CURVE SMOOTH",
"948 996 OFFCURVE",
"908 964 OFFCURVE",
"876 937 CURVE",
"815 983 OFFCURVE",
"766 1013 OFFCURVE",
"626 1013 CURVE SMOOTH",
"324 1013 OFFCURVE",
"77 710 OFFCURVE",
"77 375 CURVE SMOOTH",
"77 160 OFFCURVE",
"150 -30 OFFCURVE",
"392 -30 CURVE SMOOTH",
"486 -30 OFFCURVE",
"644 28 OFFCURVE",
"737 197 CURVE",
"703 -29 LINE",
"657 -302 LINE SMOOTH",
"650 -346 OFFCURVE",
"595 -360 OFFCURVE",
"520 -366 CURVE SMOOTH",
"494 -368 OFFCURVE",
"482 -382 OFFCURVE",
"482 -403 CURVE SMOOTH",
"482 -418 OFFCURVE",
"487 -444 OFFCURVE",
"510 -444 CURVE SMOOTH"
);
},
{
closed = 1;
nodes = (
"313 88 OFFCURVE",
"281 226 OFFCURVE",
"281 362 CURVE SMOOTH",
"281 574 OFFCURVE",
"372 918 OFFCURVE",
"619 918 CURVE SMOOTH",
"722 918 OFFCURVE",
"793 867 OFFCURVE",
"818 784 CURVE",
"747 310 LINE",
"683 200 OFFCURVE",
"538 88 OFFCURVE",
"448 88 CURVE SMOOTH"
);
}
);
width = 1137;
},
{
anchors = (
{
name = bottom;
position = "{493, 0}";
},
{
name = top;
position = "{770, 994}";
}
);
layerId = "BDB4B313-38B1-4B24-B843-560B185382BD";
paths = (
{
closed = 1;
nodes = (
"1197 -444 LINE SMOOTH",
"1218 -444 OFFCURVE",
"1238 -426 OFFCURVE",
"1238 -396 CURVE SMOOTH",
"1238 -378 OFFCURVE",
"1229 -368 OFFCURVE",
"1206 -366 CURVE SMOOTH",
"1148 -361 OFFCURVE",
"1077 -356 OFFCURVE",
"1077 -292 CURVE",
"1261 989 LINE",
"1261 1011 OFFCURVE",
"1247 1028 OFFCURVE",
"1227 1028 CURVE SMOOTH",
"1204 1028 OFFCURVE",
"1121 997 OFFCURVE",
"1108 994 CURVE SMOOTH",
"1070 985 OFFCURVE",
"1045 972 OFFCURVE",
"984 951 CURVE",
"904 998 OFFCURVE",
"841 1015 OFFCURVE",
"739 1015 CURVE SMOOTH",
"350 1015 OFFCURVE",
"81 722 OFFCURVE",
"81 383 CURVE SMOOTH",
"81 164 OFFCURVE",
"193 -28 OFFCURVE",
"466 -28 CURVE SMOOTH",
"584 -28 OFFCURVE",
"700 18 OFFCURVE",
"829 146 CURVE",
"804 -29 LINE",
"763 -302 LINE SMOOTH",
"756 -346 OFFCURVE",
"678 -358 OFFCURVE",
"611 -366 CURVE SMOOTH",
"585 -369 OFFCURVE",
"573 -382 OFFCURVE",
"573 -403 CURVE SMOOTH",
"573 -418 OFFCURVE",
"578 -444 OFFCURVE",
"601 -444 CURVE SMOOTH"
);
},
{
closed = 1;
nodes = (
"530 120 OFFCURVE",
"428 136 OFFCURVE",
"428 376 CURVE SMOOTH",
"428 638 OFFCURVE",
"535 920 OFFCURVE",
"760 920 CURVE SMOOTH",
"871 920 OFFCURVE",
"914 840 OFFCURVE",
"928 802 CURVE",
"846 279 LINE",
"799 210 OFFCURVE",
"697 120 OFFCURVE",
"592 120 CURVE SMOOTH"
);
}
);
width = 1331;
}
);
unicode = 0071;
},
{
color = 10;
glyphname = r;
lastChange = "2018-07-21 04:14:48 +0000";
layers = (
{
anchors = (
{
name = bottom;
position = "{209, 0}";
},
{
name = top;
position = "{593, 994}";
}
);
layerId = "D92FDD0B-F694-41DD-AE46-0E4F694F0F38";
paths = (
{
closed = 1;
nodes = (
"438 908 OFFCURVE",
"444 967 OFFCURVE",
"444 967 CURVE SMOOTH",
"444 991 OFFCURVE",
"429 997 OFFCURVE",
"419 997 CURVE SMOOTH",
"363 997 OFFCURVE",
"247 995 OFFCURVE",
"117 987 CURVE SMOOTH",
"101 986 OFFCURVE",
"86 959 OFFCURVE",
"86 933 CURVE SMOOTH",
"86 916 OFFCURVE",
"94 908 OFFCURVE",
"105 903 CURVE",
"149 890 OFFCURVE",
"240 899 OFFCURVE",
"240 807 CURVE SMOOTH",
"240 798 OFFCURVE",
"239 789 OFFCURVE",
"237 778 CURVE SMOOTH",
"114 0 LINE",
"306 0 LINE",
"413 661 LINE",
"475 743 OFFCURVE",
"627 876 OFFCURVE",
"707 876 CURVE {name = hr02;}",
"773 681 LINE",
"781 675 OFFCURVE",
"789 671 OFFCURVE",
"799 671 CURVE SMOOTH",
"893 671 OFFCURVE",
"934 793 OFFCURVE",
"934 869 CURVE SMOOTH",
"934 953 OFFCURVE",
"880 1014 OFFCURVE",
"769 1014 CURVE SMOOTH",
"596 1014 OFFCURVE",
"468 822 OFFCURVE",
"423 767 CURVE"
);
}
);
width = 945;
},
{
anchors = (
{
name = bottom;
position = "{286, 0}";
},
{
name = top;
position = "{699, 994}";
}
);
layerId = "BDB4B313-38B1-4B24-B843-560B185382BD";
paths = (
{
closed = 1;
nodes = (
"568 919 OFFCURVE",
"572 967 OFFCURVE",
"572 967 CURVE SMOOTH",
"572 991 OFFCURVE",
"557 997 OFFCURVE",
"547 997 CURVE SMOOTH",
"467 997 OFFCURVE",
"321 999 OFFCURVE",
"135 987 CURVE SMOOTH",
"119 986 OFFCURVE",
"104 959 OFFCURVE",
"104 933 CURVE SMOOTH",
"104 916 OFFCURVE",
"112 908 OFFCURVE",
"123 903 CURVE",
"167 890 OFFCURVE",
"258 899 OFFCURVE",
"258 807 CURVE SMOOTH",
"258 798 OFFCURVE",
"257 789 OFFCURVE",
"255 778 CURVE SMOOTH",
"132 0 LINE",
"444 0 LINE",
"558 721 LINE",
"605 763 OFFCURVE",
"699 820 OFFCURVE",
"779 820 CURVE",
"833 614 LINE",
"842 608 OFFCURVE",
"865 600 OFFCURVE",
"891 600 CURVE SMOOTH",
"1021 600 OFFCURVE",
"1093 716 OFFCURVE",
"1093 845 CURVE SMOOTH",
"1093 944 OFFCURVE",
"1039 1014 OFFCURVE",
"919 1014 CURVE SMOOTH",
"761 1014 OFFCURVE",
"619 885 OFFCURVE",
"558 811 CURVE"
);
}
);
width = 1093;
}
);
unicode = 0072;
},
{
color = 10;
glyphname = s;
lastChange = "2018-07-21 03:54:23 +0000";
layers = (
{
anchors = (
{
name = bottom;
position = "{375, 0}";
},
{
name = top;
position = "{505, 994}";
}
);
layerId = "D92FDD0B-F694-41DD-AE46-0E4F694F0F38";
paths = (
{
closed = 1;
nodes = (
"567 -28 OFFCURVE",
"751 63 OFFCURVE",
"751 271 CURVE SMOOTH",
"751 412 OFFCURVE",
"619 505 OFFCURVE",
"502 590 CURVE SMOOTH",
"410 657 OFFCURVE",
"327 718 OFFCURVE",
"323 795 CURVE SMOOTH",
"318 896 OFFCURVE",
"413 934 OFFCURVE",
"491 934 CURVE SMOOTH",
"524 934 OFFCURVE",
"552 927 OFFCURVE",
"567 911 CURVE",
"671 771 LINE",
"684 755 OFFCURVE",
"693 743 OFFCURVE",
"721 743 CURVE SMOOTH",
"758 743 OFFCURVE",
"810 781 OFFCURVE",
"806 842 CURVE SMOOTH",
"800 939 OFFCURVE",
"706 1013 OFFCURVE",
"500 1013 CURVE SMOOTH",
"385 1013 OFFCURVE",
"154 970 OFFCURVE",
"154 750 CURVE SMOOTH",
"154 611 OFFCURVE",
"252 526 OFFCURVE",
"353 452 CURVE SMOOTH",
"457 376 OFFCURVE",
"562 311 OFFCURVE",
"567 213 CURVE SMOOTH",
"573 102 OFFCURVE",
"485 59 OFFCURVE",
"421 59 CURVE SMOOTH {name = hr00;}",
"362 59 OFFCURVE",
"330 59 OFFCURVE",
"304 82 CURVE",
"189 252 LINE",
"178 269 OFFCURVE",
"157 275 OFFCURVE",
"137 275 CURVE SMOOTH",
"93 275 OFFCURVE",
"46 247 OFFCURVE",
"46 191 CURVE SMOOTH",
"46 50 OFFCURVE",
"192 -28 OFFCURVE",
"397 -28 CURVE SMOOTH"
);
}
);
width = 883;
},
{
anchors = (
{
name = bottom;
position = "{470, 0}";
},
{
name = top;
position = "{621, 994}";
}
);
layerId = "BDB4B313-38B1-4B24-B843-560B185382BD";
paths = (
{
closed = 1;
nodes = (
"827 -28 OFFCURVE",
"958 141 OFFCURVE",
"958 271 CURVE SMOOTH",
"958 431 OFFCURVE",
"812 520 OFFCURVE",
"647 610 CURVE SMOOTH",
"515 682 OFFCURVE",
"410 737 OFFCURVE",
"410 820 CURVE SMOOTH",
"410 893 OFFCURVE",
"478 938 OFFCURVE",
"594 938 CURVE SMOOTH",
"642 938 OFFCURVE",
"673 922 OFFCURVE",
"705 900 CURVE",
"817 748 LINE SMOOTH",
"836 722 OFFCURVE",
"867 713 OFFCURVE",
"908 713 CURVE SMOOTH",
"950 713 OFFCURVE",
"1010 742 OFFCURVE",
"1010 815 CURVE SMOOTH",
"1010 921 OFFCURVE",
"868 1013 OFFCURVE",
"571 1013 CURVE SMOOTH",
"296 1013 OFFCURVE",
"125 898 OFFCURVE",
"125 739 CURVE SMOOTH",
"125 572 OFFCURVE",
"232 492 OFFCURVE",
"358 422 CURVE SMOOTH",
"509 338 OFFCURVE",
"669 271 OFFCURVE",
"669 171 CURVE SMOOTH",
"669 96 OFFCURVE",
"583 50 OFFCURVE",
"490 50 CURVE SMOOTH",
"442 50 OFFCURVE",
"394 62 OFFCURVE",
"366 85 CURVE",
"244 262 LINE SMOOTH",
"219 298 OFFCURVE",
"169 305 OFFCURVE",
"139 305 CURVE SMOOTH",
"103 305 OFFCURVE",
"37 282 OFFCURVE",
"37 207 CURVE SMOOTH",
"37 50 OFFCURVE",
"263 -28 OFFCURVE",
"492 -28 CURVE SMOOTH"
);
}
);
width = 1059;
}
);
unicode = 0073;
},
{
color = 10;
glyphname = germandbls;
lastChange = "2018-07-22 13:16:04 +0000";
layers = (
{
anchors = (
{
name = btm;
position = "{207, -170}";
},
{
name = top;
position = "{207, 1700}";
}
);
layerId = "D92FDD0B-F694-41DD-AE46-0E4F694F0F38";
paths = (
{
closed = 1;
nodes = (
"385 1093 LINE SMOOTH",
"433 1453 OFFCURVE",
"581 1474 OFFCURVE",
"675 1474 CURVE SMOOTH",
"763 1474 OFFCURVE",
"822 1418 OFFCURVE",
"822 1324 CURVE SMOOTH",
"822 1086 OFFCURVE",
"557 1061 OFFCURVE",
"557 866 CURVE SMOOTH",
"557 664 OFFCURVE",
"846 492 OFFCURVE",
"846 271 CURVE SMOOTH {name = hr02;}",
"846 153 OFFCURVE",
"773 55 OFFCURVE",
"653 55 CURVE SMOOTH",
"603 55 OFFCURVE",
"587 89 OFFCURVE",
"587 89 CURVE",
"542 222 LINE",
"540 239 OFFCURVE",
"520 244 OFFCURVE",
"494 244 CURVE SMOOTH",
"453 244 OFFCURVE",
"388 204 OFFCURVE",
"388 135 CURVE SMOOTH",
"388 52 OFFCURVE",
"467 -29 OFFCURVE",
"647 -29 CURVE SMOOTH",
"856 -29 OFFCURVE",
"1051 107 OFFCURVE",
"1051 340 CURVE SMOOTH",
"1051 635 OFFCURVE",
"734 744 OFFCURVE",
"734 911 CURVE SMOOTH",
"734 1072 OFFCURVE",
"1021 1098 OFFCURVE",
"1021 1350 CURVE SMOOTH {name = hr03;}",
"1021 1496 OFFCURVE",
"900 1559 OFFCURVE",
"716 1559 CURVE SMOOTH",
"390 1559 OFFCURVE",
"223 1315 OFFCURVE",
"186 1061 CURVE SMOOTH",
"32 0 LINE",
"238 0 LINE {name = hr01;}"
);
}
);
width = 1110;
},
{
anchors = (
{
name = btm;
position = "{-378, -170}";
},
{
name = top;
position = "{-378, 1700}";
}
);
layerId = "BDB4B313-38B1-4B24-B843-560B185382BD";
paths = (
{
closed = 1;
nodes = (
"520 1093 LINE SMOOTH",
"570 1453 OFFCURVE",
"729 1474 OFFCURVE",
"823 1474 CURVE SMOOTH",
"910 1474 OFFCURVE",
"946 1410 OFFCURVE",
"946 1304 CURVE SMOOTH",
"946 1043 OFFCURVE",
"667 1076 OFFCURVE",
"667 833 CURVE SMOOTH",
"667 639 OFFCURVE",
"955 581 OFFCURVE",
"955 314 CURVE SMOOTH",
"955 187 OFFCURVE",
"906 59 OFFCURVE",
"785 59 CURVE SMOOTH",
"745 59 OFFCURVE",
"725 87 OFFCURVE",
"725 87 CURVE",
"679 252 LINE",
"669 268 OFFCURVE",
"647 281 OFFCURVE",
"617 281 CURVE SMOOTH",
"556 281 OFFCURVE",
"495 222 OFFCURVE",
"495 135 CURVE SMOOTH",
"495 52 OFFCURVE",
"581 -29 OFFCURVE",
"775 -29 CURVE SMOOTH",
"1041 -29 OFFCURVE",
"1270 134 OFFCURVE",
"1270 371 CURVE SMOOTH",
"1270 727 OFFCURVE",
"853 820 OFFCURVE",
"853 913 CURVE SMOOTH",
"853 1021 OFFCURVE",
"1260 1081 OFFCURVE",
"1260 1315 CURVE SMOOTH",
"1260 1508 OFFCURVE",
"1076 1559 OFFCURVE",
"864 1559 CURVE SMOOTH",
"446 1559 OFFCURVE",
"245 1316 OFFCURVE",
"206 1061 CURVE SMOOTH",
"46 0 LINE",
"367 0 LINE"
);
}
);
width = 1343;
}
);
unicode = 00DF;
},
{
color = 10;
glyphname = longs;
lastChange = "2018-07-21 04:07:17 +0000";
layers = (
{
layerId = "D92FDD0B-F694-41DD-AE46-0E4F694F0F38";
paths = (
{
closed = 1;
nodes = (
"473 0 LINE SMOOTH",
"496 0 OFFCURVE",
"511 26 OFFCURVE",
"514 41 CURVE SMOOTH",
"520 71 OFFCURVE",
"511 75 OFFCURVE",
"483 78 CURVE SMOOTH",
"419 85 OFFCURVE",
"323 89 OFFCURVE",
"336 175 CURVE",
"475 1107 LINE",
"522 1421 OFFCURVE",
"603 1463 OFFCURVE",
"679 1475 CURVE",
"764 1312 LINE",
"765 1310 OFFCURVE",
"770 1309 OFFCURVE",
"775 1309 CURVE SMOOTH",
"811 1309 OFFCURVE",
"909 1363 OFFCURVE",
"912 1441 CURVE SMOOTH",
"915 1509 OFFCURVE",
"858 1573 OFFCURVE",
"730 1573 CURVE SMOOTH",
"488 1573 OFFCURVE",
"322 1330 OFFCURVE",
"284 1075 CURVE",
"145 142 LINE",
"138 98 OFFCURVE",
"69 84 OFFCURVE",
"19 78 CURVE SMOOTH",
"-7 75 OFFCURVE",
"-16 62 OFFCURVE",
"-19 41 CURVE SMOOTH",
"-21 26 OFFCURVE",
"-15 0 OFFCURVE",
"8 0 CURVE SMOOTH"
);
}
);
width = 603;
},
{
layerId = "BDB4B313-38B1-4B24-B843-560B185382BD";
paths = (
{
closed = 1;
nodes = (
"592 0 LINE SMOOTH",
"615 0 OFFCURVE",
"630 26 OFFCURVE",
"632 41 CURVE SMOOTH",
"636 71 OFFCURVE",
"629 75 OFFCURVE",
"602 78 CURVE",
"537 82 OFFCURVE",
"441 88 OFFCURVE",
"453 165 CURVE",
"594 1107 LINE",
"637 1396 OFFCURVE",
"682 1449 OFFCURVE",
"735 1449 CURVE",
"857 1278 LINE",
"857 1276 OFFCURVE",
"868 1275 OFFCURVE",
"868 1275 CURVE",
"933 1274 OFFCURVE",
"995 1334 OFFCURVE",
"1007 1416 CURVE SMOOTH",
"1018 1494 OFFCURVE",
"963 1563 OFFCURVE",
"780 1563 CURVE SMOOTH",
"486 1563 OFFCURVE",
"311 1331 OFFCURVE",
"273 1076 CURVE",
"132 132 LINE",
"126 95 OFFCURVE",
"57 82 OFFCURVE",
"8 78 CURVE",
"-19 75 OFFCURVE",
"-28 62 OFFCURVE",
"-31 41 CURVE SMOOTH {name = hr00;}",
"-33 26 OFFCURVE",
"-26 0 OFFCURVE",
"-3 0 CURVE SMOOTH"
);
}
);
width = 740;
}
);
unicode = 017F;
},
{
color = 10;
glyphname = t;
lastChange = "2018-07-21 04:06:18 +0000";
layers = (
{
anchors = (
{
name = bottom;
position = "{294, 0}";
},
{
name = btm;
position = "{228, -170}";
},
{
name = center;
position = "{364, 497}";
},
{
name = top;
position = "{401, 1191}";
},
{
name = topright;
position = "{769, 994}";
}
);
layerId = "D92FDD0B-F694-41DD-AE46-0E4F694F0F38";
paths = (
{
closed = 1;
nodes = (
"416 -28 OFFCURVE",
"538 25 OFFCURVE",
"606 93 CURVE SMOOTH",
"612 99 OFFCURVE",
"614 106 OFFCURVE",
"614 114 CURVE SMOOTH",
"614 133 OFFCURVE",
"597 157 OFFCURVE",
"585 157 CURVE SMOOTH",
"572 157 OFFCURVE",
"494 96 OFFCURVE",
"413 96 CURVE SMOOTH",
"371 96 OFFCURVE",
"330 109 OFFCURVE",
"330 209 CURVE SMOOTH",
"330 230 OFFCURVE",
"332 255 OFFCURVE",
"336 285 CURVE SMOOTH",
"423 892 LINE",
"670 892 LINE",
"687 899 OFFCURVE",
"704 944 OFFCURVE",
"704 968 CURVE SMOOTH",
"704 981 OFFCURVE",
"697 993 OFFCURVE",
"684 994 CURVE",
"437 994 LINE",
"477 1276 LINE",
"477 1284 OFFCURVE",
"475 1291 OFFCURVE",
"463 1291 CURVE SMOOTH",
"438 1291 LINE SMOOTH",
"421 1291 OFFCURVE",
"406 1286 OFFCURVE",
"399 1268 CURVE SMOOTH",
"317 1056 OFFCURVE",
"248 994 OFFCURVE",
"134 984 CURVE",
"117 977 OFFCURVE",
"103 963 OFFCURVE",
"103 931 CURVE SMOOTH",
"103 915 OFFCURVE",
"108 893 OFFCURVE",
"121 892 CURVE",
"232 892 LINE",
"135 223 LINE SMOOTH {name = hr00;}",
"132 199 OFFCURVE",
"130 176 OFFCURVE",
"130 156 CURVE SMOOTH",
"130 9 OFFCURVE",
"214 -28 OFFCURVE",
"320 -28 CURVE SMOOTH"
);
}
);
width = 711;
},
{
anchors = (
{
name = bottom;
position = "{357, 0}";
},
{
name = btm;
position = "{338, -170}";
},
{
name = center;
position = "{427, 497}";
},
{
name = top;
position = "{486, 1191}";
},
{
name = topright;
position = "{904, 994}";
}
);
layerId = "BDB4B313-38B1-4B24-B843-560B185382BD";
paths = (
{
closed = 1;
nodes = (
"572 -28 OFFCURVE",
"631 30 OFFCURVE",
"753 111 CURVE SMOOTH",
"762 117 OFFCURVE",
"765 127 OFFCURVE",
"765 139 CURVE SMOOTH",
"765 163 OFFCURVE",
"755 188 OFFCURVE",
"734 188 CURVE SMOOTH",
"708 188 OFFCURVE",
"635 121 OFFCURVE",
"529 121 CURVE SMOOTH",
"487 121 OFFCURVE",
"442 125 OFFCURVE",
"442 212 CURVE SMOOTH",
"442 230 OFFCURVE",
"444 251 OFFCURVE",
"448 276 CURVE SMOOTH",
"539 892 LINE",
"810 892 LINE",
"825 898 OFFCURVE",
"843 925 OFFCURVE",
"843 960 CURVE SMOOTH",
"843 976 OFFCURVE",
"840 993 OFFCURVE",
"824 994 CURVE",
"553 994 LINE",
"595 1267 LINE SMOOTH",
"597 1278 OFFCURVE",
"589 1291 OFFCURVE",
"572 1291 CURVE SMOOTH",
"525 1291 LINE SMOOTH",
"465 1291 OFFCURVE",
"433 1275 OFFCURVE",
"409 1228 CURVE SMOOTH",
"305 1025 OFFCURVE",
"268 1017 OFFCURVE",
"127 994 CURVE SMOOTH",
"109 991 OFFCURVE",
"86 962 OFFCURVE",
"86 931 CURVE SMOOTH",
"86 915 OFFCURVE",
"91 893 OFFCURVE",
"104 892 CURVE",
"228 892 LINE",
"131 223 LINE SMOOTH",
"128 200 OFFCURVE",
"127 180 OFFCURVE",
"127 161 CURVE SMOOTH",
"127 10 OFFCURVE",
"218 -28 OFFCURVE",
"340 -28 CURVE SMOOTH"
);
}
);
width = 854;
}
);
unicode = 0074;
},
